<?xml version="1.0" encoding="UTF-8" standalone="no"?>
<svg width="74px" height="74px" viewBox="0 0 74 74" version="1.1" xmlns="http://www.w3.org/2000/svg" xmlns:xlink="http://www.w3.org/1999/xlink">
    <!-- Generator: Sketch 3.8.3 (29802) - http://www.bohemiancoding.com/sketch -->
    <title>americanhistory</title>
    <desc>Created with Sketch.</desc>
    <defs></defs>
    <g id="Page-1" stroke="none" stroke-width="1" fill="none" fill-rule="evenodd">
        <g id="americanhistory">
            <rect id="Rectangle-48" fill="#284579" x="0" y="0" width="74" height="74"></rect>
            <path d="M37.8665893,23.709163 L37.3332255,23.709163 C37.038635,23.709163 36.7998617,23.4703897 36.7998617,23.1757992 L36.7998617,9.57276686 C36.7998617,9.27817638 37.038635,9.0392621 37.3332255,9.0392621 C37.627816,9.0392621 37.8665893,9.27817638 37.8665893,9.57276686 L37.8665893,23.709163 Z" id="Fill-4" fill="#BFBEBE"></path>
            <path d="M61.5183425,34.2752918 C61.9196339,34.4707928 61.8584606,34.6310556 61.3854244,34.6310556 L13.2136796,34.6310556 C12.7374015,34.6310556 12.676792,34.4707928 13.079493,34.2752918 L36.5704758,22.8188232 C36.9717672,22.6226175 37.6259272,22.6226175 38.0266549,22.8188232 L61.5183425,34.2752918 Z" id="Fill-6" fill="#FFFFFF"></path>
            <polygon id="Fill-8" fill="#E0E0E0" points="21.2431448 32.6963573 37.297339 24.8661707 53.3533657 32.6963573"></polygon>
            <polygon id="Fill-10" fill="#BFBEBE" points="16.4767695 36.5022971 57.8732152 36.5022971 57.8732152 34.6310133 16.4767695 34.6310133"></polygon>
            <polygon id="Fill-12" fill="#E0E0E0" points="26.414899 53.4301143 30.8870362 53.4301143 30.8870362 38.5514629 26.414899 38.5514629"></polygon>
            <polygon id="Fill-13" fill="#BFBEBE" points="26.414899 42.176899 30.8870362 42.176899 30.8870362 38.5283467 26.414899 38.5283467"></polygon>
            <polygon id="Fill-14" fill="#BFBEBE" points="26.414899 53.4530895 30.8870362 53.4530895 30.8870362 49.8045371 26.414899 49.8045371"></polygon>
            <path d="M31.9655333,40.6128069 L25.336261,40.6128069 C25.1589429,40.6128069 25.0151714,40.4690354 25.0151714,40.2917173 L25.0151714,38.8465326 C25.0151714,38.6692145 25.1589429,38.525443 25.336261,38.525443 L31.9655333,38.525443 C32.1428514,38.525443 32.2866229,38.6692145 32.2866229,38.8465326 L32.2866229,40.2917173 C32.2866229,40.4690354 32.1428514,40.6128069 31.9655333,40.6128069" id="Fill-15" fill="#E0E0E0"></path>
            <path d="M31.9655333,53.5413398 L25.336261,53.5413398 C25.1589429,53.5413398 25.0151714,53.3975684 25.0151714,53.2202503 L25.0151714,51.7750655 C25.0151714,51.5977474 25.1589429,51.453976 25.336261,51.453976 L31.9655333,51.453976 C32.1428514,51.453976 32.2866229,51.5977474 32.2866229,51.7750655 L32.2866229,53.2202503 C32.2866229,53.3975684 32.1428514,53.5413398 31.9655333,53.5413398" id="Fill-16" fill="#E0E0E0"></path>
            <polygon id="Fill-17" fill="#E0E0E0" points="15.5150514 53.4301143 19.9871886 53.4301143 19.9871886 38.5514629 15.5150514 38.5514629"></polygon>
            <polygon id="Fill-18" fill="#BFBEBE" points="15.5150514 42.2000152 19.9871886 42.2000152 19.9871886 38.5514629 15.5150514 38.5514629"></polygon>
            <polygon id="Fill-19" fill="#BFBEBE" points="15.5150514 53.4762057 19.9871886 53.4762057 19.9871886 49.8276533 15.5150514 49.8276533"></polygon>
            <path d="M21.0657985,40.6128069 L14.4365261,40.6128069 C14.259208,40.6128069 14.1154366,40.4690354 14.1154366,40.2917173 L14.1154366,38.8465326 C14.1154366,38.6692145 14.259208,38.525443 14.4365261,38.525443 L21.0657985,38.525443 C21.2431166,38.525443 21.386888,38.6692145 21.386888,38.8465326 L21.386888,40.2917173 C21.386888,40.4690354 21.2431166,40.6128069 21.0657985,40.6128069" id="Fill-20" fill="#E0E0E0"></path>
            <path d="M21.0657985,53.5413398 L14.4365261,53.5413398 C14.259208,53.5413398 14.1154366,53.3975684 14.1154366,53.2202503 L14.1154366,51.7750655 C14.1154366,51.5977474 14.259208,51.453976 14.4365261,51.453976 L21.0657985,51.453976 C21.2431166,51.453976 21.386888,51.5977474 21.386888,51.7750655 L21.386888,53.2202503 C21.386888,53.3975684 21.2431166,53.5413398 21.0657985,53.5413398" id="Fill-21" fill="#E0E0E0"></path>
            <polygon id="Fill-22" fill="#E0E0E0" points="43.2719581 53.4301143 47.7440952 53.4301143 47.7440952 38.5514629 43.2719581 38.5514629"></polygon>
            <polygon id="Fill-23" fill="#BFBEBE" points="43.2719581 42.1425067 47.7440952 42.1425067 47.7440952 38.4939543 43.2719581 38.4939543"></polygon>
            <polygon id="Fill-24" fill="#BFBEBE" points="43.2719581 53.4186971 47.7440952 53.4186971 47.7440952 49.7701448 43.2719581 49.7701448"></polygon>
            <path d="M48.8225642,40.6128069 L42.1932918,40.6128069 C42.0159737,40.6128069 41.8722023,40.4690354 41.8722023,40.2917173 L41.8722023,38.8465326 C41.8722023,38.6692145 42.0159737,38.525443 42.1932918,38.525443 L48.8225642,38.525443 C48.9998823,38.525443 49.1436537,38.6692145 49.1436537,38.8465326 L49.1436537,40.2917173 C49.1436537,40.4690354 48.9998823,40.6128069 48.8225642,40.6128069" id="Fill-25" fill="#E0E0E0"></path>
            <path d="M48.8225642,53.5413398 L42.1932918,53.5413398 C42.0159737,53.5413398 41.8722023,53.3975684 41.8722023,53.2202503 L41.8722023,51.7750655 C41.8722023,51.5977474 42.0159737,51.453976 42.1932918,51.453976 L48.8225642,51.453976 C48.9998823,51.453976 49.1436537,51.5977474 49.1436537,51.7750655 L49.1436537,53.2202503 C49.1436537,53.3975684 48.9998823,53.5413398 48.8225642,53.5413398" id="Fill-26" fill="#E0E0E0"></path>
            <polygon id="Fill-27" fill="#E0E0E0" points="54.4902171 53.4301143 58.9623543 53.4301143 58.9623543 38.5514629 54.4902171 38.5514629"></polygon>
            <polygon id="Fill-28" fill="#BFBEBE" points="54.4902171 42.176899 58.9623543 42.176899 58.9623543 38.5283467 54.4902171 38.5283467"></polygon>
            <polygon id="Fill-29" fill="#BFBEBE" points="54.4902171 53.4530895 58.9623543 53.4530895 58.9623543 49.8045371 54.4902171 49.8045371"></polygon>
            <path d="M60.0408655,40.6128069 L53.4115931,40.6128069 C53.234275,40.6128069 53.0905036,40.4690354 53.0905036,40.2917173 L53.0905036,38.8465326 C53.0905036,38.6692145 53.234275,38.525443 53.4115931,38.525443 L60.0408655,38.525443 C60.2181836,38.525443 60.361955,38.6692145 60.361955,38.8465326 L60.361955,40.2917173 C60.361955,40.4690354 60.2181836,40.6128069 60.0408655,40.6128069" id="Fill-30" fill="#E0E0E0"></path>
            <path d="M60.0408655,53.5413398 L53.4115931,53.5413398 C53.234275,53.5413398 53.0905036,53.3975684 53.0905036,53.2202503 L53.0905036,51.7750655 C53.0905036,51.5977474 53.234275,51.453976 53.4115931,51.453976 L60.0408655,51.453976 C60.2181836,51.453976 60.361955,51.5977474 60.361955,51.7750655 L60.361955,53.2202503 C60.361955,53.3975684 60.2181836,53.5413398 60.0408655,53.5413398" id="Fill-31" fill="#E0E0E0"></path>
            <path d="M61.2349013,56.6253356 L13.4444328,56.6253356 C13.0955756,56.6253356 12.8129661,56.3425851 12.8129661,55.993869 L12.8129661,54.1499299 C12.8129661,53.8012137 13.0955756,53.5184632 13.4444328,53.5184632 L61.2349013,53.5184632 C61.5836175,53.5184632 61.866368,53.8012137 61.866368,54.1499299 L61.866368,55.993869 C61.866368,56.3425851 61.5836175,56.6253356 61.2349013,56.6253356" id="Fill-32" fill="#FFFFFF"></path>
            <path d="M61.5012309,36.512051 L47.961909,36.512051 L35.174427,36.512051 L13.1781032,36.512051 C12.9764004,36.512051 12.8128956,36.6755558 12.8128956,36.8771177 L12.8128956,38.2530949 C12.8128956,38.4547977 12.9764004,38.6183025 13.1781032,38.6183025 L35.0654709,38.6183025 C35.0998632,38.6290149 35.1365109,38.6347939 35.174427,38.6347939 L61.5012309,38.6347939 C61.7029337,38.6347939 61.8662975,38.4714301 61.8662975,38.2697272 L61.8662975,36.8937501 C61.8662975,36.6920472 61.7029337,36.5286834 61.5012309,36.512051" id="Fill-33" fill="#FFFFFF"></path>
            <path d="M37.8730309,9.53404724 L37.8730309,18.3458263 C37.8730309,18.3458263 42.3454499,19.6943177 45.1733775,16.866531 C48.1164632,13.9234453 49.5739109,14.4704815 50.4075032,15.052333 C50.5381661,15.1436701 50.7025166,14.9965158 50.6334499,14.8528853 C49.9389775,13.4082644 48.2488175,9.60565105 44.7553128,11.0777577 C39.0308137,13.4897349 37.8730309,9.53404724 37.8730309,9.53404724" id="Fill-34" fill="#4A90E2"></path>
        </g>
    </g>
</svg>