<?xml version="1.0" encoding="UTF-8" standalone="no"?>
<svg width="74px" height="74px" viewBox="0 0 74 74" version="1.1" xmlns="http://www.w3.org/2000/svg" xmlns:xlink="http://www.w3.org/1999/xlink">
    <!-- Generator: Sketch 3.8.3 (29802) - http://www.bohemiancoding.com/sketch -->
    <title>apple</title>
    <desc>Created with Sketch.</desc>
    <defs></defs>
    <g id="Page-1" stroke="none" stroke-width="1" fill="none" fill-rule="evenodd">
        <g id="apple">
            <rect id="Rectangle-45" fill="#A6C744" x="0" y="0" width="74" height="74"></rect>
            <path d="M51.8687566,30.3284369 C49.9852099,28.8959882 47.3719528,28.0511783 44.8797737,28.0511783 C41.4993128,28.0511783 38.8981775,28.7343418 36.6669013,31.0704065 C34.4344975,28.7343418 31.8333623,28.0511783 28.4541699,28.0511783 C22.1037013,28.0511783 17.2669204,33.521551 17.2669204,40.2691973 C17.2669204,41.5905053 17.347968,42.8558209 17.4983642,44.0657068 C18.9008404,55.3560529 28.231747,61.7040148 32.6294613,61.7040148 C35.2196023,61.7040148 34.9090842,60.4534711 36.6669013,60.4534711 C38.4241547,60.4534711 38.1130728,61.7040148 40.7044823,61.7040148 C45.5724137,61.7040148 56.6858042,53.9236042 56.6858042,40.2691973 C56.6858042,36.1693722 54.7840747,32.5440757 51.8687566,30.3284369" id="Fill-4" fill="#C63442"></path>
            <path d="M36.7196034,33.6966608 L36.6967691,33.6966608 C36.0720682,33.6966608 35.5656263,33.2112996 35.5656263,32.6125468 L35.5656263,20.3929802 L37.8507463,20.3929802 L37.8507463,32.6125468 C37.8507463,33.2112996 37.3443044,33.6966608 36.7196034,33.6966608" id="Fill-6" fill="#10171D"></path>
            <path d="M39.0166621,24.684938 C37.0031573,26.6147061 33.0423954,25.9472992 30.1699269,23.1943867 C25.2866316,18.5140977 26.6077783,12.7921814 26.6077783,12.7921814 C26.6077783,12.7921814 32.4443345,11.3977175 37.4613935,16.20617 C40.3338621,18.9590825 41.0301669,22.75517 39.0166621,24.684938" id="Fill-8" fill="#38B88D"></path>
            <path d="M39.0166621,24.684938 C37.0031573,26.6147061 33.0423954,25.9472992 30.1699269,23.1943867 C25.2866316,18.5140977 26.6077783,12.7921814 26.6077783,12.7921814" id="Fill-10" fill="#4A89DC"></path>
            <path d="M44.0067992,56.912754 C31.0838621,56.912754 20.3021326,48.1268719 17.8096716,36.4475335 C17.4568678,37.6499631 17.266864,38.9344118 17.266864,40.2692255 C17.266864,41.5905335 17.3480526,42.855849 17.4983078,44.0655943 C18.900925,55.3559403 28.2316907,61.704043 32.629405,61.704043 C35.2196869,61.704043 34.9091688,60.4534992 36.6669859,60.4534992 C38.4242392,60.4534992 38.1130164,61.704043 40.7045669,61.704043 C43.1271154,61.704043 47.0963345,59.7768072 50.4729897,56.1579821 C48.4022583,56.6507996 46.236525,56.912754 44.0067992,56.912754" id="Fill-12" fill="#AD2D3A"></path>
            <path d="M51.3190564,37.4470681 C51.3190564,39.9900795 49.1679821,42.0516688 46.5145535,42.0516688 C43.8612659,42.0516688 41.7101916,39.9900795 41.7101916,37.4470681 C41.7101916,34.9040567 43.8612659,32.8424673 46.5145535,32.8424673 C49.1679821,32.8424673 51.3190564,34.9040567 51.3190564,37.4470681" id="Fill-14" fill="#E0564A"></path>
        </g>
    </g>
</svg>