<?xml version="1.0" encoding="UTF-8" standalone="no"?>
<svg width="74px" height="74px" viewBox="0 0 74 74" version="1.1" xmlns="http://www.w3.org/2000/svg" xmlns:xlink="http://www.w3.org/1999/xlink">
    <!-- Generator: Sketch 3.8.3 (29802) - http://www.bohemiancoding.com/sketch -->
    <title>art</title>
    <desc>Created with Sketch.</desc>
    <defs></defs>
    <g id="Page-1" stroke="none" stroke-width="1" fill="none" fill-rule="evenodd">
        <g id="art">
            <rect id="Rectangle-35" fill="#38B88D" x="0" y="0" width="74" height="74"></rect>
            <path d="M38.1320872,54.2966198 C36.854072,55.574776 34.781931,55.574776 33.5037749,54.2966198 C32.2257596,53.0186046 32.2257596,50.9464636 33.5037749,49.6683074 C34.781931,48.3902922 36.854072,48.3902922 38.1320872,49.6683074 C39.4102434,50.9464636 39.4102434,53.0186046 38.1320872,54.2966198 M53.4041368,20.7895608 C44.479032,11.864315 30.0129482,11.8569855 21.0786815,20.7674312 C12.1872644,29.6351684 12.1360987,44.1201398 20.967611,53.0474998 C28.3718396,60.5320712 39.6464796,61.8272827 48.3908834,56.9345436 C48.9703387,56.6103531 48.8505291,55.7401131 48.2022891,55.5962008 C47.0094091,55.3316331 45.8775615,54.7232827 44.9648949,53.7705855 C42.6057749,51.3077246 42.6015463,47.3741665 44.955733,44.906795 C47.4517177,42.2910008 51.5962815,42.2542122 54.1384987,44.7964293 C55.0339691,45.6918998 55.608773,46.7861131 55.8638968,47.9371303 C56.0063996,48.5808598 56.8759349,48.7054617 57.198152,48.1300941 C62.0755272,39.4196598 60.8111844,28.1966084 53.4041368,20.7895608" id="Fill-4" fill="#F1EEE9"></path>
            <path d="M27.4839947,43.2445718 C29.0129051,44.7734823 29.0129051,47.2525528 27.4839947,48.7816042 C25.9549432,50.3106556 23.4758728,50.3106556 21.9469623,48.7816042 C20.4177699,47.2525528 20.4177699,44.7734823 21.9469623,43.2445718 C23.4758728,41.7155204 25.9549432,41.7155204 27.4839947,43.2445718" id="Fill-6" fill="#F2CA26"></path>
            <path d="M24.7994579,32.5657798 C26.3285093,34.0948312 26.3285093,36.5739017 24.7994579,38.1028122 C23.2704065,39.6318636 20.791336,39.6318636 19.2624255,38.1028122 C17.7333741,36.5739017 17.7333741,34.0948312 19.2624255,32.5657798 C20.791336,31.0367284 23.2704065,31.0367284 24.7994579,32.5657798" id="Fill-8" fill="#5D60A5"></path>
            <path d="M40.32852,18.1643227 C41.8575714,19.6933741 41.8575714,22.1724446 40.32852,23.701355 C38.7994686,25.2304065 36.3203981,25.2304065 34.7914876,23.701355 C33.2624362,22.1724446 33.2624362,19.6933741 34.7914876,18.1643227 C36.3203981,16.6352712 38.7994686,16.6352712 40.32852,18.1643227" id="Fill-10" fill="#4A90E2"></path>
            <path d="M29.560491,22.7057661 C31.0895425,24.2348175 31.0895425,26.713888 29.560491,28.2429394 C28.0314396,29.7718499 25.5523691,29.7718499 24.0234587,28.2429394 C22.4944072,26.713888 22.4944072,24.2348175 24.0234587,22.7057661 C25.5523691,21.1767147 28.0314396,21.1767147 29.560491,22.7057661" id="Fill-12" fill="#A6C744"></path>
            <path d="M50.6676309,22.8467185 C52.1966823,24.3757699 52.1966823,26.8548404 50.6676309,28.3838918 C49.1385794,29.9128023 46.659509,29.9128023 45.1305985,28.3838918 C43.601547,26.8548404 43.601547,24.3757699 45.1305985,22.8467185 C46.659509,21.317667 49.1385794,21.317667 50.6676309,22.8467185" id="Fill-14" fill="#F06924"></path>
            <path d="M34.7572503,48.8857116 C34.299296,49.0421688 33.8691093,49.3030716 33.5037608,49.6684202 C32.2257455,50.9464354 32.2257455,53.0185764 33.5037608,54.2965916 C33.781155,54.5739859 34.0959017,54.7910526 34.4316503,54.9480735 C34.1224008,54.7942945 33.8323208,54.588504 33.5746598,54.3307021 C32.2965036,53.0526869 32.2965036,50.9805459 33.5746598,49.7025307 C33.950157,49.3270335 34.3948617,49.065144 34.8670522,48.9102373 C34.8305455,48.9020621 34.793757,48.8938869 34.7572503,48.8857116 M43.1976198,49.5245078 L43.1956465,49.5246488 C43.2379322,50.9720888 43.7629798,52.407125 44.7705074,53.558283 C43.7631208,52.407125 43.2394827,50.9718069 43.1976198,49.5245078 M19.2692617,51.1274183 L19.2695436,51.1278411 L19.2692617,51.1274183 M19.3797684,51.2662564 L19.381037,51.2679478 L19.3797684,51.2662564 M19.407536,51.3009307 L19.4086636,51.3023402 L19.407536,51.3009307 M19.4912617,51.4042488 L19.4943627,51.4081954 L19.4912617,51.4042488 M19.5187474,51.4379364 L19.5221303,51.442024 L19.5187474,51.4379364 M19.6045874,51.5422411 L19.6082522,51.5467516 L19.6045874,51.5422411 M19.6317912,51.575224 L19.6365836,51.5808621 L19.6317912,51.575224 M19.661955,51.6113078 L19.6635055,51.6131402 L19.661955,51.6113078 M19.7193227,51.6796697 L19.7234103,51.684603 L19.7193227,51.6796697 M19.7463855,51.7118069 L19.7523055,51.7189954 L19.7463855,51.7118069 M19.7752808,51.7460583 L19.7796503,51.7511326 L19.7752808,51.7460583 M19.8349036,51.8161116 L19.8405417,51.8227364 L19.8349036,51.8161116 M19.8622484,51.8479669 L19.8695779,51.856424 L19.8622484,51.8479669 M19.8905798,51.8809497 L19.8972046,51.8885611 L19.8905798,51.8809497 M19.9231398,51.918725 L19.9244084,51.9201345 L19.9231398,51.918725 M19.952176,51.9522716 L19.958237,51.9591783 L19.952176,51.9522716 M19.9795208,51.983704 L19.987837,51.9931478 L19.9795208,51.983704 M20.0075703,52.0157002 L20.0158865,52.025285 L20.0075703,52.0157002 M20.0377341,52.0500926 L20.0433722,52.0565764 L20.0377341,52.0500926 M20.0709989,52.0880088 L20.0762141,52.0939288 L20.0709989,52.0880088 M20.0983436,52.1188773 L20.1072236,52.1290259 L20.0983436,52.1188773 M20.1263931,52.1505916 L20.135555,52.1608811 L20.1263931,52.1505916 M20.1561341,52.1838564 L20.1633227,52.1918907 L20.1561341,52.1838564 M20.1910903,52.2230411 L20.194896,52.2272697 L20.1910903,52.2230411 M20.218576,52.2536278 L20.2277379,52.2637764 L20.218576,52.2536278 M20.2467665,52.2849192 L20.2564922,52.2956316 L20.2467665,52.2849192 M20.2766484,52.3177611 L20.2842598,52.3263592 L20.2766484,52.3177611 M20.3124503,52.3572278 L20.3135779,52.3586373 L20.3124503,52.3572278 M20.3403589,52.3878145 L20.3490979,52.3973992 L20.3403589,52.3878145 M20.3685493,52.418683 L20.378557,52.4295364 L20.3685493,52.418683 M20.3974446,52.4501154 L20.4070293,52.4605459 L20.3974446,52.4501154 M20.4307093,52.4860583 L20.4352198,52.4911326 L20.4307093,52.4860583 M20.4631284,52.5211554 L20.4718674,52.5305992 L20.4631284,52.5211554 M20.4916008,52.5517421 L20.5020312,52.5628773 L20.4916008,52.5517421 M20.520637,52.5828926 L20.5306446,52.593605 L20.520637,52.5828926 M20.552915,52.617285 L20.559117,52.6237688 L20.552915,52.617285 M20.5874484,52.6539326 L20.5952008,52.6622488 L20.5874484,52.6539326 M20.6159208,52.6840964 L20.6262103,52.6950907 L20.6159208,52.6840964 M20.6455208,52.7153878 L20.6552465,52.7255364 L20.6455208,52.7153878 M20.6770941,52.7485116 L20.6841417,52.7558411 L20.6770941,52.7485116 M20.712755,52.785723 L20.7198027,52.7930526 L20.712755,52.785723 M20.7417912,52.8160278 L20.7517989,52.8264583 L20.7417912,52.8160278 M20.7711093,52.8463326 L20.7815398,52.8571859 L20.7711093,52.8463326 M20.801837,52.8780469 L20.8108579,52.8874907 L20.801837,52.8780469 M20.8397531,52.9172316 L20.8434179,52.9208964 L20.8397531,52.9172316 M20.8689303,52.9469726 L20.8782331,52.9565573 L20.8689303,52.9469726 M20.8985303,52.9774183 L20.9086789,52.9877078 L20.8985303,52.9774183 M20.9292579,53.0085688 L20.9382789,53.0177307 L20.9292579,53.0085688 M20.967597,53.0474716 C25.4442446,57.5727478 31.3376046,59.8358792 37.2292731,59.8358792 C31.3376046,59.8354564 25.4443855,57.5727478 20.967597,53.0474716 M44.7714941,53.5595516 L44.7826293,53.5720964 L44.7714941,53.5595516 M44.7846027,53.5743516 L44.7950331,53.5861916 L44.7846027,53.5743516 M44.7975703,53.5891516 L44.807437,53.6001459 L44.7975703,53.5891516 M44.8108198,53.6039516 L44.8199817,53.6142411 L44.8108198,53.6039516 M44.8242103,53.6188926 L44.8325265,53.6281954 L44.8242103,53.6188926 M44.8377417,53.6339745 L44.8453531,53.6424316 L44.8377417,53.6339745 M44.8508503,53.6484926 L44.8583208,53.6566678 L44.8508503,53.6484926 M44.8642408,53.6631516 L44.8714293,53.671045 L44.8642408,53.6631516 M44.8776312,53.6776697 L44.8845379,53.6851402 L44.8776312,53.6776697 M44.8914446,53.6926107 L44.8976465,53.6993764 L44.8914446,53.6926107 M44.9053989,53.7076926 L44.910896,53.7136126 L44.9053989,53.7076926 M44.919776,53.7229154 L44.9241455,53.7277078 L44.919776,53.7229154 M44.9340122,53.7381383 L44.937677,53.742085 L44.9340122,53.7381383 M44.9471208,53.7519516 L44.9513493,53.7564621 L44.9471208,53.7519516" id="Fill-16" fill="#36B289"></path>
            <path d="M14.7663829,32.7450149 C13.5883029,39.081811 15.0866267,45.827933 19.2692476,51.1274606 L19.2695295,51.1277425 C19.3060362,51.1739749 19.3428248,51.2203482 19.3797543,51.2662987 L19.3810229,51.2679901 L19.4075219,51.300973 L19.4086495,51.3022415 C19.4362762,51.3366339 19.463339,51.3700396 19.4912476,51.404291 L19.4943486,51.4080968 L19.5187333,51.4379787 L19.5221162,51.4420663 C19.549461,51.475472 19.5769467,51.5088777 19.6045733,51.5422834 L19.6082381,51.546653 L19.6319181,51.5751253 L19.6365695,51.5807634 L19.661941,51.6113501 L19.6634914,51.6130415 C19.6822381,51.6355939 19.700421,51.6573006 19.7193086,51.679712 L19.7233962,51.6846453 L19.7463714,51.7118491 L19.7524324,51.7188968 L19.7752667,51.7461006 L19.7796362,51.7511749 C19.798101,51.7728815 19.8164248,51.7944472 19.8348895,51.8161539 L19.8405276,51.8227787 L19.8622343,51.8480091 L19.8695638,51.8564663 L19.8905657,51.880851 L19.8971905,51.8886034 L19.9231257,51.9187672 L19.9243943,51.9201768 L19.9521619,51.952173 L19.9582229,51.9592206 L19.9796476,51.9837463 L19.9878229,51.9931901 L20.0075562,52.0157425 L20.0158724,52.0253272 L20.03772,52.0501349 L20.0433581,52.0566187 L20.0709848,52.088051 L20.0762,52.0938301 L20.0983295,52.1189196 L20.1072095,52.1289272 L20.12652,52.1506339 L20.135541,52.1607825 L20.15612,52.1838987 L20.1633086,52.191933 L20.1910762,52.2229425 L20.1948819,52.227312 L20.2187029,52.2536701 L20.2277238,52.2638187 L20.2467524,52.2848206 L20.2564781,52.295533 L20.2766343,52.3178034 L20.2842457,52.3264015 L20.3124362,52.3572701 L20.3135638,52.3585387 L20.3403448,52.3878568 L20.3490838,52.3974415 L20.3685352,52.4187253 L20.3785429,52.4295787 L20.3974305,52.4501577 L20.4070152,52.4605882 L20.4306952,52.4861006 L20.4352057,52.4910339 L20.4631143,52.5210568 L20.4719943,52.5306415 L20.4915867,52.5516434 L20.5020171,52.5629196 L20.5206229,52.5827939 L20.5306305,52.5935063 L20.552901,52.6173272 L20.5591029,52.623811 L20.5874343,52.6539749 L20.5953276,52.662291 L20.6159067,52.6841387 L20.6261962,52.694992 L20.6455067,52.7152891 L20.6552324,52.7255787 L20.677221,52.7485539 L20.6841276,52.7558834 L20.712741,52.7857653 L20.7197886,52.7930949 L20.7417771,52.8159291 L20.7517848,52.8263596 L20.7710952,52.8463749 L20.7815257,52.8572282 L20.8018229,52.8780891 L20.8108438,52.887533 L20.839739,52.917133 L20.8434038,52.9209387 L20.8689162,52.9470149 L20.878219,52.9565996 L20.8985162,52.9774606 L20.9086648,52.9876091 L20.9292438,53.008611 L20.9382648,53.017773 L20.9675829,53.0475139 C25.4443714,57.5727901 31.3375905,59.8354987 37.229259,59.8359215 C41.0821924,59.8362034 44.9334343,58.8691291 48.3908552,56.9345577 C48.9002571,56.649552 48.8692476,55.9428168 48.4142533,55.6782491 C48.3515295,55.6417425 48.2807714,55.613693 48.202261,55.5962149 C47.009381,55.3316472 45.8775333,54.7232968 44.9648667,53.7705996 L44.9513352,53.7565044 L44.9471067,53.7519939 L44.9376629,53.7419863 L44.9339981,53.7381806 L44.9242724,53.7277501 L44.9197619,53.7229577 L44.9108819,53.7135139 L44.9053848,53.7075939 L44.8977733,53.6994187 L44.8914305,53.692653 L44.8845238,53.6851825 L44.8776171,53.677712 L44.8714152,53.6709463 L44.8642267,53.663053 L44.8583067,53.6567101 L44.8508362,53.6485349 L44.845339,53.642333 L44.8377276,53.6338758 L44.8325124,53.6280968 L44.8241962,53.6189349 L44.8199676,53.6141425 L44.8108057,53.6039939 L44.8074229,53.6001882 L44.7975562,53.589053 L44.795019,53.586093 L44.7845886,53.5743939 L44.7826152,53.5721387 L44.77148,53.5595939 L44.7704933,53.5583253 C43.7629657,52.4071672 43.2379181,50.9719901 43.1956324,49.5245501 C42.5269543,49.5705006 41.8526381,49.595731 41.172261,49.595731 C40.0523943,49.595731 38.9474686,49.5320206 37.8604438,49.4088282 C37.9791257,49.4986149 38.0947067,49.5943215 38.2029581,49.702573 C39.4811143,50.9805882 39.4811143,53.0527291 38.2029581,54.3307444 C37.56388,54.9698225 36.726341,55.2893615 35.8888019,55.2893615 C35.3891257,55.2893615 34.8893086,55.175613 34.4317771,54.9481158 C34.0958876,54.7910949 33.781141,54.5740282 33.5038876,54.2966339 C32.2257314,53.0186187 32.2257314,50.9464777 33.5038876,49.6683215 C33.8690952,49.3031139 34.2992819,49.042211 34.7572362,48.8857539 C32.5920667,48.3986225 30.5176705,47.6698987 28.5649162,46.7298872 C28.4256552,47.4814453 28.065381,48.2003025 27.4839524,48.781731 C26.7194267,49.5461158 25.7173962,49.9283787 24.7153657,49.9283787 C23.7133352,49.9283787 22.7113048,49.5461158 21.94692,48.781731 C20.4178686,47.2525387 20.4178686,44.7736091 21.94692,43.2445577 C22.1138076,43.0776701 22.2921124,42.9289653 22.4790152,42.7984434 C19.2254114,40.0690415 16.577621,36.6409387 14.7663829,32.7450149" id="Fill-18" fill="#E8E6E1"></path>
            <path d="M22.4790857,42.7984998 C22.2920419,42.9288808 22.1137371,43.0777265 21.9468495,43.2446141 C20.4177981,44.7735246 20.4177981,47.252595 21.9468495,48.7816465 C22.7113752,49.5461722 23.7134057,49.928435 24.7154362,49.928435 C25.7174667,49.928435 26.7194971,49.5461722 27.4840229,48.7816465 C28.0654514,48.2002179 28.4257257,47.4815017 28.5649867,46.7298027 C26.3689486,45.6728008 24.3266895,44.3484122 22.4790857,42.7984998" id="Fill-20" fill="#E9C326"></path>
            <path d="M50.7334274,36.0402842 C51.5024636,38.403069 49.2097322,41.5618118 46.6465131,42.6546156 C40.747797,45.169488 36.4925855,42.111667 39.0558046,41.0188632 C41.9602693,39.7805966 39.6394884,35.8980632 44.6998198,33.740787 C47.2630389,32.6479832 49.9643912,33.6774994 50.7334274,36.0402842" id="Fill-22" fill="#101928"></path>
            <path d="M53.226424,33.1319432 L50.2328773,30.5914175 L58.8848164,19.0227509 C59.9966488,17.7127394 61.9599745,17.5519128 63.2701269,18.6637451 C64.5801383,19.7755775 64.740824,21.7389032 63.6289916,23.0490556 L53.226424,33.1319432 Z" id="Fill-24" fill="#1C2A47"></path>
            <path d="M48.2285345,36.187523 L47.8789726,35.8908183 C47.134744,35.2592107 47.0435478,34.1439954 47.6750145,33.3999078 L50.2599402,30.5062964 L53.3043707,33.0900945 L50.719445,35.983565 C50.0879783,36.7277935 48.972763,36.8191307 48.2285345,36.187523" id="Fill-26" fill="#A8BFD1"></path>
            <path d="M45.9432876,42.9306145 C46.0712724,40.1989573 44.086381,37.7793688 41.3258286,37.417403 C41.27424,37.4106373 41.2227924,37.4064088 41.1713448,37.4011935 C40.6691314,38.9189688 40.6196571,40.3521726 39.0557905,41.0188773 C36.5957486,42.067704 40.4168267,44.9256545 45.9432876,42.9306145" id="Fill-28" fill="#5588C6"></path>
        </g>
    </g>
</svg>