<?xml version="1.0" encoding="UTF-8" standalone="no"?>
<svg width="74px" height="74px" viewBox="0 0 74 74" version="1.1" xmlns="http://www.w3.org/2000/svg" xmlns:xlink="http://www.w3.org/1999/xlink">
    <!-- Generator: Sketch 3.8.3 (29802) - http://www.bohemiancoding.com/sketch -->
    <title>baseball</title>
    <desc>Created with Sketch.</desc>
    <defs></defs>
    <g id="Page-1" stroke="none" stroke-width="1" fill="none" fill-rule="evenodd">
        <g id="baseball">
            <rect id="Rectangle-45" fill="#A6C744" x="0" y="-2.27373675e-13" width="74" height="74"></rect>
            <path d="M57.0626404,34.9859455 C54.367067,40.2204941 43.7816842,45.083915 36.3374251,41.2502922 C30.3671051,38.1758389 29.074149,29.1110503 29.2499166,24.4180408 C29.2933299,23.2592712 31.714187,23.8676217 32.2481147,22.8310579 C32.5778023,22.1907112 30.8462023,19.8841665 31.329669,19.3681398 C34.7989299,15.6651798 41.9304156,15.2018693 48.4642632,18.5665436 C55.9086632,22.4001665 59.7582137,29.751397 57.0626404,34.9859455" id="Fill-4" fill="#E4AB41"></path>
            <path d="M38.2556179,41.9263562 L34.0775074,21.0001429 L30.4334655,20.4710076 C29.3868941,24.6040133 25.5204293,28.3742076 21.3992636,29.4670114 L21.7550274,34.4341733 L20.853496,34.0985657 L20.853496,45.4188743 L22.5415417,45.4188743 L22.9269055,50.8007181 L38.2556179,41.9263562" id="Fill-6" fill="#816628"></path>
            <path d="M44.0783608,61.8873417 L31.5547417,61.8873417 C28.0664522,61.8873417 25.2385246,59.0594141 25.2385246,55.5711246 L25.2385246,55.5711246 L50.3945779,55.5711246 L50.3945779,55.5711246 C50.3945779,59.0594141 47.5666503,61.8873417 44.0783608,61.8873417" id="Fill-8" fill="#816628"></path>
            <polygon id="Fill-10" fill="#816628" points="25.2386514 55.57104 50.3945638 55.57104 50.3945638 49.9188495 25.2386514 49.9188495"></polygon>
            <path d="M58.7610179,22.8346663 C58.6417722,20.1424758 56.0841912,18.3202434 53.5478941,18.8266853 C53.3659246,18.863051 53.2354027,19.0248644 53.2354027,19.2103577 L53.2354027,31.0668491 C53.2354027,31.538053 52.8724503,31.9487882 52.4016693,31.9628834 C51.9145379,31.9775425 51.514797,31.5868225 51.514797,31.102933 L51.514797,17.1831806 C51.514797,16.8019044 51.3989341,16.4288034 51.1794712,16.1170168 C50.4483512,15.0787615 49.2406712,14.4006396 47.8742789,14.4006396 C47.6033684,14.4006396 47.3390827,14.4275615 47.083536,14.4790091 C46.4963284,14.5969863 46.080237,15.1235844 46.080237,15.722491 L46.080237,38.3381596 L44.2010598,38.3381596 L44.2010598,14.4110701 C44.2010598,14.3170549 44.1684998,14.224872 44.105635,14.1546777 C43.3661989,13.3289787 42.2934103,12.8083006 41.0977112,12.8083006 C40.2976655,12.8083006 39.5528731,13.0415768 38.925776,13.4431501 C38.8125912,13.5157406 38.7429608,13.6400606 38.7429608,13.7746701 L38.7429608,38.3381596 L36.599075,38.3381596 L36.599075,14.2949253 C36.599075,13.8779882 36.406816,13.481771 36.0737455,13.2312987 C35.4968274,12.7974472 34.8980617,12.543592 34.0641874,12.543592 C31.8331931,12.543592 30.0244922,14.352152 30.0244922,16.5831463 L30.0244922,38.4455653 C30.0244922,40.1619425 29.1474865,42.2075844 26.3254789,42.2075844 C24.3222636,42.2075844 22.6984922,40.583672 22.6984922,38.5805977 L22.687357,30.9877749 C22.687357,28.817531 21.0600617,27.0185558 19.025696,27.0024872 C16.9752617,26.9862777 15.3082179,28.7546663 15.3082179,30.9383006 C15.3082179,30.9383006 14.8536465,44.0191044 16.1374408,47.2424034 C18.8100389,53.9524415 24.4461608,59.0055844 31.6685608,59.0520987 C31.7253646,59.0525215 44.3638598,59.0528034 44.3638598,59.0528034 C49.7658598,58.666453 53.6194979,56.0130244 56.0717874,52.216472 C57.8582179,49.4508453 58.7610179,46.2079539 58.7612998,42.9155882 C58.7620046,36.7618891 58.7632731,22.8838587 58.7610179,22.8346663" id="Fill-12" fill="#C09B2E"></path>
            <path d="M51.5149097,31.1030034 L51.5149097,16.9654796 C51.5149097,16.7620853 51.4641669,16.5605234 51.3604259,16.3854606 C50.6573554,15.1975139 49.3639764,14.4005691 47.8835535,14.4005691 L47.8835535,14.4005691 C47.5590811,14.4005691 47.2440526,14.439331 46.9421326,14.5122034 C46.4310392,14.6356777 46.0802088,15.1075863 46.0802088,15.6334796 L46.0802088,38.3382301 L44.6251573,38.3382301 C45.167683,39.5676168 45.7753288,40.6891749 46.9718735,41.0106872 L48.9322392,39.0504625 C50.599565,37.3831368 51.5178697,35.1662377 51.5178697,32.8083863 C51.5178697,32.8083863 51.5149097,31.4085882 51.5149097,31.1030034" id="Fill-13" fill="#A5812E"></path>
            <path d="M36.599075,14.5095958 C36.599075,13.9073063 36.2989874,13.337013 35.7873303,13.0188834 C35.299776,12.7158358 34.7602103,12.543592 34.0733493,12.543592 C31.842355,12.543592 30.033795,14.352152 30.033795,16.5831463 L30.033795,34.2394053 C30.033795,36.3734244 31.7638446,38.1034739 33.8978636,38.1034739 C35.089757,38.1034739 35.8905074,37.5637672 36.599075,36.7153749 L36.599075,14.5095958" id="Fill-14" fill="#A5812E"></path>
            <path d="M44.2010598,14.7171905 C44.2010598,14.402021 44.0773036,14.0957314 43.8460008,13.8817657 C43.1262979,13.2159067 42.1647208,12.8082724 41.1068731,12.8082724 C40.497536,12.8082724 39.7941836,12.9435867 39.1983779,13.185461 C38.7619893,13.3626381 38.4783931,13.7887371 38.4783931,14.259659 L38.4783931,37.6663524 C39.1367817,38.1874533 40.2321227,38.5006495 41.137037,38.5006495 C42.3854522,38.5006495 43.4946065,37.9078038 44.2010598,36.9893581 L44.2010598,14.7171905 Z" id="Fill-15" fill="#A5812E"></path>
            <path d="M53.1835745,25.7054998 L54.6045154,24.2845589 C54.8682373,24.0209779 54.8682373,23.5934693 54.6045154,23.3297474 C54.3407935,23.0661665 53.9134259,23.0661665 53.649704,23.3297474 L52.228763,24.7506884 L50.8078221,23.3297474 C50.5441002,23.0661665 50.1167326,23.0661665 49.8528697,23.3297474 C49.5892888,23.5934693 49.5892888,24.0209779 49.8528697,24.2845589 L51.2739516,25.7054998 L49.8528697,27.1264408 C49.5892888,27.3901627 49.5892888,27.8176712 49.8528697,28.0812522 C49.9848011,28.2131836 50.1576088,28.2790084 50.3304164,28.2790084 C50.503224,28.2790084 50.6758907,28.2131836 50.8078221,28.0812522 L52.228763,26.6604522 L53.649704,28.0812522 C53.7814945,28.2131836 53.9543021,28.2790084 54.1271097,28.2790084 C54.2999173,28.2790084 54.472725,28.2131836 54.6045154,28.0812522 C54.8682373,27.8176712 54.8682373,27.3901627 54.6045154,27.1264408 L53.1835745,25.7054998 Z" id="Fill-16" fill="#735924"></path>
            <path d="M47.569427,19.2273425 C47.3057051,18.9636206 46.8783375,18.9636206 46.6146156,19.2273425 L45.1936747,20.6482834 L43.7727337,19.2273425 C43.5090118,18.9636206 43.0816442,18.9636206 42.8177813,19.2273425 C42.5542004,19.4910644 42.5542004,19.918573 42.8177813,20.1821539 L44.2387223,21.6030949 L42.8177813,23.0240358 C42.5542004,23.2877577 42.5542004,23.7151253 42.8177813,23.9788472 C42.9497128,24.1106377 43.1223794,24.1766034 43.295328,24.1766034 C43.4681356,24.1766034 43.6408023,24.1106377 43.7727337,23.9788472 L45.1936747,22.5579063 L46.6146156,23.9788472 C46.7464061,24.1106377 46.9192137,24.1766034 47.0920213,24.1766034 C47.264829,24.1766034 47.4374956,24.1106377 47.569427,23.9788472 C47.833149,23.7151253 47.833149,23.2877577 47.569427,23.0240358 L46.1484861,21.6030949 L47.569427,20.1821539 C47.833149,19.918573 47.833149,19.4910644 47.569427,19.2273425" id="Fill-17" fill="#735924"></path>
            <path d="M39.8903131,18.1827444 C39.6265912,17.9190225 39.1992236,17.9190225 38.9353608,18.1827444 L37.5145608,19.6036853 L36.0936198,18.1827444 C35.8298979,17.9190225 35.4023893,17.9190225 35.1386674,18.1827444 C34.8750865,18.4464663 34.8750865,18.8738339 35.1386674,19.1375558 L36.5596084,20.5584968 L35.1386674,21.9794377 C34.8750865,22.2431596 34.8750865,22.6705272 35.1386674,22.9342491 C35.2705989,23.0660396 35.4432655,23.1320053 35.6162141,23.1320053 C35.7890217,23.1320053 35.9616884,23.0660396 36.0936198,22.9342491 L37.5145608,21.5133082 L38.9353608,22.9342491 C39.0672922,23.0660396 39.2400998,23.1320053 39.4129074,23.1320053 C39.585715,23.1320053 39.7583817,23.0660396 39.8903131,22.9342491 C40.1538941,22.6705272 40.1538941,22.2431596 39.8903131,21.9794377 L38.4693722,20.5584968 L39.8903131,19.1375558 C40.1538941,18.8738339 40.1538941,18.4464663 39.8903131,18.1827444" id="Fill-18" fill="#735924"></path>
            <path d="M40.2203813,55.6048545 C27.8354594,55.6048545 17.5226785,47.771144 15.274488,37.4048011 C15.3093032,41.1955745 15.5057909,45.5607288 16.1755966,47.2424316 C18.8481947,53.9524697 24.4843166,59.0056126 31.7067166,59.0521269 C31.7636613,59.0525497 44.4020156,59.0528316 44.4020156,59.0528316 C49.8040156,58.6664811 53.6576537,56.0129116 56.1100842,52.2165002 C56.6395013,51.3965802 57.0878709,50.5335288 57.4609718,49.6405954 C52.931749,53.342005 46.875448,55.6048545 40.2203813,55.6048545" id="Fill-19" fill="#A5812E"></path>
            <path d="M52.0960282,41.3665497 C52.0960282,47.8765764 46.8186301,53.1541154 40.3084625,53.1541154 C33.7984358,53.1541154 28.5208968,47.8765764 28.5208968,41.3665497 C28.5208968,34.856523 33.7984358,29.578984 40.3084625,29.578984 C46.8186301,29.578984 52.0960282,34.856523 52.0960282,41.3665497" id="Fill-20" fill="#A5812E"></path>
            <path d="M50.1390594,34.1230914 C52.6461794,39.9338533 49.9679432,46.6768743 44.1571813,49.1839943 C38.3462785,51.6909733 31.6033985,49.0128781 29.0962785,43.2019752 C26.5891585,37.3912133 29.2673947,30.6481924 35.0781566,28.1412133 C40.8890594,25.6340933 47.6319394,28.3123295 50.1390594,34.1230914" id="Fill-21" fill="#F7F8F8"></path>
            <path d="M50.0766175,40.4465535 C47.1510099,40.4465535 44.741147,39.0735364 43.7876042,36.863403 C42.7427242,34.4417002 43.7247394,31.4019211 46.120789,29.2258983 C45.860168,29.0480164 45.5867204,28.8735173 45.309608,28.7164964 C44.5524118,29.4401459 43.8259432,30.3539402 43.3585451,31.2317916 C42.2897032,33.2392354 42.1426899,35.3683211 42.944709,37.2270602 C43.746728,39.0857992 45.3965756,40.4397878 47.5900766,41.0396811 C48.3834975,41.2564659 49.2214594,41.3665497 50.0807051,41.3665497 C50.2560499,41.3665497 50.575589,41.3757116 50.7527661,41.3665497 C50.8288804,41.0570183 50.8971013,40.7006907 50.9464347,40.3893269 C50.7045604,40.4079326 50.3152499,40.4465535 50.0766175,40.4465535" id="Fill-22" fill="#4A89DC"></path>
            <path d="M35.9039261,46.081576 C36.972768,44.0742731 37.1196404,41.9450465 36.3177623,40.0863074 C35.5156023,38.2275684 33.8658956,36.8735798 31.6722537,36.2738274 C30.8789737,36.0569017 30.0410118,35.9469589 29.1814842,35.9469589 C29.0062804,35.9469589 28.6571413,35.9586579 28.4799642,35.9678198 C28.4039909,36.2772103 28.3423947,36.594776 28.2930613,36.9064217 C28.5350766,36.887816 28.9470804,36.866955 29.1857128,36.866955 C32.1114613,36.866955 34.5211832,38.2399722 35.4747261,40.4499646 C36.5196061,42.8718084 35.5213813,45.930475 33.1254728,48.1066389 C33.3858118,48.2843798 33.657709,48.4569055 33.9349623,48.6139265 C34.6922994,47.8904179 35.436528,46.9595684 35.9039261,46.081576" id="Fill-23" fill="#4A89DC"></path>
            <path d="M37.0967215,39.2194644 C37.0437234,39.2194644 36.991853,39.2303177 36.9426606,39.2514606 L34.529133,40.2928168 C34.4335672,40.3339749 34.3598491,40.4099482 34.3213691,40.5066415 C34.2830301,40.6034758 34.2845806,40.709331 34.3257387,40.8048968 L34.416371,41.0149158 C34.4781082,41.1578415 34.6186377,41.2503063 34.7743901,41.2503063 C34.8273882,41.2503063 34.8792587,41.2395939 34.928451,41.2183101 L37.3419787,40.1769539 C37.539171,40.0918187 37.6303672,39.8622072 37.545373,39.6648739 L37.4547406,39.4548549 C37.3930034,39.3119291 37.2524739,39.2194644 37.0967215,39.2194644" id="Fill-24" fill="#4A89DC"></path>
            <path d="M32.5482587,38.489176 C32.5271158,38.5910846 32.5468491,38.6951074 32.6039349,38.782216 L32.7293825,38.9734884 C32.801691,39.0835722 32.9236149,39.149397 33.0556872,39.149397 C33.1313787,39.149397 33.2052377,39.1272674 33.2689482,39.0854046 L35.4666777,37.6438846 C35.5537863,37.5867989 35.6132682,37.4992674 35.634552,37.3972179 C35.6556949,37.2954503 35.6359615,37.1912865 35.5788758,37.1043189 L35.4534282,36.9130465 C35.3811196,36.8029627 35.2590549,36.7371379 35.1271234,36.7371379 C35.051291,36.7371379 34.977573,36.7592674 34.9138625,36.8009893 L32.715992,38.2426503 C32.6290244,38.299736 32.5694015,38.3872674 32.5482587,38.489176" id="Fill-25" fill="#4A89DC"></path>
            <path d="M32.6983166,35.3322655 C32.6247394,35.2523455 32.5201528,35.206395 32.4114785,35.206395 C32.3135166,35.206395 32.2199242,35.2429017 32.1477566,35.3092903 L30.2131851,37.0886731 C30.136648,37.1591493 30.0919661,37.2551379 30.0875966,37.3591608 C30.083368,37.4631836 30.1197337,37.562696 30.1902099,37.6392331 L30.3449756,37.8075303 C30.4185528,37.8875912 30.5231394,37.9334008 30.6319547,37.9334008 C30.7297756,37.9334008 30.823368,37.8968941 30.8955356,37.8305055 L32.830107,36.0511227 C32.9882556,35.9058008 32.9985451,35.6587112 32.8530823,35.5007036 L32.6983166,35.3322655" id="Fill-26" fill="#4A89DC"></path>
            <path d="M36.9010655,45.420171 L36.872875,45.4211577 L34.2508789,45.6076377 C34.1471379,45.6151082 34.0524179,45.6624682 33.9843379,45.7409787 C33.916117,45.8196301 33.8825703,45.9201291 33.8900408,46.024011 L33.9062503,46.252072 C33.9206274,46.4551844 34.0911798,46.6140377 34.2942922,46.6140377 L34.3224827,46.613051 L36.9443379,46.426712 C37.0482198,46.4192415 37.1429398,46.3718815 37.2110198,46.2932301 C37.2792408,46.2145787 37.3127874,46.1142206 37.3054579,46.0103387 L37.2891074,45.7821368 C37.2747303,45.5791653 37.1043189,45.420171 36.9010655,45.420171" id="Fill-27" fill="#4A89DC"></path>
            <path d="M37.9742206,43.1592949 C38.0286282,43.0706358 38.0454015,42.9660491 38.0212987,42.8648453 L37.9683006,42.6424225 C37.9261558,42.466091 37.7705444,42.3430396 37.5897025,42.3430396 C37.5592568,42.3430396 37.528811,42.3465634 37.4989291,42.353752 L34.942053,42.963512 C34.8408491,42.9876149 34.7550091,43.0497749 34.7004606,43.1384339 C34.646053,43.226952 34.6292796,43.3316796 34.6535234,43.4328834 L34.7065215,43.6553063 C34.7485253,43.8316377 34.9041368,43.9546891 35.0849787,43.9546891 C35.1154244,43.9546891 35.1458701,43.9511653 35.175893,43.9439768 L37.7326282,43.3342168 C37.833973,43.3101139 37.919672,43.2479539 37.9742206,43.1592949" id="Fill-28" fill="#4A89DC"></path>
            <path d="M44.6305276,35.969032 C44.5775295,35.969032 44.525659,35.9797444 44.4764667,36.0010282 L42.06308,37.0422434 C41.9675143,37.0835425 41.8936552,37.1595158 41.8553162,37.2562091 C41.8168362,37.3529025 41.8183867,37.4587577 41.8596857,37.5544644 L41.9501771,37.7644834 C42.0119143,37.9074091 42.1524438,37.9998739 42.3081962,37.9998739 C42.3611943,37.9998739 42.4130648,37.9890206 42.4622571,37.9678777 L44.8757848,36.9265215 C44.9713505,36.8852225 45.0450686,36.8092491 45.0835486,36.7125558 C45.1218876,36.6158625 45.1203371,36.5100072 45.079179,36.4144415 L44.9885467,36.2044225 C44.9268095,36.0613558 44.78628,35.969032 44.6305276,35.969032" id="Fill-29" fill="#4A89DC"></path>
            <path d="M44.3198404,33.2645646 C44.2895356,33.2645646 44.258949,33.2682293 44.229067,33.275277 L41.6723318,33.885037 C41.570987,33.9092808 41.485288,33.9712998 41.4307394,34.0599589 C41.3761909,34.1486179 41.3595585,34.2532046 41.3836613,34.3544084 L41.4366594,34.5769722 C41.4788042,34.7531627 41.6344156,34.876355 41.8152575,34.876355 C41.8455623,34.876355 41.876149,34.8726903 41.9060309,34.8655017 L44.462907,34.2558827 C44.6717985,34.2059855 44.8013337,33.9954027 44.7515775,33.7863703 L44.6984385,33.5639474 C44.6564347,33.387757 44.5006823,33.2645646 44.3198404,33.2645646" id="Fill-30" fill="#4A89DC"></path>
            <path d="M45.1350244,30.6616956 L45.1068339,30.6626823 L42.4849787,30.8493032 C42.3812377,30.8566328 42.2865177,30.9039928 42.2182968,30.9826442 C42.1500758,31.0611547 42.1165291,31.1616537 42.1239996,31.2655356 L42.1402091,31.4937375 C42.1545863,31.696709 42.3251387,31.8557032 42.528251,31.8557032 L42.5564415,31.8547166 L45.1782968,31.6682366 C45.2821787,31.6607661 45.3768987,31.6134061 45.4451196,31.5347547 C45.5131996,31.4562442 45.5467463,31.3557451 45.5394168,31.2518632 L45.5232072,31.0236613 C45.5086891,30.8206899 45.3382777,30.6616956 45.1350244,30.6616956" id="Fill-31" fill="#4A89DC"></path>
            <path d="M49.3417059,39.9166571 C49.3460754,39.8127752 49.3095688,39.7132629 49.2392335,39.6365848 L49.0843269,39.4682876 C49.0107497,39.3883676 48.906163,39.3424171 48.7974888,39.3424171 C48.6995269,39.3424171 48.6059345,39.3790648 48.5337669,39.4453124 L46.5991954,41.2246952 C46.4410469,41.3701581 46.4307573,41.6171067 46.5762202,41.7752552 L46.7309859,41.9435524 C46.804563,42.0236133 46.9091497,42.0694229 47.017965,42.0694229 C47.1157859,42.0694229 47.2095192,42.0329162 47.2815459,41.9665276 L49.2161173,40.1871448 C49.2927954,40.1166686 49.3373364,40.02068 49.3417059,39.9166571" id="Fill-32" fill="#4A89DC"></path>
            <path d="M43.8261265,40.1150053 L43.9515741,40.3061368 C44.0238827,40.4163615 44.1458065,40.4821863 44.2778789,40.4821863 C44.3535703,40.4821863 44.4272884,40.4600568 44.4911398,40.4181939 L46.6888693,38.9766739 C46.7759779,38.9195882 46.8354598,38.8319158 46.8567436,38.7301482 C46.8778865,38.6282396 46.8580122,38.5242168 46.8010674,38.4371082 L46.6756198,38.2458358 C46.6033112,38.135752 46.4812465,38.0699272 46.349315,38.0699272 C46.2734827,38.0699272 46.1997646,38.0919158 46.1360541,38.1337787 L43.9381836,39.5754396 C43.7586103,39.6932758 43.7082903,39.935291 43.8261265,40.1150053" id="Fill-33" fill="#4A89DC"></path>
            <path d="M30.1914362,32.1457269 C29.3912495,33.305483 28.8115124,34.6028088 28.4799924,35.9677916 C28.6573105,35.9586297 29.0061676,35.9469307 29.1815124,35.9469307 C29.5453105,35.9469307 29.9051619,35.966664 30.2593752,36.0057078 C30.0132724,34.7123288 29.9977676,33.4082373 30.1914362,32.1457269 M28.37456,36.446184 C28.345101,36.5953116 28.318461,36.745003 28.294781,36.8955402 C28.318461,36.7465535 28.345101,36.5961573 28.37456,36.446184" id="Fill-34" fill="#E0E1E2"></path>
            <path id="Fill-35" fill="#97772D"></path>
            <path d="M29.185741,36.8669128 C28.9471086,36.8669128 28.5351048,36.8877737 28.2930895,36.9063794 C27.992861,38.828829 28.1786362,40.8490994 28.9244152,42.7814156 L28.9245562,42.7818385 C28.9358324,42.8110156 28.9472495,42.8400518 28.9586667,42.869229 L28.9595124,42.8713432 C28.9652914,42.8855794 28.9709295,42.8999566 28.9767086,42.9143337 L28.9774133,42.9160251 L28.9850248,42.9351947 L28.9864343,42.9385775 L28.9937638,42.9569013 L28.9950324,42.9600023 C29.0006705,42.9738156 29.0061676,42.987488 29.0119467,43.0013013 L29.01392,43.0062347 L29.0206857,43.022867 L29.0223771,43.0269547 L29.0308343,43.0473928 L29.0309752,43.0475337 L29.0394324,43.0681128 L29.0415467,43.0730461 L29.0480305,43.0886918 L29.0505676,43.0944709 L29.0576152,43.1113851 L29.0588838,43.1144861 L29.0676229,43.1350651 L29.0691733,43.1388709 L29.076221,43.1553623 L29.078899,43.1614232 L29.084819,43.1755185 L29.087779,43.1822842 L29.0962362,43.2020175 C29.9842362,45.2602042 31.4044724,46.9256975 33.125501,48.1065966 C33.6382857,47.6408899 34.0870781,47.1347299 34.4655352,46.6029166 L34.3224686,46.6130651 L34.2942781,46.6140518 C34.0911657,46.6140518 33.9206133,46.4551985 33.9062362,46.2520861 L33.8900267,46.0240251 C33.8825562,45.9201432 33.9161029,45.8196442 33.9843238,45.7409928 C34.0524038,45.6624823 34.1471238,45.6151223 34.2510057,45.6076518 L35.1079962,45.5467604 C35.3979352,44.9788632 35.6106324,44.3946156 35.7400267,43.8095223 L35.1757943,43.9439909 C35.1459124,43.9511794 35.1154667,43.9547032 35.085021,43.9547032 C34.904179,43.9547032 34.7485676,43.8315109 34.7064229,43.6553204 L34.6534248,43.4328975 C34.6293219,43.3316937 34.6460952,43.2269661 34.7005029,43.138448 C34.7082552,43.1257623 34.7167124,43.1136404 34.7257333,43.1020823 C33.140301,41.9372518 31.8345181,40.3487185 30.9989524,38.4118918 C30.9255162,38.2417623 30.8564495,38.0706461 30.7918933,37.899107 C30.7421371,37.9215185 30.6877295,37.9333585 30.6319124,37.9333585 C30.5230971,37.9333585 30.4185105,37.887549 30.3449333,37.807629 L30.1901676,37.6391909 C30.1196914,37.5626537 30.0833257,37.4631413 30.0876952,37.3591185 C30.0919238,37.2552366 30.1366057,37.159248 30.2131429,37.0886309 L30.3698819,36.9445775 C29.9867733,36.8932709 29.59112,36.8669128 29.185741,36.8669128 M50.9465333,40.3893128 C50.9038248,40.6586728 50.847021,40.9617204 50.7831695,41.2389737 C50.8481486,40.9583375 50.9026971,40.6747413 50.9465333,40.3893128" id="Fill-36" fill="#E0E1E2"></path>
            <path d="M45.8227874,48.2980945 L45.8219417,48.2986583 L45.8227874,48.2980945 M45.8043227,48.3099345 L45.8019265,48.311485 L45.8043227,48.3099345 M45.7655608,48.3346011 L45.7592179,48.3385478 L45.7655608,48.3346011 M45.7483646,48.3454545 L45.7401893,48.3506697 L45.7483646,48.3454545 M45.7314503,48.3561669 L45.6943798,48.379424 L45.7314503,48.3561669 M45.690856,48.3815383 L45.6774655,48.3898545 L45.690856,48.3815383 M45.6752103,48.391264 C45.196536,48.6885326 44.690235,48.9539459 44.1571531,49.1839802 C42.6778579,49.8222126 41.1380941,50.1244145 39.6232789,50.1244145 L39.6232789,50.1244145 C41.138517,50.1244145 42.677576,49.8223535 44.1571531,49.1839802 C44.690235,48.9539459 45.196536,48.6885326 45.6752103,48.391264" id="Fill-37" fill="#97772D"></path>
            <path d="M50.7556415,41.3550621 L50.7528225,41.3664792 C50.6937634,41.3695802 50.6189177,41.3707078 50.5388568,41.3707078 C50.4229939,41.3707078 50.2962777,41.3684526 50.1907044,41.367325 C49.0950815,42.637024 47.7028949,43.684864 46.059672,44.3938545 C44.5803768,45.0320869 43.0407539,45.3342888 41.5257977,45.3342888 C39.8188644,45.3342888 38.1433634,44.9506164 36.6215006,44.2316183 C36.5188872,44.6451726 36.3783577,45.0590088 36.199912,45.4690392 L36.8728187,45.4211154 L36.9010091,45.4201288 C37.1042625,45.4201288 37.2746739,45.579264 37.289192,45.7822354 L37.3054015,46.0102964 C37.312731,46.1141783 37.2791844,46.2146773 37.2109634,46.2931878 C37.1428834,46.3719802 37.0481634,46.4191992 36.9444225,46.4266697 L35.6516072,46.5185707 C35.1909749,47.260544 34.5676834,48.009424 33.9352301,48.6138278 C35.6555539,49.5947154 37.617752,50.1241326 39.6232225,50.1244145 C41.1380377,50.1244145 42.6778015,49.8222126 44.1570968,49.1839802 C44.6901787,48.9539459 45.1964796,48.6885326 45.6752949,48.391264 L45.6775501,48.3898545 L45.6907996,48.3815383 L45.6943234,48.379424 L45.7315349,48.3561669 L45.7402739,48.3506697 L45.7483082,48.3454545 L45.7593025,48.3385478 L45.7656453,48.3346011 L45.802011,48.311485 L45.8044072,48.3099345 L45.8218853,48.2986583 L45.822731,48.2980945 C48.3512758,46.6739002 50.076392,44.1557859 50.7556415,41.3550621 M33.1784568,48.142624 C33.2555577,48.1949173 33.3332225,48.246224 33.411451,48.296544 C33.3329406,48.2459421 33.2552758,48.1944945 33.1784568,48.142624" id="Fill-38" fill="#E0E1E2"></path>
            <path d="M50.946491,40.3893128 C50.7130739,40.7275985 50.4609101,41.0541851 50.1907044,41.3673813 C50.2962777,41.368509 50.4229939,41.3706232 50.5388568,41.3706232 C50.6189177,41.3706232 50.6937634,41.3696366 50.7528225,41.3665356 L50.7556415,41.3551185 C50.7650853,41.3162156 50.7741063,41.2778766 50.7831272,41.2389737 C50.8469787,40.9617204 50.9037825,40.6586728 50.946491,40.3893128" id="Fill-39" fill="#467FCA"></path>
            <path d="M29.1815124,35.9469166 C29.0061676,35.9469166 28.6573105,35.9586156 28.4799924,35.9677775 C28.4415124,36.126208 28.4062743,36.286048 28.37456,36.4461699 C28.345101,36.5961432 28.318461,36.7465394 28.294781,36.8955261 L28.2930895,36.9063794 C28.5351048,36.8877737 28.9471086,36.8669128 29.185741,36.8669128 C29.59112,36.8669128 29.9867733,36.8932709 30.3698819,36.9445775 L30.4574133,36.8640937 C30.3798895,36.578947 30.3139238,36.2925318 30.2593752,36.0058347 C29.9051619,35.9666499 29.5453105,35.9469166 29.1815124,35.9469166 M35.7911924,43.7972594 L35.7400267,43.8095223 C35.6106324,44.3946156 35.3979352,44.9788632 35.1079962,45.5467604 L36.1999543,45.4689547 C36.378259,45.0589242 36.5189295,44.645229 36.6214019,44.2316747 C36.3390743,44.0981928 36.0622438,43.9534347 35.7911924,43.7972594 M35.6515086,46.518627 L34.4655352,46.6029166 C34.0870781,47.1347299 33.6382857,47.6408899 33.125501,48.1065966 C33.1434019,48.1188594 33.1605981,48.1305585 33.178499,48.1426804 C33.2551771,48.1945509 33.3329829,48.2458575 33.4114933,48.2964594 C33.5831733,48.4068251 33.7582362,48.5129623 33.9351314,48.6137432 C34.5677257,48.0094804 35.1910171,47.2604594 35.6515086,46.518627" id="Fill-40" fill="#467FCA"></path>
            <path d="M30.4573429,36.8640937 L30.3698114,36.9445775 L30.2132133,37.0886309 C30.1365352,37.159248 30.0919943,37.2552366 30.0876248,37.3592594 C30.0832552,37.4631413 30.119621,37.5626537 30.1902381,37.6391909 L30.3450038,37.807629 C30.418581,37.887549 30.5231676,37.9333585 30.6319829,37.9333585 C30.687659,37.9333585 30.7420667,37.9215185 30.7918229,37.899107 C30.6629924,37.5563109 30.55164,37.2111185 30.4573429,36.8640937" id="Fill-41" fill="#467FCA"></path>
            <path d="M36.9010655,45.420171 L36.872875,45.4211577 L36.1999684,45.4689406 L35.1080103,45.5467463 L34.2508789,45.6076377 C34.1471379,45.6151082 34.0524179,45.6624682 33.9843379,45.7409787 C33.916117,45.8196301 33.8825703,45.9201291 33.8900408,46.024011 L33.9062503,46.252072 C33.9206274,46.4551844 34.0911798,46.6140377 34.2942922,46.6140377 L34.3224827,46.613051 L34.4655493,46.6029025 L35.6515227,46.518613 L36.9443379,46.426712 C37.0482198,46.4192415 37.1429398,46.3718815 37.2110198,46.2932301 C37.2792408,46.2145787 37.3127874,46.1142206 37.3054579,46.0103387 L37.2891074,45.7821368 C37.2747303,45.5791653 37.1043189,45.420171 36.9010655,45.420171" id="Fill-42" fill="#467FCA"></path>
            <path d="M34.7258038,43.1020259 C34.7167829,43.113584 34.7083257,43.1257059 34.7005733,43.1383916 C34.6460248,43.2270507 34.6293924,43.3316373 34.6534952,43.4328411 L34.7064933,43.655264 C34.7484971,43.8315954 34.9042495,43.9546469 35.0850914,43.9546469 C35.1153962,43.9546469 35.1459829,43.951123 35.1758648,43.9440754 L35.7399562,43.8094659 L35.7912629,43.797203 C35.4245048,43.5859154 35.0683181,43.3537669 34.7258038,43.1020259" id="Fill-43" fill="#467FCA"></path>
        </g>
    </g>
</svg>