<?xml version="1.0" encoding="UTF-8" standalone="no"?>
<svg width="74px" height="74px" viewBox="0 0 74 74" version="1.1" xmlns="http://www.w3.org/2000/svg" xmlns:xlink="http://www.w3.org/1999/xlink">
    <!-- Generator: Sketch 3.8.3 (29802) - http://www.bohemiancoding.com/sketch -->
    <title>basketball</title>
    <desc>Created with Sketch.</desc>
    <defs></defs>
    <g id="Page-1" stroke="none" stroke-width="1" fill="none" fill-rule="evenodd">
        <g id="basketball">
            <rect id="Rectangle-48" fill="#5D60A5" x="0" y="0" width="74" height="74"></rect>
            <path d="M51.0565608,24.8465642 C51.0565608,32.8106556 44.6003779,39.2668385 36.6362865,39.2668385 C28.672336,39.2668385 22.2161531,32.8106556 22.2161531,24.8465642 C22.2161531,16.8826137 28.672336,10.4264309 36.6362865,10.4264309 C44.6003779,10.4264309 51.0565608,16.8826137 51.0565608,24.8465642" id="Fill-4" fill="#EB8642"></path>
            <path d="M22.2160827,24.8465642 C22.2160827,32.8106556 28.6722655,39.2668385 36.636357,39.2668385 L36.636357,10.4264309 C28.6722655,10.4264309 22.2160827,16.8826137 22.2160827,24.8465642" id="Fill-6" fill="#E27D39"></path>
            <path id="Fill-8" fill="#565A9B"></path>
            <path d="M48.631165,32.8523352 C46.3408297,34.3839238 43.5876069,35.2777029 40.6253516,35.2777029 C39.2414811,35.2777029 37.9031383,35.0827657 36.6362583,34.7188267 L36.6362583,39.2667962 L36.6628983,39.2667962 L36.6717783,39.2667962 L36.6898202,39.2666552 L36.6998278,39.2666552 L36.7177288,39.2665143 L36.7267497,39.2665143 L36.7516983,39.2663733 L36.7581821,39.2662324 L36.7796069,39.2660914 L36.7891916,39.2659505 L36.8065288,39.2658095 L36.8163954,39.2656686 L36.835283,39.2653867 L36.8433173,39.2653867 L36.8698164,39.2649638 L36.8734811,39.2648229 L36.8967383,39.264541 L36.9044907,39.2644 L36.924224,39.2639771 L36.9325402,39.2638362 L36.9532602,39.2634133 L36.9593211,39.2632724 L36.986243,39.2627086 L36.9903307,39.2625676 L37.0137288,39.2620038 L37.0204945,39.2617219 L37.0406507,39.261299 L37.048685,39.2610171 L37.0701097,39.2604533 L37.0757478,39.2601714 L37.1028107,39.2594667 L37.1067573,39.2593257 L37.1295916,39.25848 L37.1370621,39.2581981 L37.1573592,39.2574933 L37.1645478,39.2573524 L37.1896373,39.2563657 L37.1909059,39.2563657 L37.2189554,39.2552381 L37.2224792,39.2550971 L37.2461592,39.2541105 L37.2523611,39.2538286 L37.2743497,39.2529829 L37.2797059,39.252701 C37.2984526,39.2518552 37.3167764,39.2510095 37.335523,39.2501638 L37.3360869,39.2501638 L37.3632907,39.2487543 L37.3663916,39.2486133 L37.3923269,39.2473448 L37.3943002,39.2472038 C37.4226316,39.2457943 37.451245,39.2442438 37.4794354,39.2425524 L37.4812678,39.2424114 L37.5084716,39.240861 L37.5095992,39.240861 C42.148765,38.9637486 46.1962126,36.4931352 48.631165,32.8523352" id="Fill-10" fill="#D57D43"></path>
            <path d="M28.6306423,12.8518126 C24.7631909,15.4381478 22.2161813,19.8447421 22.2161813,24.8465783 C22.2161813,32.8106697 28.6723642,39.2668526 36.6363147,39.2668526 L36.6363147,34.718883 C30.6125737,32.9884107 26.2052747,27.437565 26.2052747,20.857485 C26.2052747,17.8952297 27.0989128,15.1421478 28.6306423,12.8518126" id="Fill-12" fill="#CE753A"></path>
            <path d="M48.537333,32.9905109 C45.8923615,32.282648 43.7256415,30.6099661 42.575893,28.4443737 C45.5922739,27.9005794 48.359733,26.9416804 50.665432,25.616728 C50.7941215,25.542728 50.9204149,25.4677413 51.0452987,25.3920499 C51.0519234,25.2109261 51.0565749,25.0293794 51.0565749,24.8465642 C51.0565749,24.5580347 51.047131,24.2717604 51.0303577,23.9874594 C50.7249139,24.1908537 50.405093,24.3890328 50.070472,24.5814328 C47.8108644,25.8798861 45.0756834,26.809608 42.0867882,27.318869 C41.8234891,26.5508194 41.6801406,25.7378061 41.6801406,24.8958975 C41.6801406,21.0704499 44.6008149,17.8313642 48.5956872,16.786907 C48.3569139,16.4333985 48.102213,16.091448 47.8338396,15.7611966 C43.5631234,17.0662747 40.486133,20.6678899 40.486133,24.8958975 C40.486133,25.797429 40.6263806,26.670488 40.8879882,27.4990061 C39.6994777,27.6536309 38.4769977,27.7429947 37.2333749,27.7648423 L37.2333749,10.4396804 C37.0351958,10.4315051 36.836453,10.4264309 36.6363006,10.4264309 C36.4361482,10.4264309 36.2374053,10.4315051 36.0392263,10.4396804 L36.0392263,27.7648423 C34.6619806,27.7407394 33.3102472,27.6337566 32.0023501,27.4471356 C32.2535272,26.6339813 32.3884187,25.7786823 32.3884187,24.8958975 C32.3884187,20.7730404 29.4622472,17.245989 25.3568682,15.8629642 C25.0951196,16.1911013 24.8476072,16.5309375 24.6147539,16.8814861 C28.4361139,18.0157299 31.194411,21.1785604 31.194411,24.8958975 C31.194411,25.7135623 31.058392,26.5036004 30.8094701,27.2520575 C27.9674472,26.7303928 25.3665939,25.8251966 23.2022701,24.5814328 C22.8676491,24.3890328 22.5478282,24.1908537 22.2423844,23.9874594 C22.225611,24.2717604 22.2161672,24.5580347 22.2161672,24.8465642 C22.2161672,25.0293794 22.2206777,25.2109261 22.2274434,25.3920499 C22.3523272,25.4677413 22.4786206,25.542728 22.6073101,25.616728 C24.8201215,26.8884004 27.4581863,27.8230556 30.3334739,28.3769985 C29.240952,30.483109 27.1903768,32.1322518 24.6701482,32.8957909 C24.9049749,33.2442251 25.1551653,33.5812423 25.4187463,33.9069832 C28.1936758,32.954709 30.4228377,31.0212651 31.561451,28.5875813 C33.0103006,28.807467 34.5101749,28.9331966 36.0392263,28.9591318 L36.0392263,39.253589 C36.2374053,39.2616232 36.4361482,39.2668385 36.6363006,39.2668385 C36.836453,39.2668385 37.0351958,39.2616232 37.2333749,39.253589 L37.2333749,28.9591318 C38.6316225,28.9354518 40.0054853,28.828328 41.3381901,28.6421299 C42.5278282,31.1413566 44.8700339,33.1067966 47.7702701,34.0110061 C48.0406168,33.682869 48.2963044,33.3420461 48.537333,32.9905109" id="Fill-14" fill="#1C2A47"></path>
            <path d="M35.0207467,64.327453 L33.2322019,61.6173615 L34.7047314,58.937152 L36.2561943,61.6626072 L35.0207467,64.327453 Z M32.6610629,60.7863063 L30.8554629,58.0385806 L32.1568762,55.3451215 L34.1382438,58.0949615 L32.6610629,60.7863063 Z M31.5795352,63.7212168 L30.8033105,61.5440663 L30.8033105,59.5845463 L32.1863352,61.6882606 L31.5795352,63.7212168 Z M27.7904533,54.346051 L27.7904533,46.2752587 L31.5737562,54.4696663 L30.2297752,57.2519253 L27.7904533,54.346051 Z M32.9928648,45.4877577 L31.8512914,52.9057996 L28.4258667,45.4877577 L32.9928648,45.4877577 Z M36.3320267,54.426112 L34.6293219,57.2568587 L32.5591543,54.384672 L33.8123619,46.2408663 L36.3320267,54.426112 Z M26.8628457,52.869293 L22.3181181,45.4877577 L26.8628457,45.4877577 L26.8628457,52.869293 Z M35.1941181,58.0571863 L36.8280381,55.3425844 L36.8280381,52.9179215 L34.5405219,45.4877577 L36.8280381,45.4877577 L36.8280381,44.6808053 L21.5438667,44.6808053 C21.3809257,44.6808053 21.2295429,44.7553691 21.14624,44.8768701 C21.0625143,44.9987939 21.0582857,45.1497539 21.134541,45.2750606 L26.9025943,54.6430377 L29.9037524,61.7932701 C29.9150286,61.8206149 29.9308152,61.8458453 29.9477295,61.8691025 L31.1765524,65.3127101 C31.2378667,65.4828396 31.41744,65.597293 31.6198476,65.597293 L31.6309829,65.597293 C31.837901,65.5926415 32.0170514,65.4695901 32.0689219,65.2949501 L32.8536038,62.6628053 L34.6549752,65.3944625 C34.7379962,65.5204739 34.8909295,65.597293 35.0572533,65.597293 L35.0750133,65.597293 C35.2468343,65.591091 35.4006133,65.5035596 35.4748952,65.3683863 L36.8280381,62.4923939 L36.8280381,60.781373 L35.1941181,58.0571863 Z" id="Fill-16" fill="#F0F8FC"></path>
            <path d="M46.793597,52.8693493 L46.793597,45.4876731 L51.3379017,45.4876731 L46.793597,52.8693493 Z M45.8658484,54.3461074 L43.4266674,57.2518408 L42.0826865,54.4697227 L45.8658484,46.275315 L45.8658484,54.3461074 Z M42.853555,61.5439817 L42.0764846,63.7211322 L41.4701074,61.688317 L42.853555,59.5846027 L42.853555,61.5439817 Z M39.517776,58.0950179 L41.4987208,55.345037 L42.8008389,58.038496 L40.9952389,60.7863627 L39.517776,58.0950179 Z M38.635696,64.3275093 L37.4006712,61.6626636 L38.9521341,58.9372084 L40.423395,61.6174179 L38.635696,64.3275093 Z M37.3239931,54.4261684 L39.8436579,46.2407817 L41.0968655,54.3847284 L39.0271208,57.256915 L37.3239931,54.4261684 Z M45.2301531,45.4876731 L41.8051512,52.905856 L40.6635779,45.4876731 L45.2301531,45.4876731 Z M52.5097798,44.8769265 C52.4260541,44.7554255 52.275517,44.6807208 52.1121531,44.6807208 L36.8279817,44.6807208 L36.8279817,45.4876731 L39.1154979,45.4876731 L36.8279817,52.917837 L36.8279817,55.3426408 L38.4623246,58.0572427 L36.8279817,60.7814293 L36.8279817,62.4924503 L38.1807017,65.3683017 C38.2554065,65.503475 38.4100312,65.5910065 38.5812884,65.5972084 L38.5987665,65.5972084 C38.7646674,65.5972084 38.9184465,65.5205303 39.0018903,65.3945189 L40.8028389,62.6628617 L41.5875208,65.2948655 C41.6392503,65.4695055 41.8181189,65.5926979 42.025037,65.5972084 L42.036595,65.5972084 C42.2390027,65.5972084 42.4189989,65.482755 42.4786217,65.3127665 L43.7082903,61.8691589 C43.7252046,61.8459017 43.7409912,61.8205303 43.7529722,61.7931855 L46.7538484,54.6430941 L52.521056,45.274976 C52.598157,45.1498103 52.5939284,44.9988503 52.5097798,44.8769265 L52.5097798,44.8769265 Z" id="Fill-18" fill="#FFFFFF"></path>
            <path d="M52.1779638,45.8234358 L21.8651676,45.8234358 C20.8014,45.8234358 19.9391943,44.9612301 19.9391943,43.8974625 L19.9391943,43.6895577 C19.9391943,42.6257901 20.8014,41.7635844 21.8651676,41.7635844 L52.1779638,41.7635844 C53.2415905,41.7635844 54.1039371,42.6257901 54.1039371,43.6895577 L54.1039371,43.8974625 C54.1039371,44.9612301 53.2415905,45.8234358 52.1779638,45.8234358" id="Fill-20" fill="#4E96E5"></path>
            <path d="M36.6363147,41.733336 L21.8787413,41.733336 C20.7576061,41.733336 19.8487451,42.642197 19.8487451,43.7633322 L19.8487451,43.7633322 C19.8487451,44.8843265 20.7576061,45.7931874 21.8787413,45.7931874 L36.6363147,45.7931874 L36.6363147,41.733336 Z" id="Fill-22" fill="#4E96E5"></path>
        </g>
    </g>
</svg>