<?xml version="1.0" encoding="UTF-8" standalone="no"?>
<svg width="74px" height="74px" viewBox="0 0 74 74" version="1.1" xmlns="http://www.w3.org/2000/svg" xmlns:xlink="http://www.w3.org/1999/xlink">
    <!-- Generator: Sketch 3.8.3 (29802) - http://www.bohemiancoding.com/sketch -->
    <title>chemistry</title>
    <desc>Created with Sketch.</desc>
    <defs></defs>
    <g id="Page-1" stroke="none" stroke-width="1" fill="none" fill-rule="evenodd">
        <g id="chemistry">
            <rect id="Rectangle-36" fill="#A6C744" x="0" y="-2.27373675e-13" width="74" height="74"></rect>
            <path d="M21.117824,58.9770838 C19.276704,58.9770838 17.627843,58.0250914 16.707283,56.4306381 C15.7886964,54.8397086 15.7865821,52.940939 16.7009402,51.3486 L32.0035764,27.4447676 C32.0615078,27.3539943 32.0925173,27.2485619 32.0925173,27.1408743 L32.0925173,12.3811867 C32.0925173,11.9464895 32.4460259,11.59284 32.880723,11.59284 L41.1281288,11.59284 C41.3201059,11.59284 41.574243,11.6183524 41.6953211,11.7395714 C41.8772907,11.9216819 41.8765859,12.4251638 41.876163,12.8693048 L41.876163,27.1408743 C41.876163,27.2485619 41.9070316,27.3539943 41.965104,27.4447676 L57.2675992,51.3486 C58.1819573,52.940939 58.179843,54.8397086 57.2612564,56.4306381 C56.3406964,58.0250914 54.6919764,58.9770838 52.8507154,58.9770838 L21.117824,58.9770838" id="Fill-4" fill="#FFFFFF"></path>
            <path d="M41.128171,11.0291432 L32.8807653,11.0291432 C32.1339996,11.0291432 31.5287501,11.6343928 31.5287501,12.3811585 L31.5287501,27.1408461 L16.2189253,51.0558137 C14.0416339,54.8269947 16.7632834,59.5408651 21.1178663,59.5408651 L52.8507577,59.5408651 C57.2053406,59.5408651 59.9269901,54.8269947 57.7496987,51.0558137 L42.4398739,27.1408461 L42.4398739,12.9483509 C42.4398739,12.0032651 42.4794815,11.0291432 41.128171,11.0291432 M41.128171,12.1567623 C41.1949825,12.1567623 41.2448796,12.160709 41.2805406,12.1653604 C41.3129596,12.3347851 41.3125368,12.6605261 41.3123958,12.8687128 L41.3122549,12.9483509 L41.3122549,27.1408461 C41.3122549,27.3563623 41.374133,27.567368 41.4902777,27.7487737 L56.7851615,51.6407661 C57.591691,53.0543775 57.5876034,54.7377718 56.7730396,56.1487051 C55.9543882,57.5666861 54.4882015,58.4132461 52.8507577,58.4132461 L21.1178663,58.4132461 C19.4804225,58.4132461 18.0142358,57.5666861 17.1955844,56.1487051 C16.3810206,54.7377718 16.376933,53.0543775 17.1834625,51.6407661 L32.4784872,27.7487737 C32.594491,27.567368 32.6562282,27.3563623 32.6562282,27.1408461 L32.6562282,12.3811585 C32.6562282,12.2574023 32.7570091,12.1567623 32.8807653,12.1567623 L41.128171,12.1567623" id="Fill-6" fill="#DEE8F1"></path>
            <path d="M37.4292423,11.0291432 L32.880709,11.0291432 C32.1339432,11.0291432 31.5286937,11.6343928 31.5286937,12.3811585 L31.5286937,27.1408461 L16.2190099,51.0558137 C14.0417185,54.8269947 16.763227,59.5408651 21.1178099,59.5408651 L37.4292423,59.5408651 L37.4292423,11.0291432" id="Fill-8" fill="#E3ECF2"></path>
            <path d="M45.2877181,39.6931771 L28.6492762,39.6931771 L20.5872229,52.1901562 C19.7681486,53.608701 20.7920267,55.381741 22.4298933,55.381741 L51.507101,55.381741 C53.1451086,55.381741 54.1687048,53.608701 53.3497714,52.1901562 L45.2877181,39.6931771" id="Fill-10" fill="#4A89DC"></path>
            <path d="M24.9587623,37.3790069 L16.2032232,51.0557573 C14.0259318,54.8269383 16.7474404,59.5408088 21.1020232,59.5408088 L21.1178099,59.5408088 C17.8178328,59.5408088 15.4557528,56.8338183 15.4526518,53.8812888 C15.4516651,52.9377535 15.691707,51.9691288 16.2190099,51.0557573 L24.965528,37.3929611 L24.9587623,37.3790069" id="Fill-12" fill="#91AF44"></path>
            <path d="M57.1802229,55.2249737 C56.1109581,55.3281509 55.039861,55.3795985 53.9720057,55.3795985 C53.3184095,55.3795985 52.6667867,55.360429 52.0160095,55.3220899 C51.854619,55.3609928 51.6844895,55.3817128 51.5070305,55.3817128 L37.4292705,55.3817128 L37.4292705,58.4131756 L52.8507295,58.4131756 C54.4881733,58.4131756 55.95436,57.5666156 56.7730114,56.1486347 C56.9448324,55.8512251 57.0805695,55.5416937 57.1802229,55.2249737" id="Fill-14" fill="#DDDFE4"></path>
            <path d="M58.3652377,55.0892084 C57.970712,55.1415017 57.5753406,55.1868884 57.180251,55.2249455 C57.0804568,55.5416655 56.9448606,55.851197 56.7730396,56.1487474 C55.9543882,57.5665874 54.4882015,58.4132884 52.8507577,58.4132884 L37.4292987,58.4132884 L37.4292987,59.5407665 L52.834971,59.5407665 C55.6769939,59.5407665 57.8224301,57.532477 58.3652377,55.0892084" id="Fill-16" fill="#C0CCD8"></path>
            <path d="M24.965528,37.3929752 L16.2190099,51.0557714 C15.691707,51.9691429 15.4516651,52.9377676 15.4526518,53.8813029 C15.4557528,56.8336914 17.8178328,59.5408229 21.1178099,59.5408229 L37.4292423,59.5408229 L37.4292423,58.4132038 L37.4292423,55.381741 L22.4299356,55.381741 C20.791928,55.381741 19.7681909,53.608701 20.5871242,52.1901562 L27.4183813,41.6012495 C26.481189,40.244019 25.6646518,38.8370324 24.965528,37.3929752" id="Fill-18" fill="#C5CFD9"></path>
            <path d="M27.4183672,41.6012495 L20.5871101,52.1901562 C19.7681768,53.608701 20.7920549,55.381741 22.4299215,55.381741 L37.4292282,55.381741 L51.5071291,55.381741 C51.6844472,55.381741 51.8545768,55.361021 52.0159672,55.3221181 C42.6715291,54.771981 33.7234491,50.2836343 27.8746301,42.244979 C27.7195825,42.0317181 27.5673539,41.8170476 27.4183672,41.6012495" id="Fill-20" fill="#437BC6"></path>
            <path d="M40.7641897,39.8257006 C40.7641897,42.8157234 38.3403726,45.2395406 35.3503497,45.2395406 C32.3603269,45.2395406 29.9365097,42.8157234 29.9365097,39.8257006 C29.9365097,36.8356777 32.3603269,34.4118606 35.3503497,34.4118606 C38.3403726,34.4118606 40.7641897,36.8356777 40.7641897,39.8257006" id="Fill-22" fill="#4A89DC"></path>
            <path d="M47.2595573,48.3477238 C47.2595573,50.1879981 45.7677173,51.679979 43.9273021,51.679979 C42.0870278,51.679979 40.5951878,50.1879981 40.5951878,48.3477238 C40.5951878,46.5074495 42.0870278,45.0154686 43.9273021,45.0154686 C45.7677173,45.0154686 47.2595573,46.5074495 47.2595573,48.3477238" id="Fill-24" fill="#2F75C0"></path>
            <path d="M42.9113878,33.9179211 C42.9113878,36.0058488 41.2188316,37.698405 39.130904,37.698405 C37.0429764,37.698405 35.3502792,36.0058488 35.3502792,33.9179211 C35.3502792,31.8299935 37.0429764,30.1374373 39.130904,30.1374373 C41.2188316,30.1374373 42.9113878,31.8299935 42.9113878,33.9179211" id="Fill-26" fill="#4A89DC"></path>
            <path d="M35.3503215,34.4118465 C35.5931825,36.2653703 37.175091,37.6974465 39.0948625,37.6974465 C39.4855825,37.6974465 39.8624891,37.6381055 40.2171253,37.5280217 C39.3577387,35.6969093 37.503651,34.4259417 35.3503215,34.4118465" id="Fill-28" fill="#2F75C0"></path>
            <path d="M40.7641897,39.8257006 C40.7641897,42.8157234 38.3403726,45.2395406 35.3503497,45.2395406 C32.3603269,45.2395406 29.9365097,42.8157234 29.9365097,39.8257006" id="Fill-30" fill="#2F75C0"></path>
            <path d="M37.8658423,23.9904617 C37.8658423,25.1755893 36.9051109,26.1363208 35.7199832,26.1363208 C34.5347147,26.1363208 33.5739832,25.1755893 33.5739832,23.9904617 C33.5739832,22.8053341 34.5347147,21.8446027 35.7199832,21.8446027 C36.9051109,21.8446027 37.8658423,22.8053341 37.8658423,23.9904617" id="Fill-32" fill="#4A89DC"></path>
            <path d="M42.5878034,14.9310575 L31.2143558,14.9310575 C30.1476282,14.9310575 29.2828853,14.0663147 29.2828853,12.999587 L29.2828853,12.9605432 C29.2828853,11.8938156 30.1476282,11.0290728 31.2143558,11.0290728 L42.5878034,11.0290728 C43.654531,11.0290728 44.5192739,11.8938156 44.5192739,12.9605432 L44.5192739,12.999587 C44.5192739,14.0663147 43.654531,14.9310575 42.5878034,14.9310575" id="Fill-34" fill="#FFFFFF"></path>
            <path d="M42.5878034,14.9310575 L42.5878034,14.367248 L31.2143558,14.367248 C30.834912,14.3669661 30.4964853,14.2150194 30.2472815,13.9666613 C29.9989234,13.7173166 29.8469768,13.3790309 29.8466949,12.999587 L29.8466949,12.9605432 C29.8469768,12.5810994 29.9989234,12.2428137 30.2472815,11.993469 C30.4964853,11.7451109 30.834912,11.5931642 31.2143558,11.5928823 L42.5878034,11.5928823 C42.9672472,11.5931642 43.305533,11.7451109 43.5548777,11.993469 C43.8032358,12.2428137 43.9551825,12.5810994 43.9554644,12.9605432 L43.9554644,12.999587 C43.9551825,13.3790309 43.8032358,13.7173166 43.5548777,13.9666613 C43.305533,14.2150194 42.9672472,14.3669661 42.5878034,14.367248 L42.5878034,14.9310575 L42.5878034,15.494867 C43.2750872,15.495149 43.9024663,15.2146537 44.3522453,14.764029 C44.8028701,14.3142499 45.0833653,13.6868709 45.0830834,12.999587 L45.0830834,12.9605432 C45.0833653,12.2732594 44.8028701,11.6458804 44.3522453,11.1961013 C43.9024663,10.7454766 43.2750872,10.4649813 42.5878034,10.4652632 L31.2143558,10.4652632 C30.527072,10.4649813 29.899693,10.7454766 29.4499139,11.1961013 C28.9992891,11.6458804 28.7187939,12.2732594 28.7190758,12.9605432 L28.7190758,12.999587 C28.7187939,13.6868709 28.9992891,14.3142499 29.4499139,14.764029 C29.899693,15.2146537 30.527072,15.495149 31.2143558,15.494867 L42.5878034,15.494867 L42.5878034,14.9310575 Z" id="Fill-36" fill="#DEE8F1"></path>
        </g>
    </g>
</svg>