<?xml version="1.0" encoding="UTF-8" standalone="no"?>
<svg width="74px" height="74px" viewBox="0 0 74 74" version="1.1" xmlns="http://www.w3.org/2000/svg" xmlns:xlink="http://www.w3.org/1999/xlink">
    <!-- Generator: Sketch 3.8.3 (29802) - http://www.bohemiancoding.com/sketch -->
    <title>chorus</title>
    <desc>Created with Sketch.</desc>
    <defs></defs>
    <g id="Page-1" stroke="none" stroke-width="1" fill="none" fill-rule="evenodd">
        <g id="chorus" transform="translate(0.000000, -1.000000)">
            <rect id="Rectangle-48" fill="#5D60A5" x="0" y="0.973684211" width="74" height="74"></rect>
            <path d="M24.3268487,56.9096106 L17.4839073,56.9096106 C17.0025957,56.9096106 16.7312661,56.4265149 16.7312661,55.9452033 L16.7312661,21.4311693 C16.7312661,20.7406992 17.1723654,20.2657008 17.8628355,20.2657008 L25.2403388,20.2657008 L25.2403388,55.9452033 C25.2403388,56.4265149 24.8081602,56.9096106 24.3268487,56.9096106" id="Fill-4" fill="#4E96E5"></path>
            <path d="M34.2994818,56.8167107 L27.4565405,56.8167107 C26.9752289,56.8167107 26.585184,56.4265286 26.585184,55.945217 L26.585184,20.1808983 L35.1709756,20.1808983 L35.1709756,55.945217 C35.1709756,56.4265286 34.7807934,56.8167107 34.2994818,56.8167107" id="Fill-6" fill="#4E96E5"></path>
            <path d="M44.2992617,56.8167107 L37.4563204,56.8167107 C36.9750088,56.8167107 36.5849639,56.4265286 36.5849639,55.945217 L36.5849639,20.1808983 L45.1707554,20.1808983 L45.1707554,55.945217 C45.1707554,56.4265286 44.7805733,56.8167107 44.2992617,56.8167107" id="Fill-8" fill="#4E96E5"></path>
            <path d="M54.3262294,56.9096106 L47.4832881,56.9096106 C47.0019765,56.9096106 46.6502224,56.4265149 46.6502224,55.9452033 L46.6502224,20.2657008 L53.9473012,20.2657008 C54.6379085,20.2657008 55.2965382,20.7406992 55.2965382,21.4311693 L55.2965382,55.9452033 C55.2965382,56.4265149 54.807541,56.9096106 54.3262294,56.9096106" id="Fill-10" fill="#4E96E5"></path>
            <path d="M24.3268487,54.1647622 L17.4839073,54.1647622 C17.0025957,54.1647622 16.7312661,53.6816664 16.7312661,53.2003549 L16.7312661,18.6863209 C16.7312661,17.9958508 17.1723654,17.5208524 17.8628355,17.5208524 L25.2403388,17.5208524 L25.2403388,53.2003549 C25.2403388,53.6816664 24.8081602,54.1647622 24.3268487,54.1647622" id="Fill-12" fill="#F0F8FC"></path>
            <path d="M34.2994818,54.0718486 L27.4565405,54.0718486 C26.9752289,54.0718486 26.585184,53.6816664 26.585184,53.2003549 L26.585184,17.4360362 L35.1709756,17.4360362 L35.1709756,53.2003549 C35.1709756,53.6816664 34.7807934,54.0718486 34.2994818,54.0718486" id="Fill-14" fill="#F0F8FC"></path>
            <path d="M44.2992617,54.0718486 L37.4563204,54.0718486 C36.9750088,54.0718486 36.5849639,53.6816664 36.5849639,53.2003549 L36.5849639,17.4360362 L45.1707554,17.4360362 L45.1707554,53.2003549 C45.1707554,53.6816664 44.7805733,54.0718486 44.2992617,54.0718486" id="Fill-16" fill="#F0F8FC"></path>
            <path d="M54.3262294,54.1647622 L47.4832881,54.1647622 C47.0019765,54.1647622 46.6502224,53.6816664 46.6502224,53.2003549 L46.6502224,17.5208524 L53.9473012,17.5208524 C54.6379085,17.5208524 55.2965382,17.9958508 55.2965382,18.6863209 L55.2965382,53.2003549 C55.2965382,53.6816664 54.807541,54.1647622 54.3262294,54.1647622" id="Fill-18" fill="#F0F8FC"></path>
            <path d="M16.7104875,18.5330066 C16.704586,18.5861197 16.7004687,18.6397817 16.7004687,18.6944045 L16.7004687,53.2084385 C16.7004687,53.6896128 17.013383,54.0592085 17.4945574,54.0592085 L24.3374987,54.0592085 C24.8188103,54.0592085 25.2095414,53.6896128 25.2095414,53.2084385 L25.2095414,27.0320605 C22.3765692,24.1990883 19.5434597,21.3659788 16.7104875,18.5330066" id="Fill-20" fill="#DEEBF7"></path>
            <path d="M26.5908521,28.4133712 L26.5908521,53.2083973 C26.5908521,53.6897089 26.9810343,54.079891 27.4623459,54.079891 L34.30515,54.079891 C34.7864616,54.079891 35.1766437,53.6897089 35.1766437,53.2083973 L35.1766437,36.9991628 L26.5908521,28.4133712 Z" id="Fill-22" fill="#DEEBF7"></path>
            <path d="M36.590632,38.4131511 L36.590632,53.2083699 C36.590632,53.6896814 36.9808142,54.0798636 37.4621257,54.0798636 L44.3049298,54.0798636 C44.7862414,54.0798636 45.1764236,53.6896814 45.1764236,53.2083699 L45.1764236,46.175484 C42.3144931,43.3135535 39.4525625,41.2750816 36.590632,38.4131511" id="Fill-24" fill="#DEEBF7"></path>
            <path d="M46.6194937,47.6185679 L46.6194937,53.2083424 C46.6194937,53.689654 47.0126952,54.0592497 47.4940068,54.0592497 L53.8836341,54.0592497 L46.6194937,47.6185679 Z" id="Fill-26" fill="#DEEBF7"></path>
            <path d="M23.1771769,18.8510949 L23.1771769,38.0590913 C23.1771769,38.5180323 23.5492429,38.8902356 24.0083211,38.8902356 L25.171182,38.8902356 L25.171182,21.0829424 L26.5850605,21.0829424 L26.5850605,38.8902356 L27.7479213,38.8902356 C28.2069995,38.8902356 28.5790656,38.5180323 28.5790656,38.0590913 L28.5790656,18.8510949 L23.1771769,18.8510949 Z" id="Fill-28" fill="#D4E4F3"></path>
            <path d="M33.1769567,18.8510949 L33.1769567,38.0590913 C33.1769567,38.5180323 33.5490228,38.8902356 34.008101,38.8902356 L35.1709618,38.8902356 L35.1709618,21.0829424 L36.5849776,21.0829424 L36.5849776,38.8902356 L37.7478384,38.8902356 C38.2067794,38.8902356 38.5788455,38.5180323 38.5788455,38.0590913 L38.5788455,18.8510949 L33.1769567,18.8510949 Z" id="Fill-30" fill="#D4E4F3"></path>
            <path d="M43.1759406,18.8510949 L43.1759406,38.0590913 C43.1759406,38.5180323 43.5480067,38.8902356 44.0070849,38.8902356 L45.1699457,38.8902356 L45.1699457,21.0829424 L46.5838242,21.0829424 L46.5838242,38.8902356 L47.7468223,38.8902356 C48.2057632,38.8902356 48.5778293,38.5180323 48.5778293,38.0590913 L48.5778293,18.8510949 L43.1759406,18.8510949 Z" id="Fill-32" fill="#D4E4F3"></path>
            <path d="M27.6402129,37.4751082 L24.1160844,37.4751082 C23.5975799,37.4751082 23.1772043,37.0547326 23.1772043,36.5362281 L23.1772043,17.4359675 L28.579093,17.4359675 L28.579093,36.5362281 C28.579093,37.0547326 28.1587174,37.4751082 27.6402129,37.4751082" id="Fill-34" fill="#1A2335"></path>
            <path d="M37.6230021,37.4751082 L34.2528604,37.4751082 C33.6918105,37.4751082 33.2369869,37.0202845 33.2369869,36.4592347 L33.2369869,17.4359675 L38.6388756,17.4359675 L38.6388756,36.4592347 C38.6388756,37.0202845 38.1840519,37.4751082 37.6230021,37.4751082" id="Fill-36" fill="#1A2335"></path>
            <path d="M47.524859,37.4751082 L44.1619911,37.4751082 C43.5988827,37.4751082 43.1424121,37.0186376 43.1424121,36.4556664 L43.1424121,17.4359675 L48.5443008,17.4359675 L48.5443008,36.4556664 C48.5443008,37.0186376 48.0879675,37.4751082 47.524859,37.4751082" id="Fill-38" fill="#1A2335"></path>
        </g>
    </g>
</svg>