<?xml version="1.0" encoding="UTF-8" standalone="no"?>
<svg width="74px" height="74px" viewBox="0 0 74 74" version="1.1" xmlns="http://www.w3.org/2000/svg" xmlns:xlink="http://www.w3.org/1999/xlink">
    <!-- Generator: Sketch 3.8.3 (29802) - http://www.bohemiancoding.com/sketch -->
    <title>dinosaur</title>
    <desc>Created with Sketch.</desc>
    <defs></defs>
    <g id="Page-1" stroke="none" stroke-width="1" fill="none" fill-rule="evenodd">
        <g id="dinosaur">
            <rect id="Rectangle-48" fill="#284579" x="0" y="0" width="74" height="74"></rect>
            <path d="M33.1749752,28.4045265 L31.5383771,22.2777493 C31.4126476,21.8068274 31.550499,21.2909417 31.8797638,20.999875 L36.1642933,17.2133303 C36.4935581,16.9222636 36.9395314,16.9222636 37.2687962,17.2133303 L41.5533257,20.999875 C41.8827314,21.2909417 42.0204419,21.8068274 41.8947124,22.2777493 L40.2581143,28.4045265 C40.1323848,28.8754484 39.7715467,29.1942827 39.3644762,29.1942827 L34.0686133,29.1942827 C33.6615429,29.1942827 33.3007048,28.8754484 33.1749752,28.4045265" id="Fill-4" fill="#4A90E2"></path>
            <path d="M31.6791181,29.7092522 L31.0241124,24.7415265 C30.9308019,24.0347912 30.6841352,23.7358312 30.3699524,23.6760674 L26.283461,22.898856 C25.969419,22.8390922 25.6594648,23.032197 25.5156933,23.3771074 L23.6451143,27.8644674 C23.5013429,28.2093779 23.5565962,28.6277246 23.7818381,28.9006084 L26.7122381,32.4511989 C26.93748,32.7242236 27.2815448,32.7896255 27.5645771,32.613435 L31.2461124,30.3204217 C31.5291448,30.1440903 31.6865886,29.7663379 31.6791181,29.7092522" id="Fill-6" fill="#3875B5"></path>
            <path d="M42.4031276,28.5733451 L42.721821,23.2474594 C42.7463467,22.8381337 42.9846971,22.4944918 43.3124114,22.396389 L47.5748114,21.1192194 C47.9025257,21.0211166 48.2447581,21.1906823 48.422781,21.5393985 L50.7384876,26.0759509 C50.9165105,26.424667 50.8895886,26.8730366 50.6719581,27.1867966 L47.8406476,31.2676499 C47.6230171,31.581269 47.2641524,31.6888156 46.951661,31.5340499 L42.8861714,29.5195585 C42.57368,29.3646518 42.3786019,28.9826709 42.4031276,28.5733451" id="Fill-8" fill="#3875B5"></path>
            <path d="M50.1162392,32.5239303 L51.2041097,28.1635684 C51.2876945,27.8283836 51.5392945,27.5967989 51.8271192,27.5900331 L55.572365,27.5010922 C55.8603307,27.4943265 56.1191192,27.7136484 56.2134164,28.0446046 L57.4402659,32.349995 C57.534563,32.6809512 57.442944,33.0481322 57.2133326,33.2595608 L54.2262697,36.0092598 C53.9966583,36.2206884 53.6813478,36.2281589 53.4451116,36.0278655 L50.3722088,33.4219379 C50.1359726,33.2216446 50.0326545,32.859115 50.1162392,32.5239303" id="Fill-10" fill="#4A90E2"></path>
            <path d="M24.2213699,34.3268381 L23.407229,30.6058362 C23.3446461,30.3198438 23.137869,30.1153219 22.894867,30.0993943 L19.7340099,29.8913486 C19.491149,29.87528 19.2673166,30.0514705 19.1797851,30.3275962 L18.0403261,33.9200495 C17.9527947,34.1961752 18.0212975,34.5095124 18.2101737,34.6961333 L20.6666918,37.124461 C20.855568,37.3110819 21.121827,37.32856 21.326067,37.1678743 L23.9837242,35.076141 C24.1879642,34.9153143 24.2839528,34.6128305 24.2213699,34.3268381" id="Fill-12" fill="#4A90E2"></path>
            <path d="M57.5836568,37.0832183 L57.4659615,34.4686926 C57.4569406,34.2676945 57.5553253,34.082483 57.7096682,34.0100335 L59.7173939,33.0659345 C59.8717368,32.993344 60.0469406,33.0498659 60.1513863,33.2060411 L61.5098853,35.237165 C61.614331,35.3931992 61.6243387,35.6133669 61.534411,35.7823688 L60.3663387,37.9817897 C60.276552,38.1507916 60.1074091,38.2302888 59.9475691,38.1787002 L57.866971,37.5067802 C57.707131,37.4551916 57.5926777,37.2842164 57.5836568,37.0832183" id="Fill-14" fill="#3875B5"></path>
            <path d="M68.3049882,39.2883337 L61.3933882,38.0846004 C59.6901196,37.833987 59.842912,37.3863223 58.2095558,36.747667 L58.2095558,36.747667 C55.6547939,35.7488785 46.0803215,27.4242309 36.5100777,27.4242309 C32.4217539,27.4242309 28.1623139,29.5180785 25.3876663,32.4170461 L25.3962644,32.3608061 L20.5180434,36.147069 C19.181392,37.3561585 16.4442377,36.6287032 15.217811,36.2575756 C13.7414758,35.8106156 12.361693,36.9362613 11.7323406,37.434669 C10.9886758,38.023427 9.0697501,39.2866423 7.9656701,39.8324099 C7.53097295,40.0473623 7.24653105,40.5614156 7.24653105,41.1324137 L7.24653105,41.3818994 C7.24653105,42.0821509 7.67079771,42.6751375 8.24109105,42.7716899 L8.25744152,42.774509 C8.30804343,43.2496594 8.64167771,43.6166994 9.0460701,43.6166994 C9.0460701,43.6166994 13.8686149,43.1249166 14.5064244,43.1404213 C14.5850758,43.1423947 28.4559177,49.9123375 36.387872,49.9123375 C40.996592,49.9891566 45.5913577,48.4801204 48.704291,47.9326613 C50.8832739,47.5495528 53.0371672,46.9782728 55.1496206,46.2240366 L68.338112,40.4080594 C68.8105844,40.2393394 68.7863406,39.4153318 68.3049882,39.2883337" id="Fill-16" fill="#A6C744"></path>
            <path d="M14.412691,38.8651665 C14.412691,39.298595 14.0329653,39.6499893 13.5645806,39.6499893 C13.0961958,39.6499893 12.7164701,39.298595 12.7164701,38.8651665 C12.7164701,38.4317379 13.0961958,38.0803436 13.5645806,38.0803436 C14.0329653,38.0803436 14.412691,38.4317379 14.412691,38.8651665" id="Fill-18" fill="#1C2A47"></path>
            <path d="M49.4085878,47.3581676 L48.7955859,39.1833524 L57.983144,45.1580419 C57.983144,45.1580419 52.2507516,47.5067314 49.4085878,47.8823695 C46.566424,48.2581486 49.4085878,47.3581676 49.4085878,47.3581676" id="Fill-20" fill="#81AC4F"></path>
            <path d="M45.034624,54.2503444 L45.034624,54.2503444 L44.6901364,56.4616053 C44.6901364,56.6355406 44.7145211,56.8022872 44.7589211,56.9577577 L49.6942278,56.9577577 C49.8372945,56.9577577 49.9607688,56.8301958 49.9792335,56.6575291 C49.9861402,56.5933958 49.989805,56.5279939 49.989805,56.4616053 L49.989805,55.1497615 C49.989805,52.5770987 50.457344,50.0437615 51.3063002,47.6873196 C51.7133707,46.5574453 51.946224,45.2536358 51.946224,44.0493387 C51.946224,40.3950072 49.8017745,38.009811 47.1563802,38.009811 C44.510845,38.009811 42.3663954,40.3950072 42.3663954,44.0493387 C42.3663954,45.5296206 42.7183535,47.1433844 43.3128907,48.4164663 C44.158323,50.2265768 44.7438392,52.1987825 45.034624,54.2503444" id="Fill-22" fill="#B7DB4B"></path>
            <polygon id="Fill-24" fill="#81AC4F" points="30.7022754 40.6835364 30.2022754 40.1835364 30.2022754 40.5146876"></polygon>
            <path d="M30.2022472,41.2451192 L30.2022472,49.0000373 C32.4184415,49.5529935 34.5607768,49.9124221 36.3878015,49.9124221 C37.404632,49.9293364 38.4206168,49.8685859 39.420392,49.7585021 L30.2022472,41.2451192 Z" id="Fill-26" fill="#81AC4F"></path>
            <path d="M26.9598914,54.5025787 L26.9775105,54.6266168 L26.7415562,56.6143272 C26.7415562,56.733291 26.7555105,56.8478853 26.7790495,56.9578282 L31.1440629,56.9578282 C31.2996743,56.9578282 31.4310419,56.807291 31.4316057,56.617851 L31.4316057,56.6143272 L31.4316057,55.2541368 C31.4316057,53.0568301 31.783141,50.8741825 32.511301,48.8632149 C32.9410648,47.6765368 33.1902686,46.248971 33.1902686,45.068072 C33.1902686,41.7831768 31.2626038,40.0283196 28.8845962,40.0283196 C26.5067295,40.0283196 24.5790648,41.7831768 24.5790648,45.068072 C24.5790648,46.441653 24.9162229,48.1205368 25.4824286,49.3962968 C26.1919829,50.9952606 26.7058952,52.7117787 26.9598914,54.5025787" id="Fill-28" fill="#B7DB4B"></path>
            <path d="M11.4421901,41.7626259 C11.8780149,41.4955211 12.0990282,41.1917688 12.0990282,40.859685 C12.0990282,40.747064 12.0240415,40.6557269 11.9312949,40.6557269 C11.8386891,40.6557269 11.7637025,40.747064 11.7637025,40.859685 C11.7637025,41.1628735 11.1623996,41.513563 10.7551882,41.6555021 L7.9967501,42.6348392 C8.09189295,42.6779707 8.19154629,42.7106716 8.2957101,42.7282907 L8.31572533,42.7316735 C8.32319581,42.8010221 8.33574057,42.8683973 8.35265486,42.9335173 L10.8480758,42.0474907 C10.8603387,42.0432621 11.1490091,41.9421992 11.4421901,41.7626259" id="Fill-30" fill="#1C2A47"></path>
            <path d="M28.4736213,56.9578141 L26.5906385,56.9578141 C26.4785813,56.9578141 26.393869,56.8325074 26.4167032,56.6990255 C26.514947,56.1249265 26.9331528,55.6934712 27.4342385,55.6934712 C28.0081966,55.6934712 28.4736213,56.259536 28.4736213,56.9578141" id="Fill-32" fill="#38786B"></path>
            <path d="M28.3092004,56.9578141 L30.1921832,56.9578141 C30.3042404,56.9578141 30.3889528,56.8325074 30.3661185,56.6990255 C30.2678747,56.1249265 29.849669,55.6934712 29.3485832,55.6934712 C28.7744842,55.6934712 28.3092004,56.259536 28.3092004,56.9578141" id="Fill-34" fill="#38786B"></path>
            <path d="M46.2491684,56.9578141 L44.3661855,56.9578141 C44.2541284,56.9578141 44.169416,56.8325074 44.1922503,56.6990255 C44.2904941,56.1249265 44.7086998,55.6934712 45.2097855,55.6934712 C45.7838846,55.6934712 46.2491684,56.259536 46.2491684,56.9578141" id="Fill-36" fill="#38786B"></path>
            <path d="M46.0847474,56.9578141 L47.9677303,56.9578141 C48.0797874,56.9578141 48.1644998,56.8325074 48.1416655,56.6990255 C48.0434217,56.1249265 47.625216,55.6934712 47.1241303,55.6934712 C46.5500312,55.6934712 46.0847474,56.259536 46.0847474,56.9578141" id="Fill-38" fill="#38786B"></path>
        </g>
    </g>
</svg>