<?xml version="1.0" encoding="UTF-8" standalone="no"?>
<svg width="74px" height="74px" viewBox="0 0 74 74" version="1.1" xmlns="http://www.w3.org/2000/svg" xmlns:xlink="http://www.w3.org/1999/xlink">
    <!-- Generator: Sketch 3.8.3 (29802) - http://www.bohemiancoding.com/sketch -->
    <title>earthscience</title>
    <desc>Created with Sketch.</desc>
    <defs></defs>
    <g id="Page-1" stroke="none" stroke-width="1" fill="none" fill-rule="evenodd">
        <g id="earthscience">
            <rect id="Rectangle-36" fill="#A6C744" x="0" y="0" width="74" height="74"></rect>
            <path d="M40.2787074,69.9693116 C40.090536,69.9693116 39.9106808,69.861624 39.8276598,69.6790907 C39.7143341,69.4304507 39.823995,69.1369878 40.0724941,69.0235211 C40.2016065,68.9640392 43.1311608,67.5773497 41.9546312,65.0020088 C41.8408827,64.7530869 41.9505436,64.4593421 42.1993246,64.3455935 C42.4479646,64.2321269 42.7418503,64.3415059 42.8554579,64.5904278 C43.2928331,65.5474945 43.3482274,66.4777802 43.0205131,67.3552088 C42.3911608,69.0400126 40.561176,69.8893916 40.4836522,69.9246297 C40.4171227,69.9549345 40.3473512,69.9693116 40.2787074,69.9693116" id="Fill-4" fill="#2E675C"></path>
            <path d="M28.2283924,43.025827 C27.7029219,42.5003566 26.8508648,42.5003566 26.3252533,43.025827 L8.5162019,60.7897737 C10.3140495,62.9270347 12.3389714,64.8663985 14.55432,66.5712175 L32.2349638,48.9353966 C32.7604343,48.4099261 32.7604343,47.557869 32.2349638,47.0323985 L28.2283924,43.025827 Z" id="Fill-6" fill="#2F75B5"></path>
            <path d="M43.154587,65.6194507 C40.4764918,66.8463002 36.7621147,64.8036183 34.8584118,61.057104 C31.6221451,54.6878888 34.9307204,49.4345935 34.9307204,49.4345935 C34.9307204,49.4345935 41.2318556,50.0707116 44.5567813,56.6144259 C46.4604842,60.3609402 45.8326823,64.3926011 43.154587,65.6194507" id="Fill-8" fill="#357267"></path>
            <path d="M43.1511055,65.6293878 C40.4730103,66.8562373 36.7586331,64.8135554 34.8549303,61.0670411 C31.6186636,54.6978259 34.9272389,49.4445307 34.9272389,49.4445307" id="Fill-10" fill="#2E675C"></path>
            <path d="M28.2358629,43.016355 C27.7103924,42.4908846 26.8583352,42.4908846 26.3328648,43.016496 L8.52381333,60.7803017 C9.42238476,61.8485798 10.3762095,62.8685112 11.3837371,63.8333303 L30.239219,45.0197112 L28.2358629,43.016355 Z" id="Fill-12" fill="#4A90E2"></path>
            <path d="M19.7329528,62.0748648 L13.4980651,55.8399771 C12.9524385,55.2943505 12.9524385,54.4095924 13.4980651,53.8639657 L19.850648,47.5824229 L28.061688,55.7933219 L21.7089642,62.0748648 C21.1633375,62.6204914 20.2785794,62.6204914 19.7329528,62.0748648" id="Fill-14" fill="#889CA4"></path>
            <path d="M23.9561257,51.687816 L19.8507467,47.582437 L13.5814667,53.780536 C12.9335086,54.4284941 12.9020762,55.2439036 13.5814667,55.923435 L16.6154667,58.957435 L23.9561257,51.687816 Z" id="Fill-16" fill="#BED8E2"></path>
            <path d="M58.8922869,52.5896998 C48.8953802,62.5866065 32.687125,62.5866065 22.6902183,52.5896998 C12.6933116,42.5927931 12.6933116,26.3845379 22.6902183,16.3876312 C32.687125,6.39072457 48.8953802,6.39072457 58.8922869,16.3876312 C68.8891935,26.3845379 68.8891935,42.5927931 58.8922869,52.5896998" id="Fill-18" fill="#C2D0DC"></path>
            <path d="M58.892315,16.3876453 C48.8954084,6.39073867 32.6871531,6.39073867 22.6902465,16.3876453 C12.6933398,26.384552 12.6933398,42.5928072 22.6902465,52.5897139 L58.892315,16.3876453 Z" id="Fill-20" fill="#B2BFC7"></path>
            <path d="M55.3184533,49.0158804 C47.2953029,57.0390309 34.2872305,57.0390309 26.26408,49.0158804 C18.2409295,40.9927299 18.2409295,27.9846575 26.26408,19.961507 C34.2872305,11.9383566 47.2953029,11.9383566 55.3184533,19.961507 C63.3416038,27.9846575 63.3416038,40.9927299 55.3184533,49.0158804" id="Fill-22" fill="#A7D069"></path>
            <path d="M29.0044903,22.7858404 C36.5582693,15.2320613 48.5302008,14.7911623 56.6009931,21.4613109 C56.1865931,20.9598023 55.745835,20.4728118 55.2764636,20.0034404 C47.2533131,11.9802899 34.2452408,11.9802899 26.2220903,20.0034404 C18.1989398,28.0265909 18.1989398,41.0346632 26.2220903,49.0578137 C26.6914617,49.5271851 27.1784522,49.9679432 27.6799608,50.3824842 C21.0098122,42.3115509 21.4507112,30.3396194 29.0044903,22.7858404" id="Fill-24" fill="#8BBE58"></path>
            <path d="M52.7376575,56.1506644 C56.3668994,53.8363672 58.9691623,50.3609044 61.9332499,47.2918072 C61.4662747,45.2818263 60.7286709,43.2319558 59.7074709,41.2137996 C51.1386937,24.2807672 34.9002747,22.6348663 34.9002747,22.6348663 C34.9002747,22.6348663 26.3739242,36.2285958 34.7140766,52.7100168 C35.8980766,55.0495444 37.3541147,57.1312701 38.978309,58.9003634 C43.743768,58.919533 48.5912613,58.7947901 52.7376575,56.1506644" id="Fill-26" fill="#3C9584"></path>
            <path d="M52.0468781,56.5620057 L34.8914229,22.660421 C34.8914229,22.660421 26.3649314,36.2541505 34.7052248,52.7357124 C35.8833048,55.0638229 37.3310267,57.1366686 38.9456362,58.9002648 C43.4596362,58.9190114 48.0482,58.8111829 52.0468781,56.5620057" id="Fill-28" fill="#38786B"></path>
            <path d="M42.8189371,36.9609421 C42.789901,36.7851745 42.8154133,36.5992583 42.8942057,36.4415326 L35.2424648,33.9306069 C34.8355352,33.797125 34.3987238,34.0199707 34.2658057,34.4280278 C34.1330286,34.8362259 34.3548876,35.2752926 34.7612533,35.4086335 L42.7323924,38.0244278 C42.502781,37.7153192 42.5325219,37.224523 42.8189371,36.9609421" id="Fill-30" fill="#234942"></path>
            <path d="M46.6750419,45.213859 C46.2851676,44.9986248 46.2067981,44.4436952 46.4392286,44.0907505 L36.2328667,40.8582895 C35.8253733,40.7288952 35.3902533,40.9565333 35.2615638,41.365859 C35.1330152,41.7753257 35.3592438,42.2119962 35.76716,42.3412495 L46.6517848,45.7885219 C46.5939943,45.6024648 46.6023105,45.3938552 46.6750419,45.213859" id="Fill-32" fill="#234942"></path>
            <path d="M50.2680309,52.5122324 C50.1417375,52.2486514 50.1634442,51.9092381 50.3347013,51.6724381 L38.0405528,47.7467733 C37.6320728,47.6166743 37.1975166,47.8430438 37.0679813,48.2522286 C36.9383051,48.6614133 37.163688,49.0985067 37.5711813,49.2287467 L50.4188499,53.3310248 C50.3878404,53.2360229 50.374027,53.1345371 50.3775509,53.0337562 C50.2849451,52.880259 50.2484385,52.6927924 50.2680309,52.5122324" id="Fill-34" fill="#234942"></path>
            <path d="M42.6081851,38.0018754 C42.6149509,37.9869345 42.6231261,37.9732621 42.6289051,37.9576164 L45.6784099,29.8697688 C45.8297928,29.4681954 45.6283718,29.019403 45.228349,28.8673154 C44.828467,28.7152278 44.3812251,28.9173535 44.2301242,29.3192088 L41.6588709,36.1390488 L42.6081851,38.0018754 Z" id="Fill-36" fill="#2E675C"></path>
            <path d="M50.3017467,34.3341817 C49.9034152,34.1778655 49.4544819,34.3757627 49.2988705,34.7756446 L45.7164248,43.9881512 L46.6595371,45.8385741 L50.7415181,35.3411455 C50.8969886,34.9411227 50.7000781,34.490357 50.3017467,34.3341817" id="Fill-38" fill="#2E675C"></path>
            <path d="M50.4591905,53.3282057 L55.0787638,41.3657181 C55.2333886,40.9654133 55.0354914,40.5149295 54.6367371,40.359741 C54.2381238,40.2045524 53.7891905,40.4028724 53.6348476,40.803459 L49.5142457,51.4741181 L50.4591905,53.3282057 Z" id="Fill-40" fill="#2E675C"></path>
            <path d="M26.2640236,49.0158804 C18.2408731,40.9927299 18.2408731,27.9846575 26.2640236,19.961507 C34.2871741,11.9383566 47.2952465,11.9383566 55.318397,19.961507 L55.3185379,19.961507 L58.8922446,16.3876594 C48.8953379,6.39075276 32.6870827,6.39075276 22.690176,16.3876594 C12.6932693,26.3845661 12.6932693,42.5928213 22.690176,52.589728 L26.2640236,49.0158804 L26.2640236,49.0158804 Z" id="Fill-42" fill="#F0F8FC"></path>
            <path d="M58.892301,16.3876312 L58.892301,16.3876312 C58.486781,15.9821112 58.0701257,15.5947741 57.6450133,15.222237 C58.0701257,15.5947741 58.486781,15.9821112 58.892301,16.3876312" id="Fill-44" fill="#DEEBF7"></path>
            <path d="M58.892315,16.3876312 L55.3184674,19.9614789 C63.3416179,27.9846293 63.3416179,40.9927017 55.3184674,49.0158522 C47.295317,57.0390027 34.2872446,57.0390027 26.2640941,49.0158522 L22.6902465,52.5896998 C32.6871531,62.5866065 48.8954084,62.5866065 58.892315,52.5896998 C68.8892217,42.5927931 68.8892217,26.3845379 58.892315,16.3876312" id="Fill-46" fill="#D7E3E4"></path>
        </g>
    </g>
</svg>