<?xml version="1.0" encoding="UTF-8" standalone="no"?>
<svg width="74px" height="74px" viewBox="0 0 74 74" version="1.1" xmlns="http://www.w3.org/2000/svg" xmlns:xlink="http://www.w3.org/1999/xlink">
    <!-- Generator: Sketch 3.8.3 (29802) - http://www.bohemiancoding.com/sketch -->
    <title>football</title>
    <desc>Created with Sketch.</desc>
    <defs></defs>
    <g id="Page-1" stroke="none" stroke-width="1" fill="none" fill-rule="evenodd">
        <g id="football">
            <rect id="Rectangle-36" fill="#A6C744" x="0" y="-2.27373675e-13" width="74" height="74"></rect>
            <path d="M36.9764046,19.9394198 C21.000016,19.9394198 11.2700731,32.5535303 11.2699322,37.7947036 C11.2700731,43.035736 21.000016,55.6498465 36.9764046,55.6498465 C52.9527931,55.6498465 62.682736,43.035736 62.682736,37.7947036 C62.682736,32.5535303 52.9527931,19.9394198 36.9764046,19.9394198" id="Fill-4" fill="#AA802F"></path>
            <path d="M11.2699604,37.7947036 C11.2701013,43.035736 21.0000442,55.6498465 36.9764328,55.6498465 C52.9528213,55.6498465 62.6827642,43.035736 62.6827642,37.7947036 L11.2699604,37.7947036" id="Fill-6" fill="#816628"></path>
            <path d="M49.1233143,38.7906309 L24.8294667,38.7906309 C24.3001905,38.7906309 23.8712724,38.3615718 23.8712724,37.8324366 L23.8712724,37.7568861 C23.8712724,37.2276099 24.3001905,36.7986918 24.8294667,36.7986918 L49.1233143,36.7986918 C49.6524495,36.7986918 50.0815086,37.2276099 50.0815086,37.7568861 L50.0815086,37.8324366 C50.0815086,38.3615718 49.6524495,38.7906309 49.1233143,38.7906309" id="Fill-8" fill="#FFFFFF"></path>
            <path d="M27.118336,42.5656175 L27.0004998,42.5656175 C26.4176617,42.5656175 25.9451893,42.0931451 25.9451893,41.510307 L25.9451893,33.6626423 C25.9451893,33.0798042 26.4176617,32.6074728 27.0004998,32.6074728 L27.118336,32.6074728 C27.7011741,32.6074728 28.1736465,33.0798042 28.1736465,33.6626423 L28.1736465,41.510307 C28.1736465,42.0931451 27.7011741,42.5656175 27.118336,42.5656175" id="Fill-10" fill="#FFFFFF"></path>
            <path d="M46.9522389,42.5656175 L46.8344027,42.5656175 C46.2515646,42.5656175 45.7790922,42.0931451 45.7790922,41.510307 L45.7790922,33.6626423 C45.7790922,33.0798042 46.2515646,32.6074728 46.8344027,32.6074728 L46.9522389,32.6074728 C47.535077,32.6074728 48.0075493,33.0798042 48.0075493,33.6626423 L48.0075493,41.510307 C48.0075493,42.0931451 47.535077,42.5656175 46.9522389,42.5656175" id="Fill-12" fill="#FFFFFF"></path>
            <path d="M33.729637,42.5656175 L33.6118008,42.5656175 C33.0289627,42.5656175 32.5564903,42.0931451 32.5564903,41.510307 L32.5564903,33.6626423 C32.5564903,33.0798042 33.0289627,32.6074728 33.6118008,32.6074728 L33.729637,32.6074728 C34.312475,32.6074728 34.7849474,33.0798042 34.7849474,33.6626423 L34.7849474,41.510307 C34.7849474,42.0931451 34.312475,42.5656175 33.729637,42.5656175" id="Fill-14" fill="#FFFFFF"></path>
            <path d="M40.3409379,42.5656175 L40.2231017,42.5656175 C39.6402636,42.5656175 39.1677912,42.0931451 39.1677912,41.510307 L39.1677912,33.6626423 C39.1677912,33.0798042 39.6402636,32.6074728 40.2231017,32.6074728 L40.3409379,32.6074728 C40.923776,32.6074728 41.3962484,33.0798042 41.3962484,33.6626423 L41.3962484,41.510307 C41.3962484,42.0931451 40.923776,42.5656175 40.3409379,42.5656175" id="Fill-16" fill="#FFFFFF"></path>
            <path d="M16.4601371,28.4961455 L16.4601371,47.0931208 C17.4050819,48.0546979 18.4696952,48.9979512 19.6538362,49.8860922 L19.6538362,25.703315 C18.4696952,26.591315 17.4050819,27.5345684 16.4601371,28.4961455" id="Fill-18" fill="#FFFFFF"></path>
            <path d="M57.491037,28.4961455 L57.491037,47.0931208 C56.5460922,48.0546979 55.4814789,48.9979512 54.297197,49.8860922 L54.297197,25.703315 C55.4814789,26.591315 56.5460922,27.5345684 57.491037,28.4961455" id="Fill-20" fill="#FFFFFF"></path>
            <path d="M18.1840552,48.7322983 C22.6117924,52.5209573 29.0193467,55.6498183 36.9762495,55.6498183 C29.0193467,55.6498183 22.6117924,52.5209573 18.1840552,48.7322983 M38.5780324,55.6072507 L38.5746495,55.6073916 L38.5780324,55.6072507 M38.5284171,55.6099288 L38.523061,55.6100697 L38.5284171,55.6099288 M38.4790838,55.612325 L38.4716133,55.6127478 L38.4790838,55.612325 M38.4270724,55.6148621 L38.422421,55.615144 L38.4270724,55.6148621 M38.1701162,55.6262792 L38.1632095,55.6265611 L38.1701162,55.6262792 M38.120501,55.6281116 L38.1109162,55.6285345 L38.120501,55.6281116 M38.0711676,55.630085 L38.0600324,55.6303669 L38.0711676,55.630085 M38.019861,55.6317764 L38.0102762,55.6321992 L38.019861,55.6317764 M37.9674267,55.6336088 L37.960661,55.6338907 L37.9674267,55.6336088 M37.8078686,55.6384011 L37.8075867,55.6384011 L37.8078686,55.6384011 M37.7589581,55.6398107 L37.7478229,55.6400926 L37.7589581,55.6398107 M37.7099067,55.6409383 L37.6953886,55.6413611 L37.7099067,55.6409383 M37.6597276,55.6422069 L37.6450686,55.6424888 L37.6597276,55.6422069 M37.6089848,55.6431935 L37.5951714,55.6436164 L37.6089848,55.6431935 M37.5583829,55.6443211 L37.5448514,55.644603 L37.5583829,55.6443211 M37.5056667,55.6453078 L37.4950952,55.6454488 L37.5056667,55.6453078 M37.4478762,55.6461535 L37.4451981,55.6462945 L37.4478762,55.6461535 M37.3936095,55.6469992 L37.392341,55.6469992 L37.3936095,55.6469992 M37.344699,55.647704 L37.329899,55.647845 L37.344699,55.647704 M37.2948019,55.6482678 L37.2777467,55.6484088 L37.2948019,55.6482678 M37.2453276,55.6486907 L37.22644,55.6488316 L37.2453276,55.6486907 M37.1954305,55.6491135 L37.1758381,55.6492545 L37.1954305,55.6491135 M37.1458152,55.6493954 L37.1258,55.6495364 L37.1458152,55.6493954 M37.0940857,55.6496773 L37.0761848,55.6496773 L37.0940857,55.6496773 M37.0415105,55.6498183 L37.0261467,55.6498183 L37.0415105,55.6498183" id="Fill-22" fill="#6F8845"></path>
            <path d="M14.0004053,31.3505017 C12.2155253,33.8113893 11.2700168,36.1612065 11.2700168,37.7947036 L16.4601653,37.7947036 L16.4601653,36.3335912 C15.4912587,34.7607036 14.6655596,33.0939417 14.0004053,31.3505017" id="Fill-24" fill="#715E39"></path>
            <path d="M16.4601371,37.7947036 L11.2699886,37.7947036 C11.2699886,40.4254389 13.7215733,44.9139265 18.1841257,48.7323265 C22.6118629,52.5209855 29.0194171,55.6498465 36.976461,55.6498465 L37.0262171,55.6498465 L37.04144,55.6498465 L37.0761143,55.6497055 L37.0940152,55.6497055 L37.1258705,55.6495646 L37.1458857,55.6494236 L37.1759086,55.6492827 L37.19536,55.6491417 L37.2263695,55.6488598 L37.2453981,55.6487189 L37.2778171,55.648437 L37.2947314,55.648155 L37.3299695,55.6478731 L37.3446286,55.6475912 C37.3604152,55.6474503 37.3766248,55.6473093 37.3924114,55.6470274 L37.39368,55.6470274 C37.4108762,55.6467455 37.4277905,55.6464636 37.4451276,55.6463227 L37.4478057,55.6461817 C37.4640152,55.6458998 37.4789562,55.6457589 37.4951657,55.645477 L37.5057371,55.645195 C37.5187048,55.6450541 37.5318133,55.6447722 37.544781,55.6444903 L37.5584533,55.6443493 L37.595101,55.6435036 L37.6090552,55.6432217 L37.6449981,55.642517 L37.6597981,55.6420941 L37.695459,55.6413893 L37.7098362,55.6409665 C37.7228038,55.6406846 37.7349257,55.6404027 37.7478933,55.6399798 L37.7590286,55.6396979 C37.7750971,55.639275 37.7914476,55.6388522 37.8075162,55.6384293 L37.8077981,55.6384293 C37.8589638,55.6370198 37.9097067,55.6354693 37.9605905,55.6337779 L37.9673562,55.633637 C37.9818743,55.6330731 37.9958286,55.6326503 38.0103467,55.6322274 L38.0197905,55.6318046 C38.033181,55.6313817 38.0467124,55.6309589 38.0601029,55.630395 L38.0710971,55.6299722 C38.0839238,55.6295493 38.09816,55.6289855 38.1109867,55.6285627 L38.1205714,55.6281398 C38.1349486,55.627576 38.1487619,55.6271531 38.163139,55.6265893 L38.1701867,55.6263074 C38.2546171,55.6229246 38.3383429,55.6192598 38.4223505,55.6151722 L38.4271429,55.6148903 C38.4419429,55.6141855 38.4567429,55.6134808 38.4716838,55.612776 L38.4790133,55.6123531 C38.4933905,55.6116484 38.5087543,55.6109436 38.5229905,55.6100979 L38.5283467,55.609816 C38.5437105,55.6091112 38.5592152,55.6082655 38.574579,55.6074198 L38.5781029,55.6072789 C46.7429105,55.1704674 53.1524381,51.442136 57.3032038,47.3164598 C57.279101,47.3291455 57.2548571,47.3418312 57.2308952,47.354376 C56.3519162,48.2254617 55.3739886,49.0786465 54.2972533,49.8861627 L54.2972533,48.6997665 C50.7383467,50.1119684 46.847779,50.8900255 42.7711543,50.8900255 C33.5513181,50.8900255 25.281219,46.9122084 19.6538362,40.6148789 L19.6538362,49.8861627 C18.4696952,48.9980217 17.4050819,48.0547684 16.4601371,47.0931912 L16.4601371,37.7947036" id="Fill-26" fill="#594E34"></path>
            <path d="M16.4601371,36.3335771 L16.4601371,37.7946895 L16.4601371,47.0931771 C17.4050819,48.0547543 18.4696952,48.9980076 19.6538362,49.8861486 L19.6538362,40.6148648 C18.4663124,39.2858248 17.3964838,37.8536076 16.4601371,36.3335771" id="Fill-28" fill="#A4AAB5"></path>
            <path d="M57.2308389,47.3544183 C56.2816655,47.8512754 55.3027512,48.3007726 54.2973379,48.6998088 L54.2973379,49.886205 C55.3739322,49.0785478 56.3518598,48.225363 57.2308389,47.3544183" id="Fill-30" fill="#A4AAB5"></path>
        </g>
    </g>
</svg>