<?xml version="1.0" encoding="UTF-8" standalone="no"?>
<svg width="74px" height="74px" viewBox="0 0 74 74" version="1.1" xmlns="http://www.w3.org/2000/svg" xmlns:xlink="http://www.w3.org/1999/xlink">
    <!-- Generator: Sketch 3.8.3 (29802) - http://www.bohemiancoding.com/sketch -->
    <title>geography</title>
    <desc>Created with Sketch.</desc>
    <defs></defs>
    <g id="Page-1" stroke="none" stroke-width="1" fill="none" fill-rule="evenodd">
        <g id="geography">
            <rect id="Rectangle-48" fill="#284579" x="0" y="0" width="74" height="74"></rect>
            <path d="M35.1215558,51.0298362 C34.9786301,56.4727124 31.1706606,59.6110171 25.7892396,61.624099 C24.5380053,62.0922019 23.7476853,62.9343924 23.7476853,63.8597448 L23.7476853,63.8763771 C23.7476853,63.8932914 23.769251,63.9071048 23.795891,63.9071048 L37.1074339,63.9071048 L37.1074339,51.0298362 L35.1215558,51.0298362 Z" id="Fill-4" fill="#98AEBB"></path>
            <path d="M35.1191314,51.1707886 C35.0814971,52.1474476 34.9236305,53.0484152 34.6601905,53.8822895 L37.1074057,53.8822895 L37.1074057,51.1707886 L35.1191314,51.1707886 Z" id="Fill-6" fill="#888888"></path>
            <path d="M48.4255718,61.6241131 C43.0441509,59.6110312 39.2361813,56.4727265 39.0932556,51.0298503 L37.1073775,51.0298503 L37.1073775,63.9071189 L50.4189204,63.9071189 C50.4455604,63.9071189 50.4671261,63.8933055 50.4671261,63.8763912 L50.4671261,63.8597589 C50.4671261,62.9344065 49.6768061,62.092216 48.4255718,61.6241131" id="Fill-8" fill="#D4E4F3"></path>
            <path d="M37.1074057,51.1707886 L37.1074057,53.8822895 L39.554621,53.8822895 C39.291181,53.0484152 39.1333143,52.1474476 39.09568,51.1707886 L37.1074057,51.1707886 Z" id="Fill-10" fill="#A4A4A4"></path>
            <path d="M49.0748408,42.728925 C42.4441589,49.3596069 31.6938617,49.3596069 25.0631798,42.728925 C18.4324979,36.098243 18.4324979,25.3479459 25.0631798,18.717264 C31.6938617,12.0865821 42.4441589,12.0865821 49.0748408,18.717264 C55.7055227,25.3479459 55.7055227,36.098243 49.0748408,42.728925" id="Fill-12" fill="#5385C4"></path>
            <path d="M30.687955,37.1041497 C25.0258979,31.4420926 24.199917,22.7766221 28.207616,16.2369954 C27.088877,16.9225878 26.031875,17.7485688 25.0631093,18.7173345 C18.4325684,25.3478754 18.4325684,36.0983135 25.0631093,42.7289954 C31.6937912,49.3595364 42.4442293,49.3595364 49.0747703,42.7289954 C50.043536,41.7603707 50.869517,40.7032278 51.5551093,39.5844888 C45.0154827,43.5921878 36.3500122,42.7662069 30.687955,37.1041497" id="Fill-14" fill="#3875B5"></path>
            <path d="M51.3106979,32.6795981 C51.579635,33.1478419 51.5310065,34.5064819 52.369955,34.0638914 C52.799437,33.837381 52.9036008,33.3355905 53.1322255,32.9479714 C53.4661417,32.3816248 53.8780046,31.9896362 53.9577836,31.3079905 C54.0486979,30.5300743 54.0093722,29.675339 53.9408693,28.897141 C53.9267741,28.7365962 53.9085912,28.5768971 53.8904084,28.4171981 C53.4066598,24.8690038 51.8023398,21.4444248 49.0747703,18.7169962 C48.2580922,17.9001771 47.3784084,17.1845619 46.4520693,16.5688819 C45.8913608,16.331941 45.352077,16.284299 44.9234408,16.6027105 C44.2956389,17.0691219 44.9533227,18.0645276 44.0123246,18.2714457 C43.4799474,18.3884362 43.1829608,17.9617733 42.7634865,17.7444248 C42.166835,17.4351752 41.6097912,17.6071371 41.0101798,17.867899 C40.1259855,18.2525581 38.6441531,19.00764 38.2869798,19.9642838 C37.7944922,21.2831752 40.3966141,19.6415029 40.1042789,21.2754229 C39.7461189,23.2773695 38.0785112,21.8667181 36.9369379,21.7821467 C36.4165417,21.7436667 35.8451208,22.426581 35.3780046,22.6599981 C35.0460617,22.8249124 34.6258827,22.8681848 34.3233989,23.0904667 C33.7884846,23.4837238 34.053757,23.6256629 34.1704655,24.1893314 C34.2495398,24.5711714 34.0650331,24.649541 33.730835,24.8719638 C33.2036731,25.2229352 33.0749836,25.5708057 33.8739017,25.6990724 C34.7273684,25.836219 35.5530674,25.4228057 35.5801303,24.4815257 C35.5908427,24.1091295 36.8570179,24.2210457 37.0633722,24.306181 C37.5275284,24.4977352 37.8450941,24.9284857 38.1495512,25.3053924 C38.6342865,25.9054267 39.1068998,26.6341505 39.8367512,26.9573543 C40.9832579,27.4649238 40.6444084,26.2783867 40.8991093,25.5953314 C41.1009531,25.0542152 41.9386331,24.2430343 42.5918065,24.4252857 C43.7493074,24.7482076 43.0349608,25.27396 42.6655246,25.8653962 C42.4416922,26.2238381 42.7073874,26.6137124 42.590397,26.9800476 C42.3430255,27.7538762 41.0313227,28.0040667 40.391117,28.3031676 C39.4671741,28.7347638 39.0881531,29.2187943 38.0535627,28.7418114 C36.7228312,28.1282457 35.8723246,26.7256286 34.4320731,26.3185581 C31.4189341,25.4674876 28.6947474,29.3713048 29.6060046,32.0399562 C30.3312046,34.1636857 31.8704046,34.8029048 33.9347931,35.0077086 C35.8920579,35.2018 36.4887093,36.2325848 36.7687817,38.1010495 C36.9861303,39.5497581 36.8526484,41.2025657 37.4874979,42.5540171 C38.0847131,43.8252667 39.5200312,44.6838076 40.849776,45.0164552 C41.9249608,45.2855333 42.6721493,44.4832324 42.4845417,43.33884 C42.078035,40.8594876 45.2025265,36.0764095 46.3786331,33.9167371 C46.6169836,33.5167143 47.1554217,32.7237162 46.4799779,32.6188476 C45.8514712,32.5211676 45.2181722,33.3055676 44.5248274,33.2123981 C43.8207703,33.117819 43.4273722,32.2856362 43.7039208,31.6382419 C44.1420008,30.6125314 46.3786331,31.4137048 47.1824846,31.4103219 C48.6499398,31.4044019 50.4661112,31.2128476 51.3106979,32.6795981" id="Fill-16" fill="#7FB04E"></path>
            <path d="M23.5362709,31.4815874 C24.0245299,30.9764141 23.2970747,29.2606008 20.2830899,28.8736865 C20.270827,28.8524027 20.2663166,28.8285817 20.2548994,28.807016 C20.1236728,29.9707189 20.0926632,31.151195 20.1666632,32.335477 C20.3281947,34.0386046 20.7472461,35.721717 21.4219851,37.322795 C21.4035204,35.1232331 21.9945337,32.8465703 23.5362709,31.4815874" id="Fill-18" fill="#7FB04E"></path>
            <path d="M27.3513585,20.405507 C27.5699756,19.2523756 26.4950728,18.2995375 25.387187,18.401587 C25.2782309,18.5050461 25.1701204,18.6100556 25.0631375,18.7170385 C23.4547299,20.3254461 22.237747,22.1765737 21.4096518,24.1523032 C21.6320747,23.9498956 21.8750766,23.7894918 22.134147,23.7249356 C22.8069128,23.5573432 23.4709394,23.803587 24.1831718,23.561008 C25.5296899,23.102349 27.0724137,21.8771909 27.3513585,20.405507" id="Fill-20" fill="#7FB04E"></path>
            <path d="M53.9408975,28.8970705 C53.9268023,28.7365257 53.9086194,28.5768267 53.8904366,28.4171276 C53.406688,24.8690743 51.802227,21.4444952 49.0747985,18.7169257 C48.2579794,17.9001067 47.3784366,17.1844914 46.4519566,16.5689524 C45.891248,16.3318705 45.3521051,16.2843695 44.923469,16.602781 C44.295667,17.0691924 44.9533509,18.0645981 44.0123528,18.2713752 C43.4799756,18.3885067 43.182989,17.9617029 42.7635147,17.7443543 C42.1668632,17.4352457 41.6098194,17.6072076 41.010208,17.8679695 C40.1260137,18.2524876 38.6441813,19.0077105 38.286867,19.9643543 C37.7945204,21.2832457 40.3966423,19.6415733 40.104307,21.2754933 C39.7460061,23.277299 38.0785394,21.8667886 36.9369661,21.7822171 C36.4165699,21.7435962 35.845149,22.4266514 35.3778918,22.6599276 C35.0460899,22.8249829 34.6259109,22.8681143 34.323427,23.0905371 C33.7885128,23.4837943 34.0537851,23.6257333 34.1704937,24.189261 C34.249568,24.5712419 34.0649204,24.6494705 33.7308632,24.8718933 C33.2037013,25.2228648 33.0750118,25.5707352 33.8739299,25.6991429 C34.7273966,25.8361486 35.5530956,25.4227352 35.5801585,24.4814552 C35.5908709,24.109059 36.8570461,24.2209752 37.0634004,24.3062514 C37.5275566,24.4978057 37.8451223,24.9284152 38.1495794,25.3054629 C38.6343147,25.9054971 39.106787,26.634221 39.8367794,26.9574248 C40.9831451,27.4648533 40.6444366,26.2783162 40.8991375,25.595261 C41.1009813,25.0541448 41.9386613,24.2431048 42.5918347,24.4253562 C43.7493356,24.7481371 43.034848,25.2740305 42.6654118,25.8654667 C42.4417204,26.2237676 42.7074156,26.6136419 42.5904251,26.9801181 C42.3430537,27.7538057 41.0313509,28.0041371 40.3911451,28.3030971 C39.4672023,28.7346933 39.0881813,29.2188648 38.0535909,28.7418819 C36.7228594,28.1283162 35.8722118,26.7255581 34.4321013,26.3186286 C31.4188213,25.4675581 28.6947756,29.3712343 29.6060328,32.0400267 C30.3312328,34.1636152 31.8702918,34.8029752 33.9348213,35.007779 C35.8920861,35.2018705 36.4885966,36.2325143 36.7688099,38.100979 C36.913568,39.06608 36.9037013,40.1212495 37.0679109,41.1180648 C38.831789,41.736 40.6765737,42.0538476 42.5244594,42.0720305 C42.9797356,39.4718819 45.3804366,35.7497524 46.3786613,33.9168076 C46.6170118,33.5167848 47.1554499,32.7237867 46.4798651,32.6187771 C45.8514994,32.5210971 45.2180594,33.3054971 44.5248556,33.2124686 C43.8207985,33.1178895 43.4274004,32.2855657 43.703808,31.6381714 C44.142029,30.612461 46.3786613,31.4136343 47.1825128,31.4103924 C48.649968,31.4043314 50.4661394,31.2129181 51.3107261,32.6795276 C51.5796632,33.1477714 51.5310347,34.5064114 52.3699832,34.0639619 C52.7994651,33.8374514 52.903629,33.33552 53.1322537,32.9480419 C53.4661699,32.3816952 53.8780328,31.9897067 53.9578118,31.308061 C54.0487261,30.5301448 54.0094004,29.6752686 53.9408975,28.8970705" id="Fill-22" fill="#A6C744"></path>
            <path d="M27.3513726,20.3858724 C27.4601878,19.8119143 27.2481954,19.2877124 26.8715707,18.9184171 C26.4109383,20.1032629 26.0888621,21.3289848 25.9043554,22.571621 C26.6178564,21.98836 27.1916735,21.2279219 27.3513726,20.3858724" id="Fill-24" fill="#8FC85A"></path>
            <path d="M52.317253,45.813259 C43.7890701,54.3414419 29.913013,54.341301 21.3848301,45.813259 L22.9881634,44.2099257 C30.632152,51.8540552 43.069931,51.8540552 50.7139196,44.2099257 C58.3580491,36.5659371 58.3580491,24.1281581 50.7139196,16.4841695 L52.317253,14.8808362 C60.8452949,23.409019 60.8454358,37.2850762 52.317253,45.813259" id="Fill-26" fill="#B3CAD2"></path>
            <path d="M55.0412987,13.794333 L20.2624263,48.5048434 C19.8237825,48.9426415 19.1131006,48.9420777 18.6751615,48.503293 L18.6592339,48.4872244 C18.2212949,48.0484396 18.2219996,47.3378987 18.6607844,46.8999596 L53.4396568,12.1894491 C53.8783006,11.751651 54.5889825,11.7523558 55.0267806,12.1909996 L55.0428491,12.2070682 C55.4807882,12.645853 55.4800834,13.3565349 55.0412987,13.794333" id="Fill-28" fill="#B3CAD2"></path>
            <path d="M53.1125063,15.719517 L55.0412987,13.7945303 C55.4800834,13.3567322 55.4806472,12.6460503 55.0428491,12.2072655 L55.0267806,12.191197 C54.5889825,11.7525531 53.8783006,11.7518484 53.4395158,12.1896465 L37.1789672,28.4183398 L37.1789672,31.6217646 L51.5046625,17.3242598 C58.3470549,25.013776 58.0843196,36.8398217 50.7139196,44.2102217 C46.9751577,47.9491246 42.0894663,49.857056 37.1789672,49.9382446 L37.1789672,52.2054636 C42.6701901,52.1238522 48.1363234,49.9942027 52.317253,45.8134141 C60.5712834,37.5593836 60.836133,24.2954827 53.1125063,15.719517" id="Fill-30" fill="#D4E4F3"></path>
        </g>
    </g>
</svg>