<?xml version="1.0" encoding="UTF-8" standalone="no"?>
<svg width="74px" height="74px" viewBox="0 0 74 74" version="1.1" xmlns="http://www.w3.org/2000/svg" xmlns:xlink="http://www.w3.org/1999/xlink">
    <!-- Generator: Sketch 3.8.3 (29802) - http://www.bohemiancoding.com/sketch -->
    <title>geometry</title>
    <desc>Created with Sketch.</desc>
    <defs></defs>
    <g id="Page-1" stroke="none" stroke-width="1" fill="none" fill-rule="evenodd">
        <g id="geometry">
            <rect id="Rectangle-48" fill="#5D60A5" x="0" y="0" width="74" height="74"></rect>
            <path d="M23.3223192,58.7000701 L21.1086621,61.8134263 C20.8329592,62.2010453 20.2016335,61.9796091 20.2501211,61.512352 L20.6394316,57.759213 L24.3459154,47.795571 L27.028944,48.7364282 L23.3223192,58.7000701 Z" id="Fill-4" fill="#F0F8FC"></path>
            <polygon id="Fill-6" fill="#829599" points="22.4716293 52.7688221 25.1206884 53.799043 26.2811493 50.7375573 23.5982617 49.7967002"></polygon>
            <path d="M36.3881116,46.1868674 C36.2747859,45.9923531 36.2815516,45.6977627 36.4036164,45.516075 L36.4618297,45.4296712 L36.5197611,45.516075 C36.641544,45.6974808 36.6480278,45.9920712 36.5344202,46.1867265 L36.4612659,46.3121741 L36.3881116,46.1868674 Z M47.1830907,44.800037 L37.1974602,44.800037 L36.8849688,44.800037 L36.0388316,44.800037 L35.7260583,44.800037 L26.2950754,44.800037 C25.5774869,44.800037 25.0153688,45.2565817 25.0153688,45.8395608 C25.0153688,46.4225398 25.5774869,46.8792255 26.2950754,46.8792255 L35.6954716,46.8792255 L36.1303097,46.8792255 L36.7916583,46.8792255 L37.2270602,46.8792255 L47.1830907,46.8792255 C47.9006792,46.8792255 48.4627973,46.4225398 48.4627973,45.8395608 C48.4627973,45.2565817 47.9006792,44.800037 47.1830907,44.800037 L47.1830907,44.800037 Z" id="Fill-8" fill="#9FB3B9"></path>
            <path d="M34.797464,9.58015276 L38.0455707,9.58015276 C38.9390678,9.58015276 39.6260697,10.340027 39.5020316,11.1909566 L37.7005192,20.2773109 L35.1426564,20.2773109 L33.341144,11.1909566 C33.2171059,10.340027 33.9041078,9.58015276 34.797464,9.58015276" id="Fill-10" fill="#9FB3B9"></path>
            <path d="M30.4871402,26.1800442 L21.7542945,49.4340861 C21.5719021,49.9095185 21.823643,50.4354118 22.3140164,50.6100518 L26.7583859,52.1922423 C26.8643821,52.2300175 26.9753116,52.2490461 27.0879326,52.2490461 C27.483445,52.2490461 27.841464,52.0088632 27.9786107,51.651267 L36.7118792,28.3960975 L30.4871402,26.1800442 Z" id="Fill-12" fill="#9FB3B9"></path>
            <path d="M30.4640381,26.1800442 L28.1071733,32.455949 C29.6069067,34.0959299 31.6211162,35.2882461 33.9079276,35.8010309 L36.6887771,28.3960975 L30.4640381,26.1800442 Z" id="Fill-14" fill="#829599"></path>
            <path d="M38.0954114,27.020656 L35.6679295,27.884835 L38.0954114,27.020656 Z" id="Fill-16" fill="#A2B9C5"></path>
            <path d="M58.193008,46.8665257 L50.6696747,46.8446781 L42.6632975,25.840941 L36.3931718,28.2048533 L43.5995032,46.82424 L43.5949928,46.82424 L44.5072366,49.1557333 C44.6012518,49.3850629 44.8446766,49.5374324 45.1171375,49.5374324 L58.1892023,49.5374324 C58.9559832,49.5374324 59.5775832,48.9395124 59.5775832,48.2019086 C59.5775832,47.4658552 58.9583794,46.868499 58.193008,46.8665257" id="Fill-18" fill="#9FB3B9"></path>
            <path d="M42.768011,26.0953177 L45.1248758,32.3712225 C43.6251425,34.0112034 41.610933,35.2035196 39.3241215,35.7163044 L36.543131,28.311371 L42.768011,26.0953177 Z" id="Fill-20" fill="#829599"></path>
            <path d="M43.8497642,25.4173227 C43.8497642,29.344256 40.5399204,32.5276655 36.4572347,32.5276655 C32.374408,32.5276655 29.0645642,29.344256 29.0645642,25.4173227 C29.0645642,21.4903893 32.374408,18.3069798 36.4572347,18.3069798 C40.5399204,18.3069798 43.8497642,21.4903893 43.8497642,25.4173227" id="Fill-22" fill="#F0F8FC"></path>
            <path d="M40.5163109,25.4173227 C40.5163109,27.5736122 38.6990118,29.3215627 36.4571642,29.3215627 C34.2153166,29.3215627 32.3980175,27.5736122 32.3980175,25.4173227 C32.3980175,23.2610331 34.2153166,21.5130827 36.4571642,21.5130827 C38.6990118,21.5130827 40.5163109,23.2610331 40.5163109,25.4173227" id="Fill-24" fill="#4E96E5"></path>
            <path d="M37.0107829,50.0135131 L36.4674114,50.0135131 C36.0002952,50.0135131 35.6216971,49.634915 35.6216971,49.1677989 L35.6216971,42.2609912 C35.6216971,41.793875 36.0002952,41.415277 36.4674114,41.415277 L37.0107829,41.415277 C37.477899,41.415277 37.8564971,41.793875 37.8564971,42.2609912 L37.8564971,49.1677989 C37.8564971,49.634915 37.477899,50.0135131 37.0107829,50.0135131" id="Fill-26" fill="#F0F8FC"></path>
            <path d="M57.6855512,55.5449074 L50.8891093,55.5449074 L50.8891093,37.235757 C50.8891093,36.5300084 51.461235,35.9578827 52.1669836,35.9578827 L56.407677,35.9578827 C57.1134255,35.9578827 57.6855512,36.5300084 57.6855512,37.235757 L57.6855512,55.5449074 Z" id="Fill-28" fill="#FAB23C"></path>
            <polygon id="Fill-30" fill="#B9972F" points="50.8891657 51.5261295 57.6856076 51.5261295 57.6856076 49.3705448 50.8891657 49.3705448"></polygon>
            <path d="M53.4084922,62.2679554 L50.8891093,55.5449497 L52.5484008,54.4969688 L54.2873303,55.5449497 L56.0265417,54.4969688 L57.6855512,55.5449497 L55.1663093,62.2679554 C54.8353531,63.0116202 53.7394484,63.0116202 53.4084922,62.2679554" id="Fill-32" fill="#F1EEE9"></path>
            <path d="M52.5483162,59.9724895 L53.4085486,62.267899 C53.7393638,63.0115638 54.8354095,63.0115638 55.1662248,62.267899 L56.0264571,59.9724895 L52.5483162,59.9724895 Z" id="Fill-33" fill="#000000"></path>
            <polygon id="Fill-34" fill="#D5D7D7" points="35.6216267 49.0993524 37.8565676 49.0993524 37.8565676 47.8856114 35.6216267 47.8856114"></polygon>
            <polygon id="Fill-35" fill="#D5D7D7" points="35.6216267 46.4724229 37.8565676 46.4724229 37.8565676 45.2586819 35.6216267 45.2586819"></polygon>
            <polygon id="Fill-36" fill="#D5D7D7" points="35.6216267 43.8456343 37.8565676 43.8456343 37.8565676 42.6318933 35.6216267 42.6318933"></polygon>
        </g>
    </g>
</svg>