<?xml version="1.0" encoding="UTF-8" standalone="no"?>
<svg width="74px" height="74px" viewBox="0 0 74 74" version="1.1" xmlns="http://www.w3.org/2000/svg" xmlns:xlink="http://www.w3.org/1999/xlink">
    <!-- Generator: Sketch 3.8.3 (29802) - http://www.bohemiancoding.com/sketch -->
    <title>home_economics</title>
    <desc>Created with Sketch.</desc>
    <defs></defs>
    <g id="Page-1" stroke="none" stroke-width="1" fill="none" fill-rule="evenodd">
        <g id="home_economics">
            <rect id="Rectangle-35" fill="#38B88D" x="0" y="0" width="74" height="74"></rect>
            <path d="M58.4495272,41.7429215 C58.4495272,53.2277215 49.1393406,62.5377672 37.6546815,62.5377672 C26.1700225,62.5377672 16.8598358,53.2277215 16.8598358,41.7429215 L58.4495272,41.7429215" id="Fill-4" fill="#FFFFFF"></path>
            <path d="M58.4495272,41.7429215 L57.8857177,41.7429215 C57.8854358,47.3314015 55.6221634,52.385672 51.9602206,56.0484606 C48.297291,59.7105444 43.2431615,61.9738168 37.6546815,61.9740987 C32.0662015,61.9738168 27.012072,59.7105444 23.3491425,56.0484606 C19.6871996,52.385672 17.4239272,47.3314015 17.4236453,41.7429215 L16.8598358,41.7429215 L16.8598358,42.306731 L58.4495272,42.306731 L58.4495272,41.7429215 L57.8857177,41.7429215 L58.4495272,41.7429215 L58.4495272,41.179112 L16.8598358,41.179112 C16.711272,41.179112 16.566091,41.2392987 16.4610815,41.3443082 C16.356213,41.4493177 16.2960263,41.5944987 16.2960263,41.7429215 C16.2957444,47.6392415 18.6875653,52.9824644 22.5517749,56.8458282 C26.4151387,60.7101787 31.7585025,63.1019996 37.6546815,63.1015768 C43.5510015,63.1019996 48.8940834,60.7101787 52.7575882,56.8458282 C56.6217977,52.9824644 59.0136187,47.6392415 59.0133368,41.7429215 C59.0133368,41.5944987 58.953291,41.4493177 58.8481406,41.3443082 C58.743272,41.2392987 58.5979501,41.179112 58.4495272,41.179112 L58.4495272,41.7429215" id="Fill-6" fill="#E4EFF9"></path>
            <path d="M61.6515566,41.7429215 L13.6576937,41.7429215 C12.7495375,41.7429215 12.0133432,41.0067272 12.0133432,40.098571 L12.0133432,39.4425787 C12.0133432,38.5344225 12.7495375,37.7980872 13.6576937,37.7980872 L61.6515566,37.7980872 C62.5598537,37.7980872 63.296048,38.5344225 63.296048,39.4425787 L63.296048,40.098571 C63.296048,41.0067272 62.5598537,41.7429215 61.6515566,41.7429215" id="Fill-8" fill="#FFFFFF"></path>
            <path d="M61.6515566,41.7429215 L61.6515566,41.179112 L13.6576937,41.179112 C13.3576061,41.1788301 13.0910651,41.0591615 12.8935909,40.8626739 C12.6972442,40.6653406 12.5774347,40.3986587 12.5770118,40.098571 L12.5770118,39.4425787 C12.5774347,39.1423501 12.6972442,38.8758091 12.8935909,38.6784758 C13.0910651,38.4819882 13.3576061,38.3621787 13.6576937,38.3618968 L61.6515566,38.3618968 C61.9517851,38.3621787 62.2183261,38.4819882 62.4156594,38.6784758 C62.612147,38.8758091 62.7319566,39.1423501 62.7322385,39.4425787 L62.7322385,40.098571 C62.7319566,40.3986587 62.612147,40.6653406 62.4156594,40.8626739 C62.2183261,41.0591615 61.9517851,41.1788301 61.6515566,41.179112 L61.6515566,41.7429215 L61.6515566,42.306731 C62.2596251,42.307013 62.8152594,42.0587958 63.213027,41.6600415 C63.6117813,41.262133 63.8601394,40.7064987 63.8598575,40.098571 L63.8598575,39.4425787 C63.8601394,38.834651 63.6117813,38.2788758 63.213027,37.8811082 C62.8152594,37.4823539 62.2596251,37.2339958 61.6515566,37.2344187 L13.6576937,37.2344187 C13.0497661,37.2339958 12.4941318,37.4823539 12.0962232,37.8811082 C11.697469,38.2788758 11.4492518,38.834651 11.4495337,39.4425787 L11.4495337,40.098571 C11.4492518,40.7064987 11.697469,41.262133 12.0962232,41.6600415 C12.4941318,42.0587958 13.0497661,42.307013 13.6576937,42.306731 L61.6515566,42.306731 L61.6515566,41.7429215" id="Fill-10" fill="#E4EFF9"></path>
            <path d="M47.6681783,53.6126202 C46.035104,53.6126202 44.5546811,52.991584 43.347424,51.9048411 C42.2484183,50.9156373 41.4201821,49.6832907 40.4522621,48.575264 C39.4094964,47.3815383 38.1545973,46.449984 36.7297097,45.7562164 C35.0560411,44.9413707 33.2121021,44.496525 31.3516716,44.451843 C31.2455345,44.4493059 31.1392564,44.4480373 31.0331192,44.4480373 C27.093923,44.4480373 23.5653211,46.1962697 21.1732183,48.9563992 L21.2181821,48.9563992 C24.2958773,55.9410126 30.3719116,59.8610392 37.6546392,59.8610392 C43.9883345,59.8610392 49.4080945,56.8948373 52.7379535,51.5279345 C51.4354126,52.8163802 49.6450354,53.6126202 47.6681783,53.6126202" id="Fill-12" fill="#B69436"></path>
            <path d="M37.6546392,42.3067874 L17.4313554,42.3067874 C17.4319192,42.3253931 17.4323421,42.3442808 17.4329059,42.3628865 L23.3698202,42.3628865 C23.7378469,43.6376598 24.2146888,44.8667646 24.7892107,46.0387836 C26.6434392,45.0247722 28.7704107,44.447995 31.0331192,44.447995 C31.1392564,44.447995 31.2455345,44.4492636 31.3516716,44.4518008 C33.2121021,44.4964827 35.0560411,44.9413284 36.7297097,45.7561741 C37.0465707,45.910517 37.3549745,46.0765589 37.6546392,46.2545817 L37.6546392,42.3067874" id="Fill-14" fill="#F4F9FD"></path>
            <path id="Fill-16" fill="#E4EFF9"></path>
            <path d="M37.6546392,41.7570731 L16.8597935,41.7570731 C16.8597935,41.9407341 16.8623307,42.1242541 16.8669821,42.3067874 L37.6546392,42.3067874 L37.6546392,41.7570731" id="Fill-18" fill="#E4EFF9"></path>
            <path d="M31.0330629,44.447981 C28.7703543,44.447981 26.6433829,45.0247581 24.7892952,46.0387695 C27.3950819,51.3540838 32.0147962,55.5016076 37.6545829,57.486781 L37.6545829,46.2545676 C37.355059,46.0765448 37.0465143,45.9105029 36.7296533,45.75616 C35.0561257,44.9413143 33.2121867,44.4964686 31.3516152,44.4517867 C31.2454781,44.4492495 31.1392,44.447981 31.0330629,44.447981" id="Fill-20" fill="#C8B884"></path>
            <path d="M37.6546392,38.3619672 L13.6577783,38.3619672 C13.3575497,38.3622491 13.0910088,38.4820587 12.8935345,38.6784053 C12.6971878,38.8757387 12.5773783,39.1424206 12.5770964,39.4426491 L12.5770964,40.0985006 C12.5773783,40.3987291 12.6971878,40.665411 12.8935345,40.8626034 C13.0910088,41.059091 13.3575497,41.1789006 13.6577783,41.1791825 L37.6546392,41.1791825 L37.6546392,38.3619672" id="Fill-22" fill="#F4F9FD"></path>
            <path d="M37.6546392,37.7981013 L13.9856335,37.7981013 C12.8963535,37.7981013 12.0132869,38.681309 12.0132869,39.770589 C12.0132869,40.859869 12.8963535,41.7430766 13.9856335,41.7430766 L37.6546392,41.7430766 L37.6546392,41.1791261 L13.6577783,41.1791261 C13.3575497,41.1788442 13.0910088,41.0591756 12.8935345,40.862688 C12.6971878,40.6653547 12.5773783,40.3986728 12.5770964,40.0985851 L12.5770964,39.4425928 C12.5773783,39.1423642 12.6971878,38.8758232 12.8935345,38.6784899 C13.0910088,38.4820023 13.3575497,38.3621928 13.6577783,38.3619109 L37.6546392,38.3619109 L37.6546392,37.7981013" id="Fill-24" fill="#E4EFF9"></path>
            <path d="M16.3048358,42.3628583 L16.3037082,42.3628583 C16.6023863,53.9295516 26.072413,63.2142259 37.710992,63.2142259 C43.2144777,63.2142259 48.2322415,61.1374335 52.025411,57.725963 C51.9223749,57.7583821 51.8190568,57.7900964 51.7153158,57.8211059 C47.9594987,61.1082564 43.0374415,63.1018869 37.654611,63.101605 L37.6536244,63.101605 C31.7577272,63.101605 26.4149272,60.709925 22.5517044,56.8458564 C18.823373,53.1183707 16.4656625,48.0132164 16.3048358,42.3628583" id="Fill-26" fill="#3CB08B"></path>
            <path d="M49.0836503,58.4388015 C47.8217036,58.656432 46.523955,58.7698987 45.1998484,58.7698987 C44.8185722,58.7698987 44.440397,58.7605958 44.0637722,58.7419901 C42.0814179,59.479171 39.9265379,59.861011 37.6546674,59.861011 L37.6546674,61.9740282 C41.8971931,61.9738872 45.8318789,60.669232 49.0836503,58.4388015" id="Fill-28" fill="#EFF0F2"></path>
            <path d="M16.8685185,42.3628583 L16.3048499,42.3628583 C16.4656766,48.0132164 18.823387,53.1183707 22.5517185,56.8458564 C26.4149413,60.709925 31.7577413,63.101605 37.6536385,63.101605 L37.6546251,63.101605 C43.0374556,63.1018869 47.9595128,61.1082564 51.7153299,57.8211059 C50.8583394,58.0772164 49.9799242,58.2842754 49.083608,58.4387592 C45.8319775,60.6693307 41.8971509,61.973845 37.6546251,61.9739859 L37.6546251,62.5518907 C26.3725147,62.5518907 17.1890442,53.567445 16.8685185,42.3628583" id="Fill-30" fill="#D7E2EC"></path>
            <path d="M37.6546392,57.4868514 L37.6546392,59.8610533 C39.9266507,59.8610533 42.0813897,59.4792133 44.063885,58.7420324 C41.8275345,58.6318076 39.6750507,58.1980971 37.6546392,57.4868514" id="Fill-32" fill="#AE903D"></path>
            <path d="M23.3697779,42.3628583 L17.4330046,42.3628583 C17.5938312,47.7046716 19.8231341,52.5215783 23.3491989,56.0484888 C27.0119874,59.7104316 32.0662579,61.973704 37.654597,61.9739859 L37.654597,59.8609688 C30.3718693,59.8609688 24.295976,55.941083 21.2181398,48.9563288 L21.173176,48.9563288 C22.191275,47.7816316 23.4154465,46.7901726 24.7893093,46.0387554 C24.2146465,44.8668773 23.7378046,43.6376316 23.3697779,42.3628583" id="Fill-34" fill="#E5ECF0"></path>
            <path d="M17.4329623,42.3628583 L16.868448,42.3628583 C17.1889737,53.567445 26.3725851,62.5518907 37.6546956,62.5518907 L37.6546956,61.9739859 C32.0662156,61.973704 27.0120861,59.7104316 23.3491566,56.0484888 C19.8230918,52.5215783 17.593789,47.7046716 17.4329623,42.3628583" id="Fill-36" fill="#D7E2EC"></path>
            <path d="M24.7892389,46.0387977 C23.415376,46.7902149 22.1912046,47.7816739 21.1731055,48.956371 L21.2182103,48.956371 C24.2959055,55.9409844 30.3717989,59.861011 37.6546674,59.861011 L37.6546674,57.4868091 C32.0148808,55.5016358 27.3950255,51.354112 24.7892389,46.0387977" id="Fill-38" fill="#BEB083"></path>
            <path d="M38.907861,30.7888495 C40.1631829,32.989821 41.51844,35.2664838 42.7695333,37.2860495 L43.4892362,37.2860495 C40.8483524,33.0433829 37.9343029,27.9354095 36.6863105,25.3923467 L36.2361086,24.4747467 L36.9263524,25.22856 C39.017381,27.5117067 43.3582914,32.951341 46.4965962,37.2860495 L47.2506914,37.2860495 C45.5422076,34.9121295 43.3006419,31.97144 41.133499,29.2733295 C39.7685162,27.5738667 38.5784552,26.1529257 37.6918648,25.1642857 C37.2150229,24.6323314 36.8283905,24.2285029 36.5429619,23.9642171 C36.3505619,23.7860533 36.0597771,23.5166933 35.8046533,23.5166933 C35.7372781,23.5168343 35.6761048,23.5361448 35.6176095,23.5758933 C35.3256971,23.7747771 35.3918038,24.1831162 36.3461924,26.0813219 C36.9455219,27.2733562 37.8312667,28.9012152 38.907861,30.7888495" id="Fill-40" fill="#F0F8FC"></path>
            <path d="M26.6615939,10.350853 C25.8646491,10.8936606 25.657872,11.9836453 26.2006796,12.7805901 C26.7434872,13.5775349 27.833472,13.784312 28.6304168,13.2415044 C29.4273615,12.6986968 29.6341387,11.608712 29.091331,10.8117672 C28.5485234,10.0148225 27.4585387,9.80804533 26.6615939,10.350853 M29.1735063,14.039013 C27.9367901,14.8812034 26.2455025,14.5603958 25.403171,13.3236796 C24.5608396,12.0869634 24.8817882,10.3956758 26.1185044,9.55334438 C27.3550796,8.7111539 29.0465082,9.03196152 29.8888396,10.2686777 C30.7310301,11.5053939 30.4102225,13.1966815 29.1735063,14.039013" id="Fill-42" fill="#DDE6EF"></path>
            <path d="M36.479773,37.2860495 L37.1313958,37.2860495 C36.6184701,35.7834971 36.1681272,34.1982057 35.8178606,32.6236267 C34.8203406,28.1390857 34.8884206,24.8847771 35.9956015,24.1306819 C36.2452282,23.9606933 36.5812587,23.8744305 36.994531,23.8744305 C38.5001844,23.8744305 41.0577653,25.0286895 44.0112815,27.0413486 C47.668573,29.5335276 51.1575672,32.7967162 52.8997387,35.35472 C53.3392282,36 53.712611,36.645421 54.0220015,37.2860495 L54.7006872,37.2860495 C54.3543672,36.529981 53.9240396,35.7688381 53.4067444,35.0093867 C51.6174949,32.3821752 48.0537958,29.044141 44.3281425,26.5051657 C42.4664434,25.2365943 40.7224396,24.2817829 39.2845844,23.7441905 C38.3696625,23.4019581 37.5769463,23.2285867 36.9282834,23.2285867 L36.9282834,23.1551505 L36.9281425,23.1551505 L36.9281425,23.2285867 C36.3970339,23.2285867 35.9561349,23.3454362 35.6177082,23.5758933 C34.7996206,24.1330781 34.4237006,25.5301981 34.5006606,27.7283505 C34.5669082,29.6237371 34.9686225,31.6686743 35.2023215,32.7189105 C35.5445539,34.2574057 35.9815063,35.8081638 36.479773,37.2860495" id="Fill-44" fill="#F0F8FC"></path>
            <path d="M55.6950358,42.3067874 L55.0541253,42.3067874 C55.049051,42.3652827 55.0448225,42.4237779 55.037493,42.4817093 C54.8883653,43.6544331 54.4587425,44.7239798 53.7752644,45.655957 C53.8725215,45.1596636 53.8956377,44.6141779 53.8389749,44.0226008 C53.7869634,43.4797931 53.6694091,42.9069627 53.4896949,42.3067874 L52.8384949,42.3067874 C53.0331501,42.9196484 53.1585977,43.4976941 53.2099044,44.0333131 C53.3194244,45.1751684 53.0982701,46.1181398 52.5682891,46.8126122 C52.488792,46.2583874 52.2493139,45.5415036 51.8478815,44.6725322 C51.5256644,43.9750998 51.1030891,43.184357 50.5848072,42.3067874 L49.8673596,42.3067874 C50.5599996,43.4587912 51.0987196,44.4732255 51.4567387,45.3069589 C52.0793253,46.7565131 51.9977139,47.2495646 51.9337215,47.3941817 L51.9148339,47.4370312 L51.8842472,47.4595836 L51.852533,47.4795989 L51.8054549,47.4815722 L51.8024949,47.4817131 L51.7927691,47.4817131 C51.6320834,47.4817131 51.1393139,47.3640179 50.038053,46.2733284 C49.132293,45.3761665 48.0259577,44.019077 46.8010815,42.3067874 L46.0485368,42.3067874 C48.1399882,45.2755265 49.8553787,47.183035 51.0303577,47.8586198 C50.7670587,47.9330427 50.4917787,47.9720865 50.2052225,47.9720865 C49.5784072,47.9720865 48.907333,47.7923722 48.2107463,47.4380179 C46.6146015,46.6262731 44.8830015,44.8932636 43.2027082,42.4260331 C43.176491,42.3875531 43.1497101,42.3469589 43.1230701,42.3067874 L42.3875806,42.3067874 C42.4914625,42.4667684 42.5944987,42.6228027 42.6955615,42.7715074 C44.4693063,45.3756027 46.2440377,47.1414541 47.9704225,48.0195874 C48.4998396,48.2889474 49.0171349,48.4680979 49.516952,48.559576 C48.951592,48.7085627 48.3756606,48.784677 47.7916949,48.784677 C47.2280263,48.784677 46.6581558,48.7126503 46.0975882,48.5704293 C43.949333,48.0253665 41.9268072,46.4348598 40.2486282,43.9711531 C39.9165444,43.483317 39.5837558,42.923877 39.2560415,42.3067874 L38.5646701,42.3067874 C38.9517253,43.0586274 39.3469558,43.7368903 39.7417634,44.3164865 C41.5197368,46.9270655 43.6825101,48.6172255 45.9961025,49.2042922 C46.6109368,49.3603265 47.234792,49.4394008 47.850331,49.4394008 C49.3893901,49.4394008 50.8737596,48.9598808 52.2621406,48.0142312 C54.2077063,46.6892789 55.3840949,44.8237741 55.6644491,42.6192789 C55.6775577,42.5158198 55.6865787,42.4113741 55.6950358,42.3067874" id="Fill-46" fill="#E8ECED"></path>
            <path id="Fill-48" fill="#DAE3EB"></path>
            <path d="M37.1180335,31.7118903 C37.8552145,33.5868389 38.7098088,35.5060465 39.5885059,37.2859931 L40.2742392,37.2859931 C39.3641097,35.4615055 38.4741364,33.4742179 37.7100335,31.5330217 C36.9218278,29.5306522 36.3488564,27.7750903 36.0528564,26.4560579 C35.6173135,24.5152846 35.9264221,24.1800998 35.9928107,24.1325989 C36.0459497,24.0962331 36.1138888,24.078896 36.1974735,24.078896 C36.8988526,24.078896 38.8613326,25.2141265 42.2656145,28.4002141 C45.3327383,31.2705684 48.4152259,34.723056 50.2065897,37.2859931 L50.9499726,37.2859931 C50.9286888,37.2545608 50.9088145,37.2236922 50.8873897,37.1922598 C49.098563,34.5658941 45.872445,30.931437 42.6684564,27.932816 C41.0644183,26.4318141 39.6104945,25.2313227 38.4637059,24.4612998 C37.4322164,23.7688008 36.6686773,23.4322065 36.1293935,23.4322065 C35.9271269,23.4322065 35.7596754,23.4792846 35.6175954,23.5759779 C35.1249669,23.9114446 35.0642164,24.8769684 35.4318202,26.5275208 C35.7328945,27.8789722 36.3158735,29.6717455 37.1180335,31.7118903" id="Fill-50" fill="#F0F8FC"></path>
            <path d="M36.8850674,23.5363421 L35.1880008,24.6921516 C34.9323131,24.8663688 34.5840198,24.8002621 34.4098027,24.5445745 L28.0162027,15.1571459 C27.8421265,14.9015992 27.9082331,14.553165 28.1639208,14.3790888 L29.8609874,13.2231383 C30.1165341,13.0490621 30.4649684,13.1151688 30.6390446,13.3708564 L37.0326446,22.758144 C37.2068617,23.0138316 37.140755,23.3622659 36.8850674,23.5363421" id="Fill-52" fill="#4A90E2"></path>
            <path d="M29.0177398,13.797477 L28.1831608,14.3659379 C27.9167608,14.5473436 27.847976,14.910155 28.0293817,15.1764141 L34.3967646,24.5253627 C34.5780293,24.7916217 34.9409817,24.8604065 35.2072408,24.6790008 L36.0694465,24.0917931 L29.0177398,13.797477 Z" id="Fill-54" fill="#2F75B5"></path>
        </g>
    </g>
</svg>