<?xml version="1.0" encoding="UTF-8" standalone="no"?>
<svg width="74px" height="74px" viewBox="0 0 74 74" version="1.1" xmlns="http://www.w3.org/2000/svg" xmlns:xlink="http://www.w3.org/1999/xlink">
    <!-- Generator: Sketch 3.8.3 (29802) - http://www.bohemiancoding.com/sketch -->
    <title>literature</title>
    <desc>Created with Sketch.</desc>
    <defs></defs>
    <g id="Page-1" stroke="none" stroke-width="1" fill="none" fill-rule="evenodd">
        <g id="literature">
            <rect id="Rectangle-36" fill="#38B88D" x="0" y="0" width="74" height="74"></rect>
            <path d="M62.7444168,22.7899288 L36.9763482,22.8119173 L11.2082796,22.7899288 C10.7890872,22.7899288 10.4558758,23.1418869 10.4787101,23.5605154 L11.0454796,51.5588735 C11.0912891,52.3973992 11.7846339,53.0538145 12.6242872,53.0538145 L36.7776053,53.0538145 L37.175091,53.0538145 L61.3284091,53.0538145 C62.1682034,53.0538145 62.8614072,52.3973992 62.9072168,51.5588735 L63.4739863,23.5605154 C63.4968206,23.1418869 63.1636091,22.7899288 62.7444168,22.7899288" id="Fill-4" fill="#5D60A5"></path>
            <path d="M41.8473524,49.3137699 C41.8473524,52.003987 39.6665371,54.1848023 36.97632,54.1848023 C34.2862438,54.1848023 32.1054286,52.003987 32.1054286,49.3137699 C32.1054286,46.6235528 34.2862438,44.4427375 36.97632,44.4427375 C39.6665371,44.4427375 41.8473524,46.6235528 41.8473524,49.3137699" id="Fill-6" fill="#6E61A9"></path>
            <path d="M40.1773063,49.3137699 C40.1773063,51.0815947 38.7442434,52.5146575 36.9764187,52.5146575 C35.2085939,52.5146575 33.7753901,51.0815947 33.7753901,49.3137699 C33.7753901,47.5459451 35.2085939,46.1128823 36.9764187,46.1128823 C38.7442434,46.1128823 40.1773063,47.5459451 40.1773063,49.3137699" id="Fill-8" fill="#111E2A"></path>
            <path id="Fill-10" fill="#FFFFFF"></path>
            <path id="Fill-12" fill="#E4EFF9"></path>
            <polygon id="Fill-14" fill="#D4E4F3" points="37.175091 22.1524716 13.057011 22.1524716 13.9615025 50.6889859 37.175091 50.6889859"></polygon>
            <polygon id="Fill-16" fill="#D4E4F3" points="36.7776476 22.1524716 60.8957276 22.1524716 59.9912362 50.6889859 36.7776476 50.6889859"></polygon>
            <path d="M37.0227497,20.2728152 C35.7858926,19.400461 27.4756221,14.0797905 16.8624716,20.38896 C16.8624716,20.38896 14.431325,21.9866552 12.9046697,20.38896 C12.9046697,20.38896 13.4418392,48.4146629 13.685405,51.0243962 C14.925645,51.1051619 16.1202164,50.3214667 16.1202164,50.3214667 C26.7710011,43.9900267 35.7365592,49.6439086 37.0227497,50.5709524 L37.0227497,20.2728152 Z" id="Fill-18" fill="#FFFFFF"></path>
            <path d="M36.9299749,20.2728152 C38.166832,19.400461 46.4771025,14.0797905 57.090253,20.38896 C57.090253,20.38896 59.5213996,21.9866552 61.0480549,20.38896 C61.0480549,20.38896 60.5108853,48.4146629 60.2673196,51.0243962 C59.0270796,51.1051619 57.8325082,50.3214667 57.8325082,50.3214667 C47.1817234,43.9900267 38.2161653,49.6439086 36.9299749,50.5709524 L36.9299749,20.2728152 Z" id="Fill-20" fill="#FFFFFF"></path>
            <path d="M45.7374408,48.4403162 C42.1272274,48.4403162 38.9082979,49.3181676 36.8119131,50.6890705 L54.6629684,50.6890705 C52.5665836,49.3181676 49.3476541,48.4403162 45.7374408,48.4403162" id="Fill-22" fill="#ABD1E8"></path>
            <path d="M37.2817356,50.6890564 L49.6336747,50.6890564 C48.8002232,50.1773992 46.3507528,49.8066945 43.4577051,49.8066945 C40.5646575,49.8066945 38.115187,50.1773992 37.2817356,50.6890564" id="Fill-24" fill="#94BDDC"></path>
            <path d="M28.050891,48.4403162 C31.6611044,48.4403162 34.8800339,49.3181676 36.9764187,50.6890705 L19.1253634,50.6890705 C21.2217482,49.3181676 24.4406777,48.4403162 28.050891,48.4403162" id="Fill-26" fill="#ABD1E8"></path>
            <path d="M36.5065962,50.6890564 L24.1546571,50.6890564 C24.9881086,50.1773992 27.437579,49.8066945 30.3306267,49.8066945 C33.2236743,49.8066945 35.6731448,50.1773992 36.5065962,50.6890564" id="Fill-28" fill="#94BDDC"></path>
            <path d="M37.2344461,20.0867017 L37.2044232,20.0867017 C37.1150594,20.1453379 37.0385223,20.1972084 36.9763623,20.2404808 C36.9142023,20.1972084 36.8376651,20.1453379 36.7483013,20.0867017 L36.7182785,20.0867017 L36.7182785,50.3625684 C36.7986213,50.4154255 36.8702251,50.4637722 36.929989,50.5053531 L36.929989,50.570896 C36.9440842,50.5607474 36.9604347,50.5491893 36.9763623,50.5379131 C36.9924309,50.5491893 37.0086404,50.5607474 37.0227356,50.570896 L37.0227356,50.5053531 C37.0824994,50.4637722 37.1541032,50.4154255 37.2344461,50.3625684 L37.2344461,20.0867017 Z" id="Fill-30" fill="#D4E4F3"></path>
            <path d="M33.4958251,29.2089566 L31.1423432,28.6915204 C30.9961756,28.6593832 30.8497261,28.6289375 30.7029947,28.6004651 C28.3450023,28.141947 25.915829,28.1970594 23.562347,28.6782709 L18.1924842,29.7765718 C18.0002251,29.8158975 17.8622328,29.9848994 17.8622328,30.1811051 L17.8622328,30.1837832 C17.8622328,30.445109 18.1018518,30.6407509 18.3579623,30.5884575 L23.562347,29.5239851 C25.915829,29.0427737 28.3450023,28.9876613 30.7029947,29.4461794 C30.8497261,29.4746518 30.9961756,29.5050975 31.1423432,29.5372347 L33.318507,30.015627 C33.576168,30.0722899 33.8201566,29.8760842 33.8201566,29.6123623 C33.8201566,29.4184118 33.6852651,29.2506785 33.4958251,29.2089566" id="Fill-32" fill="#BCCFDF"></path>
            <path d="M33.4958251,33.1873234 L31.1423432,32.6698872 C30.9961756,32.6377501 30.8497261,32.6073044 30.7029947,32.578832 C28.3450023,32.120173 25.915829,32.1754263 23.562347,32.6566377 L18.1924842,33.7549387 C18.0002251,33.7942644 17.8622328,33.9632663 17.8622328,34.159472 L17.8622328,34.1621501 C17.8622328,34.4234758 18.1018518,34.6191177 18.3579623,34.5668244 L23.562347,33.502352 C25.915829,33.0211406 28.3450023,32.9658872 30.7029947,33.4245463 C30.8497261,33.4530187 30.9961756,33.4834644 31.1423432,33.5156015 L33.318507,33.9939939 C33.576168,34.0506568 33.8201566,33.854451 33.8201566,33.5907291 C33.8201566,33.3967787 33.6852651,33.2289044 33.4958251,33.1873234" id="Fill-34" fill="#BCCFDF"></path>
            <path d="M33.4958251,37.1657185 L31.1423432,36.6482823 C30.9961756,36.6161451 30.8497261,36.5856994 30.7029947,36.557227 C28.3450023,36.098568 25.915829,36.1538213 23.562347,36.6350328 L18.1924842,37.7333337 C18.0002251,37.7726594 17.8622328,37.9416613 17.8622328,38.137867 L17.8622328,38.1405451 C17.8622328,38.4018709 18.1018518,38.5975128 18.3579623,38.5452194 L23.562347,37.480747 C25.915829,36.9995356 28.3450023,36.9442823 30.7029947,37.4029413 C30.8497261,37.4314137 30.9961756,37.4618594 31.1423432,37.4939966 L33.318507,37.972389 C33.576168,38.0290518 33.8201566,37.8328461 33.8201566,37.5691242 C33.8201566,37.3751737 33.6852651,37.2072994 33.4958251,37.1657185" id="Fill-36" fill="#BCCFDF"></path>
            <path d="M33.4958251,41.1440994 L31.1423432,40.6266632 C30.9961756,40.5945261 30.8497261,40.5640804 30.7029947,40.535608 C28.3450023,40.0770899 25.915829,40.1322023 23.562347,40.6134137 L18.1924842,41.7117147 C18.0002251,41.7510404 17.8622328,41.9200423 17.8622328,42.116248 L17.8622328,42.1189261 C17.8622328,42.3802518 18.1018518,42.5758937 18.3579623,42.5236004 L23.562347,41.459128 C25.915829,40.9779166 28.3450023,40.9228042 30.7029947,41.3813223 C30.8497261,41.4097947 30.9961756,41.4402404 31.1423432,41.4723775 L33.318507,41.9507699 C33.576168,42.0074328 33.8201566,41.811368 33.8201566,41.5475051 C33.8201566,41.3535547 33.6852651,41.1858213 33.4958251,41.1440994" id="Fill-38" fill="#BCCFDF"></path>
            <path d="M55.9329634,25.7981486 L50.5631006,24.6999886 C48.2096187,24.2186362 45.7803044,24.1635238 43.422453,24.6220419 C43.2757215,24.6506552 43.129131,24.68096 42.9831044,24.7130971 L40.6296225,25.2305333 C40.4401825,25.2722552 40.305291,25.4399886 40.305291,25.633939 C40.305291,25.8978019 40.5492796,26.0940076 40.8069406,26.0373448 L42.9831044,25.5588114 C43.129131,25.5266743 43.2757215,25.4963695 43.422453,25.4677562 C45.7803044,25.0092381 48.2096187,25.0643505 50.5631006,25.5457029 L55.7674853,26.6100343 C56.0234549,26.6623276 56.2632149,26.4666857 56.2632149,26.20536 L56.2632149,26.2026819 C56.2632149,26.0066171 56.1252225,25.8374743 55.9329634,25.7981486" id="Fill-40" fill="#BCCFDF"></path>
            <path d="M55.9329634,29.7765295 L50.5631006,28.6783695 C48.2096187,28.1970171 45.7803044,28.1419048 43.422453,28.6004229 C43.2757215,28.6290362 43.129131,28.659341 42.9831044,28.6914781 L40.6296225,29.2089143 C40.4401825,29.2506362 40.305291,29.4183695 40.305291,29.61232 C40.305291,29.8761829 40.5492796,30.0723886 40.8069406,30.0157257 L42.9831044,29.5371924 C43.129131,29.5050552 43.2757215,29.4747505 43.422453,29.4461371 C45.7803044,28.987619 48.2096187,29.0427314 50.5631006,29.5240838 L55.7674853,30.5884152 C56.0234549,30.6407086 56.2632149,30.4450667 56.2632149,30.183741 L56.2632149,30.1812038 C56.2632149,29.9849981 56.1252225,29.8158552 55.9329634,29.7765295" id="Fill-42" fill="#BCCFDF"></path>
            <path d="M55.9329634,33.7549246 L50.5631006,32.6567646 C48.2096187,32.1754122 45.7803044,32.1202998 43.422453,32.5788179 C43.2757215,32.6074312 43.129131,32.637736 42.9831044,32.6698731 L40.6296225,33.1873093 C40.4401825,33.2290312 40.305291,33.3967646 40.305291,33.590715 C40.305291,33.8545779 40.5492796,34.0506427 40.8069406,33.9941208 L42.9831044,33.5155874 C43.129131,33.4834503 43.2757215,33.4531455 43.422453,33.4245322 C45.7803044,32.9660141 48.2096187,33.0211265 50.5631006,33.5024789 L55.7674853,34.5668103 C56.0234549,34.6191036 56.2632149,34.4234617 56.2632149,34.162136 L56.2632149,34.1595989 C56.2632149,33.9633931 56.1252225,33.7942503 55.9329634,33.7549246" id="Fill-44" fill="#BCCFDF"></path>
            <path d="M55.9329634,37.7333055 L50.5631006,36.6351455 C48.2096187,36.1537931 45.7803044,36.0986808 43.422453,36.5571989 C43.2757215,36.5858122 43.129131,36.616117 42.9831044,36.6482541 L40.6296225,37.1656903 C40.4401825,37.2074122 40.305291,37.3751455 40.305291,37.569096 C40.305291,37.8329589 40.5492796,38.0291646 40.8069406,37.9725017 L42.9831044,37.4939684 C43.129131,37.4618312 43.2757215,37.4315265 43.422453,37.4029131 C45.7803044,36.944395 48.2096187,36.9995074 50.5631006,37.4808598 L55.7674853,38.5451912 C56.0234549,38.5974846 56.2632149,38.4018427 56.2632149,38.140517 L56.2632149,38.1378389 C56.2632149,37.9417741 56.1252225,37.7726312 55.9329634,37.7333055" id="Fill-46" fill="#BCCFDF"></path>
            <path d="M52.4955436,29.5774202 L52.4955436,17.3581173 C50.7660579,16.7785211 49.128896,16.4861859 47.6091474,16.394003 L47.6091474,29.5774202 L50.052416,28.1678964 L52.4955436,29.5774202 Z" id="Fill-48" fill="#4A90E2"></path>
            <path d="M47.6151097,16.3940594 L47.6151097,29.5774766 L50.0582373,28.1679528 L50.0582373,16.7097928 C49.2150602,16.5437509 48.3992278,16.4415604 47.6151097,16.3940594" id="Fill-50" fill="#2F75B5"></path>
        </g>
    </g>
</svg>