<?xml version="1.0" encoding="UTF-8" standalone="no"?>
<svg width="74px" height="74px" viewBox="0 0 74 74" version="1.1" xmlns="http://www.w3.org/2000/svg" xmlns:xlink="http://www.w3.org/1999/xlink">
    <!-- Generator: Sketch 3.8.3 (29802) - http://www.bohemiancoding.com/sketch -->
    <title>math</title>
    <desc>Created with Sketch.</desc>
    <defs></defs>
    <g id="Page-1" stroke="none" stroke-width="1" fill="none" fill-rule="evenodd">
        <g id="math">
            <rect id="Rectangle-36" fill="#38B88D" x="0" y="0" width="74" height="74"></rect>
            <path d="M50.6276427,60.4742949 L23.3251665,60.4742949 C20.9945189,60.4742949 19.1053341,58.5849691 19.1053341,56.2544625 L19.1053341,15.9802796 C19.1053341,13.649773 20.9945189,11.7604472 23.3251665,11.7604472 L50.6276427,11.7604472 C52.9581493,11.7604472 54.847475,13.649773 54.847475,15.9802796 L54.847475,56.2544625 C54.847475,58.5849691 52.9581493,60.4742949 50.6276427,60.4742949" id="Fill-4" fill="#1C2A47"></path>
            <path d="M36.9763482,11.760419 L23.3559787,11.760419 C21.0084168,11.760419 19.1052777,13.6635581 19.1052777,16.01112 L19.1052777,56.2235657 C19.1052777,58.5712686 21.0084168,60.4742667 23.3559787,60.4742667 L36.9763482,60.4742667 L36.9763482,11.760419 Z" id="Fill-6" fill="#162237"></path>
            <path d="M49.5920373,25.7591752 L24.3607154,25.7591752 C23.6655383,25.7591752 23.1021516,25.1956476 23.1021516,24.5006114 L23.1021516,17.4558114 C23.1021516,16.7606343 23.6655383,16.1971067 24.3607154,16.1971067 L49.5920373,16.1971067 C50.2872145,16.1971067 50.8506011,16.7606343 50.8506011,17.4558114 L50.8506011,24.5006114 C50.8506011,25.1956476 50.2872145,25.7591752 49.5920373,25.7591752" id="Fill-8" fill="#DEE8F1"></path>
            <path d="M29.5543314,34.3812606 L23.8267314,34.3812606 C23.4265676,34.3812606 23.1020952,34.0567882 23.1020952,33.6566244 L23.1020952,30.872392 C23.1020952,30.4722282 23.4265676,30.1477558 23.8267314,30.1477558 L29.5543314,30.1477558 C29.9544952,30.1477558 30.2789676,30.4722282 30.2789676,30.872392 L30.2789676,33.6566244 C30.2789676,34.0567882 29.9544952,34.3812606 29.5543314,34.3812606" id="Fill-10" fill="#A6C744"></path>
            <path d="M50.125979,34.3812606 L44.398379,34.3812606 C43.9982152,34.3812606 43.6737429,34.0567882 43.6737429,33.6566244 L43.6737429,30.872392 C43.6737429,30.4722282 43.9982152,30.1477558 44.398379,30.1477558 L50.125979,30.1477558 C50.5261429,30.1477558 50.8506152,30.4722282 50.8506152,30.872392 L50.8506152,33.6566244 C50.8506152,34.0567882 50.5261429,34.3812606 50.125979,34.3812606" id="Fill-12" fill="#5588C6"></path>
            <path d="M29.5543314,41.5946114 L23.8267314,41.5946114 C23.4265676,41.5946114 23.1020952,41.270139 23.1020952,40.8699752 L23.1020952,38.0857429 C23.1020952,37.685579 23.4265676,37.3611067 23.8267314,37.3611067 L29.5543314,37.3611067 C29.9544952,37.3611067 30.2789676,37.685579 30.2789676,38.0857429 L30.2789676,40.8699752 C30.2789676,41.270139 29.9544952,41.5946114 29.5543314,41.5946114" id="Fill-14" fill="#3875B5"></path>
            <path d="M50.125979,41.5946114 L44.398379,41.5946114 C43.9982152,41.5946114 43.6737429,41.270139 43.6737429,40.8699752 L43.6737429,38.0857429 C43.6737429,37.685579 43.9982152,37.3611067 44.398379,37.3611067 L50.125979,37.3611067 C50.5261429,37.3611067 50.8506152,37.685579 50.8506152,38.0857429 L50.8506152,40.8699752 C50.8506152,41.270139 50.5261429,41.5946114 50.125979,41.5946114" id="Fill-16" fill="#5588C6"></path>
            <path d="M29.5543314,48.8079764 L23.8267314,48.8079764 C23.4265676,48.8079764 23.1020952,48.483504 23.1020952,48.0833402 L23.1020952,45.2991078 C23.1020952,44.898944 23.4265676,44.5744716 23.8267314,44.5744716 L29.5543314,44.5744716 C29.9544952,44.5744716 30.2789676,44.898944 30.2789676,45.2991078 L30.2789676,48.0833402 C30.2789676,48.483504 29.9544952,48.8079764 29.5543314,48.8079764" id="Fill-18" fill="#3875B5"></path>
            <path d="M29.5543314,56.0052869 L23.8267314,56.0052869 C23.4265676,56.0052869 23.1020952,55.6808145 23.1020952,55.2806507 L23.1020952,52.4964183 C23.1020952,52.0962545 23.4265676,51.7717821 23.8267314,51.7717821 L29.5543314,51.7717821 C29.9544952,51.7717821 30.2789676,52.0962545 30.2789676,52.4964183 L30.2789676,55.2806507 C30.2789676,55.6808145 29.9544952,56.0052869 29.5543314,56.0052869" id="Fill-20" fill="#3875B5"></path>
            <path d="M40.0840663,30.147784 L33.8686301,30.147784 C33.6032168,30.147784 33.3879825,30.3630183 33.3879825,30.6285726 L33.3879825,33.9005002 C33.3879825,34.1660545 33.6032168,34.3812888 33.8686301,34.3812888 L40.0840663,34.3812888 C40.3496206,34.3812888 40.5648549,34.1660545 40.5648549,33.9005002 L40.5648549,30.6285726 C40.5648549,30.3630183 40.3496206,30.147784 40.0840663,30.147784" id="Fill-22" fill="#5588C6"></path>
            <path d="M40.0840663,37.3611349 L33.8686301,37.3611349 C33.6032168,37.3611349 33.3879825,37.5763691 33.3879825,37.8419234 L33.3879825,41.113851 C33.3879825,41.3794053 33.6032168,41.5946396 33.8686301,41.5946396 L40.0840663,41.5946396 C40.3496206,41.5946396 40.5648549,41.3794053 40.5648549,41.113851 L40.5648549,37.8419234 C40.5648549,37.5763691 40.3496206,37.3611349 40.0840663,37.3611349" id="Fill-24" fill="#5588C6"></path>
            <path d="M40.0840663,44.5744998 L33.8686301,44.5744998 C33.6032168,44.5744998 33.3879825,44.7897341 33.3879825,45.0552884 L33.3879825,48.327216 C33.3879825,48.5927703 33.6032168,48.8080046 33.8686301,48.8080046 L40.0840663,48.8080046 C40.3496206,48.8080046 40.5648549,48.5927703 40.5648549,48.327216 L40.5648549,45.0552884 C40.5648549,44.7897341 40.3496206,44.5744998 40.0840663,44.5744998" id="Fill-26" fill="#5588C6"></path>
            <path d="M40.0840663,51.7718103 L33.8686301,51.7718103 C33.6032168,51.7718103 33.3879825,51.9870446 33.3879825,52.2525989 L33.3879825,55.5245265 C33.3879825,55.7900808 33.6032168,56.005315 33.8686301,56.005315 L40.0840663,56.005315 C40.3496206,56.005315 40.5648549,55.7900808 40.5648549,55.5245265 L40.5648549,52.2525989 C40.5648549,51.9870446 40.3496206,51.7718103 40.0840663,51.7718103" id="Fill-28" fill="#5588C6"></path>
            <path d="M50.125979,56.0052869 L44.398379,56.0052869 C43.9982152,56.0052869 43.6737429,55.6808145 43.6737429,55.2806507 L43.6737429,45.2991078 C43.6737429,44.898944 43.9982152,44.5744716 44.398379,44.5744716 L50.125979,44.5744716 C50.5261429,44.5744716 50.8506152,44.898944 50.8506152,45.2991078 L50.8506152,55.2806507 C50.8506152,55.6808145 50.5261429,56.0052869 50.125979,56.0052869" id="Fill-30" fill="#F06924"></path>
            <path d="M49.5920373,16.197149 L36.9763764,16.197149 L36.9763764,25.7592175 L49.5920373,25.7592175 C50.2870735,25.7592175 50.8506011,25.1956899 50.8506011,24.5005128 L50.8506011,17.4557128 C50.8506011,16.7606766 50.2870735,16.197149 49.5920373,16.197149" id="Fill-32" fill="#FFFFFF"></path>
            <path d="M33.8686442,34.3812606 L36.9763623,34.3812606 L36.9763623,30.1477558 L33.8686442,30.1477558 C33.6030899,30.1477558 33.3878556,30.3629901 33.3878556,30.6285444 L33.3878556,33.900472 C33.3878556,34.1660263 33.6030899,34.3812606 33.8686442,34.3812606" id="Fill-34" fill="#3875B5"></path>
            <path d="M33.8686442,41.5946114 L36.9763623,41.5946114 L36.9763623,37.3611067 L33.8686442,37.3611067 C33.6030899,37.3611067 33.3878556,37.576341 33.3878556,37.8418952 L33.3878556,41.1138229 C33.3878556,41.3793771 33.6030899,41.5946114 33.8686442,41.5946114" id="Fill-36" fill="#3875B5"></path>
            <path d="M33.8686442,48.8079764 L36.9763623,48.8079764 L36.9763623,44.5744716 L33.8686442,44.5744716 C33.6030899,44.5744716 33.3878556,44.7897059 33.3878556,45.0552602 L33.3878556,48.3271878 C33.3878556,48.5927421 33.6030899,48.8079764 33.8686442,48.8079764" id="Fill-38" fill="#3875B5"></path>
            <path d="M33.8686442,56.0052869 L36.9763623,56.0052869 L36.9763623,51.7717821 L33.8686442,51.7717821 C33.6030899,51.7717821 33.3878556,51.9870164 33.3878556,52.2525707 L33.3878556,55.5244983 C33.3878556,55.7900526 33.6030899,56.0052869 33.8686442,56.0052869" id="Fill-40" fill="#3875B5"></path>
            <path d="M49.0134137,49.7388823 L45.511029,49.7388823 C45.3162328,49.7388823 45.1582251,49.5810156 45.1582251,49.3862194 L45.1582251,49.3435109 C45.1582251,49.1487147 45.3162328,48.990848 45.511029,48.990848 L49.0134137,48.990848 C49.2082099,48.990848 49.3660766,49.1487147 49.3660766,49.3435109 L49.3660766,49.3862194 C49.3660766,49.5810156 49.2082099,49.7388823 49.0134137,49.7388823" id="Fill-42" fill="#FFFFFF"></path>
            <path d="M46.090019,40.1210952 L47.9054857,38.3056286 C48.0431962,38.1679181 48.2664648,38.1679181 48.4041752,38.3056286 L48.434339,38.3357924 C48.5720495,38.4736438 48.5720495,38.6969124 48.434339,38.8346229 L46.6190133,40.6500895 C46.4813029,40.7878 46.2578933,40.7878 46.1201829,40.6500895 L46.090019,40.6199257 C45.9523086,40.4822152 45.9523086,40.2588057 46.090019,40.1210952" id="Fill-44" fill="#FFFFFF"></path>
            <path d="M46.618971,38.305699 L48.4344377,40.1211657 C48.5721482,40.2588762 48.5721482,40.4821448 48.4344377,40.6198552 L48.4042739,40.650019 C48.2664225,40.7877295 48.0431539,40.7877295 47.9054434,40.650019 L46.0899768,38.8346933 C45.9522663,38.6969829 45.9522663,38.4735733 46.0899768,38.3358629 L46.1201406,38.305699 C46.257851,38.1679886 46.4812606,38.1679886 46.618971,38.305699" id="Fill-46" fill="#FFFFFF"></path>
            <path d="M46.8881619,33.5481897 L46.8881619,30.980883 C46.8881619,30.7860869 47.0460286,30.6280792 47.2408248,30.6280792 L47.2835333,30.6280792 C47.4783295,30.6280792 47.6361962,30.7860869 47.6361962,30.980883 L47.6361962,33.5481897 C47.6361962,33.7429859 47.4783295,33.9008526 47.2835333,33.9008526 L47.2408248,33.9008526 C47.0460286,33.9008526 46.8881619,33.7429859 46.8881619,33.5481897" id="Fill-48" fill="#FFFFFF"></path>
            <path d="M45.9785116,31.890491 L48.5458183,31.890491 C48.7406145,31.890491 48.8986221,32.0483577 48.8986221,32.2431539 L48.8986221,32.2858625 C48.8986221,32.4806587 48.7406145,32.6385253 48.5458183,32.6385253 L45.9785116,32.6385253 C45.7837154,32.6385253 45.6258488,32.4806587 45.6258488,32.2858625 L45.6258488,32.2431539 C45.6258488,32.0483577 45.7837154,31.890491 45.9785116,31.890491" id="Fill-50" fill="#FFFFFF"></path>
            <path d="M35.6926808,31.890491 L38.2599874,31.890491 C38.4547836,31.890491 38.6127912,32.0483577 38.6127912,32.2431539 L38.6127912,32.2858625 C38.6127912,32.4806587 38.4547836,32.6385253 38.2599874,32.6385253 L35.6926808,32.6385253 C35.4978846,32.6385253 35.3400179,32.4806587 35.3400179,32.2858625 L35.3400179,32.2431539 C35.3400179,32.0483577 35.4978846,31.890491 35.6926808,31.890491" id="Fill-52" fill="#FFFFFF"></path>
            <path d="M38.2600438,39.103856 L35.6927371,39.103856 C35.497941,39.103856 35.3399333,39.2617227 35.3399333,39.4565189 L35.3399333,39.4992274 C35.3399333,39.6940236 35.497941,39.8518903 35.6927371,39.8518903 L38.2600438,39.8518903 C38.45484,39.8518903 38.6127067,39.6940236 38.6127067,39.4992274 L38.6127067,39.4565189 C38.6127067,39.2617227 38.45484,39.103856 38.2600438,39.103856" id="Fill-54" fill="#FFFFFF"></path>
            <path d="M49.0134137,51.6090244 L45.511029,51.6090244 C45.3162328,51.6090244 45.1582251,51.4511577 45.1582251,51.2563615 L45.1582251,51.213653 C45.1582251,51.0188568 45.3162328,50.8609901 45.511029,50.8609901 L49.0134137,50.8609901 C49.2082099,50.8609901 49.3660766,51.0188568 49.3660766,51.213653 L49.3660766,51.2563615 C49.3660766,51.4511577 49.2082099,51.6090244 49.0134137,51.6090244" id="Fill-56" fill="#FFFFFF"></path>
            <path d="M37.3286728,40.8129882 C37.3286728,41.0075025 37.170947,41.1653691 36.9762918,41.1653691 C36.7817775,41.1653691 36.6240518,41.0075025 36.6240518,40.8129882 C36.6240518,40.6184739 36.7817775,40.4606072 36.9762918,40.4606072 C37.170947,40.4606072 37.3286728,40.6184739 37.3286728,40.8129882" id="Fill-58" fill="#FFFFFF"></path>
            <path d="M37.3286728,38.1427581 C37.3286728,38.3372724 37.170947,38.495139 36.9762918,38.495139 C36.7817775,38.495139 36.6240518,38.3372724 36.6240518,38.1427581 C36.6240518,37.9482438 36.7817775,37.7903771 36.9762918,37.7903771 C37.170947,37.7903771 37.3286728,37.9482438 37.3286728,38.1427581" id="Fill-60" fill="#FFFFFF"></path>
            <path d="M35.5693897,23.4243131 L35.5693897,19.4896274 L34.9346811,20.1357531 C34.7204335,20.3538065 34.3681935,20.3511284 34.1573288,20.1298331 C33.9550621,19.9175589 33.9587269,19.5829379 34.165504,19.3751741 L35.6284488,17.9051817 C35.6972335,17.836115 35.790685,17.7973531 35.888083,17.7973531 L36.3866316,17.7973531 C36.6605021,17.7973531 36.8825021,18.0193531 36.8825021,18.2930827 L36.8825021,23.4243131 C36.8825021,23.7229912 36.6403459,23.9651474 36.3416678,23.9651474 L36.110224,23.9651474 C35.8115459,23.9651474 35.5693897,23.7229912 35.5693897,23.4243131" id="Fill-62" fill="#000000"></path>
            <path d="M42.5206819,20.8859158 C42.5206819,19.7484301 42.1970552,18.8700149 41.3093371,18.8700149 C40.430781,18.8700149 40.0978514,19.7484301 40.0978514,20.8859158 C40.0978514,22.0232606 40.430781,22.9109787 41.3093371,22.9109787 C42.1877524,22.9109787 42.5206819,22.0232606 42.5206819,20.8859158 M38.7571124,20.8859158 C38.7571124,19.2954091 39.5430629,17.7049025 41.3093371,17.7049025 C43.0754705,17.7049025 43.861421,19.2954091 43.861421,20.8859158 C43.861421,22.4764225 43.0754705,24.076232 41.3093371,24.076232 C39.5430629,24.076232 38.7571124,22.4764225 38.7571124,20.8859158" id="Fill-64" fill="#000000"></path>
            <path d="M46.8446922,23.4243131 L46.8446922,19.4896274 L46.2099836,20.1357531 C45.995736,20.3538065 45.643496,20.3511284 45.4326312,20.1298331 C45.2303646,19.9175589 45.2340293,19.5829379 45.4408065,19.3751741 L46.9037512,17.9051817 C46.972536,17.836115 47.0659874,17.7973531 47.1633855,17.7973531 L47.6619341,17.7973531 C47.9358046,17.7973531 48.1578046,18.0193531 48.1578046,18.2930827 L48.1578046,23.4243131 C48.1578046,23.7229912 47.9156484,23.9651474 47.6169703,23.9651474 L47.3855265,23.9651474 C47.0868484,23.9651474 46.8446922,23.7229912 46.8446922,23.4243131" id="Fill-66" fill="#000000"></path>
            <path d="M27.7089547,19.0309966 C27.7089547,19.9132175 26.9937623,20.6284099 26.1115413,20.6284099 C25.2291794,20.6284099 24.513987,19.9132175 24.513987,19.0309966 C24.513987,18.1487756 25.2291794,17.4335832 26.1115413,17.4335832 C26.9937623,17.4335832 27.7089547,18.1487756 27.7089547,19.0309966" id="Fill-68" fill="#A6C744"></path>
        </g>
    </g>
</svg>