<?xml version="1.0" encoding="UTF-8" standalone="no"?>
<svg width="74px" height="74px" viewBox="0 0 74 74" version="1.1" xmlns="http://www.w3.org/2000/svg" xmlns:xlink="http://www.w3.org/1999/xlink">
    <!-- Generator: Sketch 3.8.3 (29802) - http://www.bohemiancoding.com/sketch -->
    <title>music</title>
    <desc>Created with Sketch.</desc>
    <defs></defs>
    <g id="Page-1" stroke="none" stroke-width="1" fill="none" fill-rule="evenodd">
        <g id="music">
            <rect id="Rectangle-36" fill="#38B88D" x="0" y="3.41060513e-13" width="74" height="74"></rect>
            <path d="M25.5122259,20.8063905 L25.5122259,47.6513352 C24.5867326,47.0947143 23.5033726,46.7741886 22.344744,46.7741886 C18.9451135,46.7741886 16.1892126,49.5300895 16.1892126,52.92972 C16.1892126,56.3293505 18.9451135,59.0853924 22.344744,59.0853924 C25.7443745,59.0853924 28.5002754,56.3293505 28.5002754,52.92972 L28.5002754,28.7036705 L49.1196354,20.715899 L49.1196354,39.8766838 C48.194283,39.3202038 47.1107821,38.9995371 45.9521535,38.9995371 C42.552523,38.9995371 39.7966221,41.755579 39.7966221,45.1552095 C39.7966221,48.55484 42.552523,51.310741 45.9521535,51.310741 C49.351784,51.310741 52.1078259,48.55484 52.1078259,45.1552095 L52.1078259,10.5296933 L25.5122259,20.8063905 Z" id="Fill-4" fill="#282C31"></path>
            <path d="M23.3304099,54.1389364 C21.6947985,54.1389364 20.3687185,52.8129973 20.3687185,51.1773859 C20.3687185,51.1341135 20.370269,51.091264 20.3721013,51.0484145 C19.5497851,51.4901592 18.990627,52.358144 18.990627,53.3569326 C18.990627,54.8033859 20.163069,55.9758278 21.6095223,55.9758278 C22.8248137,55.9758278 23.8465775,55.1478735 24.1420137,54.0254697 C23.8840709,54.098765 23.6120328,54.1389364 23.3304099,54.1389364" id="Fill-6" fill="#4A89DC"></path>
            <path d="M46.8063109,46.2645752 C45.1706994,46.2645752 43.8447604,44.9386362 43.8447604,43.3030248 C43.8447604,43.2597524 43.8461699,43.2169029 43.8480023,43.1741943 C43.0256861,43.6157981 42.466528,44.4837829 42.466528,45.4825714 C42.466528,46.9290248 43.6389699,48.1014667 45.0854232,48.1014667 C46.3007147,48.1014667 47.3224785,47.2735124 47.6179147,46.1511086 C47.3599718,46.2244038 47.0879337,46.2645752 46.8063109,46.2645752" id="Fill-8" fill="#4A89DC"></path>
        </g>
    </g>
</svg>