<?xml version="1.0" encoding="UTF-8" standalone="no"?>
<svg width="74px" height="74px" viewBox="0 0 74 74" version="1.1" xmlns="http://www.w3.org/2000/svg" xmlns:xlink="http://www.w3.org/1999/xlink">
    <!-- Generator: Sketch 3.8.3 (29802) - http://www.bohemiancoding.com/sketch -->
    <title>physics</title>
    <desc>Created with Sketch.</desc>
    <defs></defs>
    <g id="Page-1" stroke="none" stroke-width="1" fill="none" fill-rule="evenodd">
        <g id="physics">
            <rect id="Rectangle-36" fill="#A6C744" x="0" y="0" width="74" height="74"></rect>
            <path d="M42.411176,29.0511596 C30.8122046,22.357331 18.882277,20.3966834 16.3586655,24.7694491 C13.8350541,29.1424968 21.501595,38.4907406 33.1005665,45.1845691 C44.6989741,51.8781158 56.6290427,53.8390453 59.152795,49.4659977 C61.6759836,45.0937958 54.0095836,35.7447063 42.411176,29.0511596 M32.4521855,46.3081006 L32.4521855,46.3081006 C19.8227112,39.0197349 12.2592065,29.2733006 15.2333017,24.1199406 C18.207115,18.9668625 30.4299417,20.6395444 43.059275,27.928051 C55.6881855,35.2161349 63.2515493,44.962851 60.2780179,50.1153653 C57.3039227,55.2687253 45.080955,53.5963253 32.4521855,46.3081006" id="Fill-4" fill="#FFFFFF"></path>
            <path d="M39.3583448,13.4562446 C41.3236438,14.5903474 43.1320629,17.566275 44.4505314,21.8355817 C45.7939486,26.1853722 46.5367676,31.614576 46.5419829,37.123136 C46.5480438,43.5268846 45.5836476,49.620256 43.8265352,54.2805646 C42.1565314,58.7099931 39.9528819,61.2503779 37.7809467,61.2503779 L37.776859,61.2503779 C37.24124,61.2503779 36.6949086,61.0919474 36.1532286,60.7791741 C34.1879295,59.6450712 32.3793695,56.6691436 31.06076,52.399696 C29.7173429,48.0499055 28.9745238,42.6205608 28.9693086,37.1120008 C28.9633886,30.7076884 29.9279257,24.614035 31.68532,19.9537265 C33.3556057,15.5244389 35.5592552,12.9840541 37.7313314,12.9840541 C38.2699105,12.9850408 38.8172286,13.1438941 39.3583448,13.4562446 M46.6224667,20.8131131 C45.1004629,16.0696427 42.9992857,12.8139246 40.5461505,11.3981989 C39.6377124,10.873997 38.6906533,10.6081608 37.7314724,10.6081608 L37.7286533,10.6081608 C34.6144514,10.6081608 31.7604476,13.398736 29.6922533,18.4658331 C27.686501,23.379997 26.58524,30.0020808 26.5915829,37.1122827 C26.5973619,43.1162903 27.3916286,48.7562179 28.8886838,53.4223055 C30.4105467,58.165776 32.5118648,61.4214941 34.9652819,62.8373608 C35.8727333,63.3609989 36.8196514,63.6265531 37.7795371,63.6265531 C40.8979676,63.6265531 43.7518305,60.8361189 45.8198838,55.7693036 C47.8254952,50.8552808 48.9263333,44.2334789 48.9198495,37.123277 C48.9139295,31.1192693 48.1195219,25.4793417 46.6224667,20.8131131" id="Fill-6" fill="#FFFFFF"></path>
            <path d="M57.710683,23.4243547 C53.4027554,20.9382366 43.0461383,23.3022899 33.0850335,29.0455356 C21.4994526,35.7255509 13.8503897,45.0661832 16.3811897,49.4421909 C16.6991783,49.9907775 17.1761611,50.4515509 17.8004392,50.8118251 C22.1083669,53.2979432 32.464984,50.9333261 42.4260888,45.1897985 C48.2166945,41.8510594 53.140725,37.832789 56.2914335,33.874987 C59.2693345,30.1331242 60.3035021,26.8232804 59.1302145,24.7928613 C58.8122259,24.2446975 58.3349611,23.784629 57.710683,23.4243547 M17.1524811,51.9345109 C16.3283326,51.4587966 15.6909459,50.8384651 15.2576583,50.0902899 C12.2744011,44.9339699 19.8195821,35.1962747 32.4343973,27.922427 C42.9384507,21.8655623 53.5989611,19.5540842 58.358923,22.3011051 C59.1833535,22.7768194 59.8210221,23.396869 60.2540278,24.145608 C61.7316316,26.6983966 60.6847783,30.4412461 57.3075592,34.6839128 C54.0588888,38.765189 49.0047592,42.8953756 43.076584,46.3138937 C32.5728126,52.3703356 21.9121611,54.6812499 17.1524811,51.9345109" id="Fill-8" fill="#FFFFFF"></path>
            <path d="M19.2867539,46.6510518 C20.8046701,48.168968 20.8046701,50.6299966 19.2867539,52.1477718 C17.7688377,53.665688 15.3078091,53.665688 13.789893,52.1477718 C12.2721177,50.6299966 12.2721177,48.168968 13.789893,46.6510518 C15.3078091,45.1331356 17.7688377,45.1331356 19.2867539,46.6510518" id="Fill-10" fill="#4A89DC"></path>
            <path d="M59.6600122,33.8664171 C61.8482979,36.0547029 61.8482979,39.6026152 59.6600122,41.790901 C57.4717265,43.9791867 53.9238141,43.9791867 51.7355284,41.790901 C49.5472427,39.6026152 49.5472427,36.0547029 51.7355284,33.8664171 C53.9238141,31.6781314 57.4717265,31.6781314 59.6600122,33.8664171" id="Fill-12" fill="#4A89DC"></path>
            <path d="M43.2486305,10.415352 C44.5311562,11.6978777 44.5311562,13.7772072 43.2486305,15.059733 C41.9661048,16.3421177 39.8867752,16.3421177 38.6042495,15.059733 C37.3218648,13.7772072 37.3218648,11.6978777 38.6042495,10.415352 C39.8867752,9.13282629 41.9661048,9.13282629 43.2486305,10.415352" id="Fill-14" fill="#4A89DC"></path>
            <path d="M18.7992842,48.4973589 C18.7992842,49.4566808 18.021509,50.234456 17.062187,50.234456 C16.1028651,50.234456 15.3250899,49.4566808 15.3250899,48.4973589 C15.3250899,47.538037 16.1028651,46.7602617 17.062187,46.7602617 C18.021509,46.7602617 18.7992842,47.538037 18.7992842,48.4973589" id="Fill-16" fill="#57B3FF"></path>
            <path d="M57.1821257,36.9330476 C57.1821257,38.4348952 55.964579,39.6524419 54.4627314,39.6524419 C52.9608838,39.6524419 51.7433371,38.4348952 51.7433371,36.9330476 C51.7433371,35.4312 52.9608838,34.2136533 54.4627314,34.2136533 C55.964579,34.2136533 57.1821257,35.4312 57.1821257,36.9330476" id="Fill-18" fill="#57B3FF"></path>
            <path d="M42.240539,37.3022583 C42.240539,39.7796373 40.2322495,41.7879269 37.7548705,41.7879269 C35.2774914,41.7879269 33.2692019,39.7796373 33.2692019,37.3022583 C33.2692019,34.8248792 35.2774914,32.8165897 37.7548705,32.8165897 C40.2322495,32.8165897 42.240539,34.8248792 42.240539,37.3022583" id="Fill-20" fill="#F2CA26"></path>
            <path d="M38.0773836,35.6827718 C38.0773836,36.5768328 37.3526065,37.3016099 36.4585455,37.3016099 C35.5643436,37.3016099 34.8395665,36.5768328 34.8395665,35.6827718 C34.8395665,34.7887109 35.5643436,34.0639337 36.4585455,34.0639337 C37.3526065,34.0639337 38.0773836,34.7887109 38.0773836,35.6827718" id="Fill-22" fill="#FFF7D2"></path>
        </g>
    </g>
</svg>