<?xml version="1.0" encoding="UTF-8" standalone="no"?>
<svg width="74px" height="74px" viewBox="0 0 74 74" version="1.1" xmlns="http://www.w3.org/2000/svg" xmlns:xlink="http://www.w3.org/1999/xlink">
    <!-- Generator: Sketch 3.8.3 (29802) - http://www.bohemiancoding.com/sketch -->
    <title>politics</title>
    <desc>Created with Sketch.</desc>
    <defs></defs>
    <g id="Page-1" stroke="none" stroke-width="1" fill="none" fill-rule="evenodd">
        <g id="politics">
            <rect id="Rectangle-48" fill="#284579" x="0" y="0" width="74" height="74"></rect>
            <polygon id="Fill-4" fill="#FFFFFF" points="25.5710312 40.837048 19.1619265 28.9508156 12.7526808 40.837048 11.6267531 40.2298251 19.1619265 26.2553832 26.6970998 40.2298251"></polygon>
            <polygon id="Fill-6" fill="#FFFFFF" points="63.3101714 31.653352 56.9010667 19.7671196 50.491821 31.653352 49.3658933 31.0462701 56.9010667 17.0716872 64.43624 31.0462701"></polygon>
            <path d="M35.3218069,22.9976495 L35.3218069,44.6036762 C35.1694373,50.4093638 31.1076126,53.756701 25.3674678,55.9041105 C24.0327897,56.4033638 23.1898945,57.3017943 23.1898945,58.2886019 L23.1898945,58.3065029 C23.1898945,58.3245448 23.2128697,58.3392038 23.2412011,58.3392038 L37.4400392,58.3392038 L37.4400392,44.6036762 L39.5582716,44.6036762 L39.5582716,22.9976495 L35.3218069,22.9976495 Z" id="Fill-8" fill="#D6B018"></path>
            <path d="M49.5125825,55.9040682 C43.7724377,53.7566587 39.710613,50.4093215 39.5582434,44.6036339 L39.5582434,22.9976072 L37.440011,22.9976072 L37.440011,44.6036339 L37.440011,58.3391615 L51.6388491,58.3391615 C51.6671806,58.3391615 51.6901558,58.3245025 51.6901558,58.3064606 L51.6901558,58.2887006 C51.6901558,57.301752 50.8472606,56.4033215 49.5125825,55.9040682" id="Fill-10" fill="#F1C71A"></path>
            <path d="M36.9763623,21.7274994 L13.8855432,27.2662232 C13.164149,27.4391718 12.7195851,28.1642309 12.8926747,28.8856251 L12.8926747,28.8857661 C13.0657642,29.6071604 13.7908232,30.0515832 14.5122175,29.8786347 L36.9763623,24.4901661 L36.9763623,21.7274994 Z" id="Fill-12" fill="#D6B018"></path>
            <path d="M61.9873615,17.1095893 C61.814272,16.388195 61.089213,15.9436312 60.3678187,16.1167208 L38.2953806,21.4111741 L38.2953806,24.1738408 L60.994493,18.7291322 C61.7158872,18.5560427 62.160451,17.8309836 61.9873615,17.1095893" id="Fill-14" fill="#F1C71A"></path>
            <path d="M27.0091825,39.8938229 C27.235552,39.8938229 27.4141387,40.0841086 27.4030034,40.3100552 C27.1860777,44.6738 23.5793882,48.1453162 19.1617996,48.1453162 C14.744352,48.1453162 11.1375215,44.6738 10.9207368,40.3100552 C10.9094606,40.0841086 11.0881882,39.8938229 11.3145577,39.8938229 L27.0091825,39.8938229 Z" id="Fill-16" fill="#4A90E2"></path>
            <path d="M64.7483368,30.7101269 C64.9747063,30.7101269 65.153293,30.9004126 65.1421577,31.1265002 C64.925232,35.490104 61.3185425,38.9616202 56.9009539,38.9616202 C52.4835063,38.9616202 48.8766758,35.490104 48.659891,31.1265002 C48.6486149,30.9004126 48.8273425,30.7101269 49.053712,30.7101269 L64.7483368,30.7101269 Z" id="Fill-18" fill="#4A90E2"></path>
            <path d="M21.8679726,44.6036621 C18.0509821,44.6036621 14.6675611,42.7497154 12.5673707,39.8938792 L11.314445,39.8938792 C11.0882164,39.8938792 10.9094888,40.084024 10.920765,40.3101116 C11.1375497,44.6738564 14.7442392,48.1452316 19.1618278,48.1452316 C22.3754011,48.1452316 25.158224,46.3073535 26.5208107,43.6261573 C25.0974735,44.2542411 23.5235992,44.6036621 21.8679726,44.6036621" id="Fill-20" fill="#3875B5"></path>
            <path d="M59.6570522,35.4199802 C55.8400617,35.4199802 52.4566408,33.5660335 50.3564503,30.7101973 L49.1035246,30.7101973 C48.877296,30.7101973 48.6985684,30.9003421 48.7098446,31.1264297 C48.9266293,35.4901745 52.5333189,38.9615497 56.9509074,38.9615497 C60.1644808,38.9615497 62.9473036,37.1236716 64.3098903,34.4424754 C62.8865531,35.0705592 61.3126789,35.4199802 59.6570522,35.4199802" id="Fill-22" fill="#3875B5"></path>
            <path d="M37.4400251,25.3263238 L35.3055832,25.3263238 L35.3055832,27.2393295 C35.9058994,27.6084838 36.6112251,27.8231543 37.3677166,27.8231543 C37.3921013,27.8231543 37.4157813,27.820899 37.4400251,27.8203352 L37.4400251,25.3263238 Z" id="Fill-24" fill="#C0A32F"></path>
            <path d="M39.3945413,25.330933 L37.4399547,25.330933 L37.4399547,27.8249444 C38.2280194,27.8107082 38.9599851,27.5675653 39.5704499,27.1561253 L39.5704499,25.3090853 C39.5163242,25.3227577 39.4581109,25.330933 39.3945413,25.330933" id="Fill-26" fill="#D3B22A"></path>
            <path d="M41.350453,22.1768697 C41.350453,24.3565573 39.5834739,26.1233954 37.4039272,26.1233954 C35.2242396,26.1233954 33.4572606,24.3565573 33.4572606,22.1768697 C33.4572606,19.9971821 35.2242396,18.230344 37.4039272,18.230344 C39.5834739,18.230344 41.350453,19.9971821 41.350453,22.1768697" id="Fill-28" fill="#FFE445"></path>
            <path d="M39.1081402,22.1768697 C39.1081402,23.1181497 38.345165,23.881125 37.403885,23.881125 C36.462605,23.881125 35.6996297,23.1181497 35.6996297,22.1768697 C35.6996297,21.2355897 36.462605,20.4726145 37.403885,20.4726145 C38.345165,20.4726145 39.1081402,21.2355897 39.1081402,22.1768697" id="Fill-30" fill="#C6A82E"></path>
            <path d="M50.7631543,58.8546526 L24.1760114,58.8546526 C23.4620876,58.8546526 22.8834781,58.2759021 22.8834781,57.5619783 L22.8834781,54.2689078 C22.8834781,53.555125 23.4620876,52.9763745 24.1760114,52.9763745 L50.7631543,52.9763745 C51.4770781,52.9763745 52.0558286,53.555125 52.0558286,54.2689078 L52.0558286,57.5619783 C52.0558286,58.2759021 51.4770781,58.8546526 50.7631543,58.8546526" id="Fill-32" fill="#D6B018"></path>
            <path d="M50.846147,52.9763604 L37.4696251,52.9763604 L37.4696251,58.8546385 L50.846147,58.8546385 C51.5142613,58.8546385 52.0558004,58.3130994 52.0558004,57.6449851 L52.0558004,54.1860137 C52.0558004,53.5178994 51.5142613,52.9763604 50.846147,52.9763604" id="Fill-34" fill="#F1C71A"></path>
        </g>
    </g>
</svg>