<?xml version="1.0" encoding="UTF-8" standalone="no"?>
<svg width="74px" height="74px" viewBox="0 0 74 74" version="1.1" xmlns="http://www.w3.org/2000/svg" xmlns:xlink="http://www.w3.org/1999/xlink">
    <!-- Generator: Sketch 3.8.3 (29802) - http://www.bohemiancoding.com/sketch -->
    <title>reading</title>
    <desc>Created with Sketch.</desc>
    <defs></defs>
    <g id="Page-1" stroke="none" stroke-width="1" fill="none" fill-rule="evenodd">
        <g id="reading">
            <rect id="Rectangle-48" fill="#5D60A5" x="0" y="0" width="74" height="74"></rect>
            <path d="M37.7114712,14.228579 L16.3333646,25.1638057 C14.8031855,25.9465143 13.9783322,29.6773829 14.7610408,31.207421 L29.0169646,59.4727429 C30.4714522,62.3160343 33.9555131,63.4421029 36.7989455,61.9876152 L57.5493912,51.3734781 L39.360896,14.761661 C39.0526331,14.1590895 38.3141836,13.9203162 37.7114712,14.228579" id="Fill-4" fill="#38B88D"></path>
            <path d="M18.0836408,24.2685749 L16.3332941,25.1639044 C14.2033627,26.2533253 13.3599036,28.8633406 14.4493246,30.993272 L29.3423531,60.1088187 C30.6171265,62.6009977 33.6707189,63.5878053 36.1628979,62.313032 L37.2575341,61.7531691 L18.0836408,24.2685749" id="Fill-6" fill="#043330"></path>
            <path d="M32.1218636,54.4129893 C30.2314103,55.3799227 28.012115,55.2202236 26.4667131,54.4869893 L27.2599931,56.0376065 C27.4518293,56.0814427 27.594755,56.1475493 27.7978674,56.178277 C29.4929608,56.4345284 31.3136427,56.1737665 32.6680541,55.4809855 L33.7628312,54.9209817 L33.2164998,53.8531265 L32.1218636,54.4129893" id="Fill-8" fill="#4A90E2"></path>
            <path d="M30.6331246,51.5026328 C28.7428122,52.4695661 26.523376,52.309867 24.9779741,51.5766328 L25.7712541,53.1272499 C25.9629493,53.1709451 26.106016,53.2371928 26.3091284,53.2679204 C28.0042217,53.5241718 29.8249036,53.2634099 31.179456,52.570629 L32.2740922,52.0106251 L31.7277608,50.9427699 L30.6331246,51.5026328" id="Fill-10" fill="#4A90E2"></path>
            <path d="M24.573173,39.6553737 C22.6827196,40.622307 20.4634244,40.462608 18.9178815,39.7293737 L19.7111615,41.2799909 C19.9029977,41.323827 20.0460644,41.3900747 20.2491768,41.4206613 C21.9442701,41.6769128 23.764952,41.4161509 25.1193634,40.7233699 L26.2139996,40.1633661 L25.6678091,39.0955109 L24.573173,39.6553737" id="Fill-12" fill="#4A90E2"></path>
            <path d="M23.0844339,36.7450171 C21.1941215,37.7119505 18.9746853,37.5523924 17.4292834,36.8190171 L18.2224225,38.3696343 C18.4142587,38.4134705 18.5573253,38.4795771 18.7604377,38.5103048 C20.455531,38.7665562 22.276213,38.5057943 23.6307653,37.8130133 L24.7254015,37.2530095 L24.1790701,36.1851543 L23.0844339,36.7450171" id="Fill-14" fill="#4A90E2"></path>
            <path d="M43.6785493,17.662165 L20.7643436,29.3830602 L37.2856541,61.742203 L60.2242446,50.008763 C60.826957,49.7005002 61.0655893,48.9620507 60.7573265,48.3593383 L45.3279741,18.1952469 C45.0197112,17.5925345 44.2812617,17.3539021 43.6785493,17.662165" id="Fill-16" fill="#40CC9A"></path>
            <path d="M20.7642872,29.3831166 L37.2855977,61.7422594 L60.2241882,50.0088194 C60.8269006,49.7005566 61.065533,48.9619661 60.7572701,48.3593947 L20.7642872,29.3831166 Z" id="Fill-18" fill="#38B88D"></path>
            <path id="Fill-20" fill="#30496A"></path>
            <path d="M15.8241459,25.4709269 C14.1817688,26.6163059 13.5312735,28.7617421 14.2857916,30.6347173 L14.2859326,30.6349992 L14.290443,30.6461345 L14.290725,30.6469802 L14.2950945,30.6576926 L14.2956583,30.6589611 L14.3000278,30.6695326 L14.3004507,30.6706602 L14.3049611,30.6815135 L14.3051021,30.6819364 C14.3129954,30.700824 14.3210297,30.7198526 14.329205,30.7387402 L14.3297688,30.7398678 L14.3337154,30.7488888 L14.334984,30.7519897 L14.3386488,30.7604469 L14.3403402,30.7641116 L14.343864,30.771864 L14.3456964,30.7763745 L14.3490792,30.783563 L14.3511935,30.7884964 L14.3544354,30.795544 L14.3565497,30.8004773 L14.3599326,30.8078069 L14.3620469,30.8124583 L14.3652888,30.8196469 L14.367685,30.8248621 L14.3707859,30.8316278 L14.373605,30.8375478 L14.376283,30.8434678 L14.3796659,30.8509383 L14.3836126,30.8591135 L14.3874183,30.8672888 L14.3899554,30.872504 L14.3931973,30.8794107 L14.3955935,30.8846259 L14.3991173,30.8916735 L14.4015135,30.8968888 L14.4047554,30.9035135 L14.4075745,30.9092926 L14.4106754,30.9157764 L14.4133535,30.9211326 L14.4165954,30.9277573 L14.4192735,30.9333954 L14.4225154,30.9397383 L14.4251935,30.9453764 L14.4284354,30.9517192 L14.4312545,30.9574983 L14.4346373,30.964123 L14.4371745,30.9693383 L14.4411211,30.9770907 L14.4432354,30.9813192 L14.4494373,30.9933002 L17.4293116,36.819003 C18.221464,37.194923 19.1905116,37.420024 20.201704,37.420024 C20.7401421,37.420024 21.2905611,37.3561726 21.832523,37.2171935 L15.8241459,25.4709269 M17.8222869,37.5873345 L18.9180507,39.7293878 C19.7100621,40.1051669 20.6792507,40.3302678 21.690443,40.3302678 C22.2288811,40.3302678 22.7793002,40.2665573 23.3211211,40.1275783 L22.3837878,38.2950564 C21.6546411,38.5001421 20.8610792,38.606843 20.0621611,38.606843 C19.6266183,38.606843 19.189525,38.5751288 18.7604659,38.5102907 C18.5572126,38.479563 18.4142869,38.4134564 18.2224507,38.3696202 L17.8222869,37.5873345 M23.8725269,41.2054411 C23.1432392,41.4105269 22.3495364,41.5172278 21.5506183,41.5172278 C21.1152164,41.5172278 20.678123,41.4855135 20.249064,41.4206754 C20.0459516,41.3899478 19.9030259,41.3238411 19.7111897,41.280005 L24.9780164,51.5765764 C25.7701688,51.9524964 26.7392164,52.1775973 27.7504088,52.1775973 C28.2889878,52.1775973 28.8392659,52.1137459 29.3812278,51.9747669 L23.8725269,41.2054411 M25.686443,52.9617154 L29.342325,60.1088469 C30.238923,61.8615897 32.0157688,62.8691173 33.8580164,62.8691173 C34.2043364,62.8691173 34.5527707,62.8334564 34.898245,62.760584 L31.4212316,55.9630145 C30.692085,56.1681002 29.8983821,56.2748011 29.099605,56.2748011 C28.6640621,56.2748011 28.2269688,56.2430869 27.7979097,56.1782488 C27.5947973,56.1475211 27.4517307,56.0814145 27.2598945,56.0375783 L26.4667554,54.4869611 C27.2589078,54.8628811 28.2279554,55.0879821 29.2391478,55.0879821 C29.7775859,55.0879821 30.328005,55.0241307 30.8699669,54.8851516 L29.9324926,53.0526297 C29.2033459,53.2577154 28.409784,53.3645573 27.6108659,53.3645573 C27.175323,53.3645573 26.7382297,53.3327021 26.3091707,53.267864 C26.1060583,53.2371364 25.9629916,53.1710297 25.7711554,53.1271935 L25.686443,52.9617154" id="Fill-22" fill="#043330"></path>
            <path d="M26.4667413,54.4869611 L27.2598804,56.0375783 C27.4518575,56.0814145 27.5947832,56.1475211 27.7978956,56.1782488 C28.2269547,56.2430869 28.664048,56.2748011 29.0995909,56.2748011 C29.898368,56.2748011 30.6920709,56.1681002 31.4212175,55.9630145 L30.8699528,54.8851516 C30.3279909,55.0241307 29.7777128,55.0879821 29.2391337,55.0879821 C28.2279413,55.0879821 27.2588937,54.8628811 26.4667413,54.4869611" id="Fill-24" fill="#276189"></path>
            <path d="M24.9780305,51.5766469 L25.6864571,52.961645 L25.7711695,53.127264 C25.9630057,53.1709592 26.1060724,53.2372069 26.3091848,53.2679345 C26.7382438,53.3327726 27.1753371,53.3644869 27.61088,53.3644869 C28.4096571,53.3644869 29.20336,53.257645 29.9325067,53.0525592 L29.3812419,51.9748373 C28.83928,52.1138164 28.2890019,52.1776678 27.7504229,52.1776678 C26.7392305,52.1776678 25.7701829,51.9524259 24.9780305,51.5766469" id="Fill-26" fill="#276189"></path>
            <path d="M18.9180084,39.7293878 L19.7111474,41.280005 C19.9031246,41.3238411 20.0460503,41.3900888 20.2491627,41.4206754 C20.6780808,41.4855135 21.1151741,41.5172278 21.550576,41.5172278 C22.3494941,41.5172278 23.143197,41.4105269 23.8724846,41.2054411 L23.3212198,40.1275783 C22.7792579,40.2665573 22.2288389,40.3304088 21.6904008,40.3304088 C20.6792084,40.3304088 19.7100198,40.1051669 18.9180084,39.7293878" id="Fill-28" fill="#276189"></path>
            <path d="M17.4292975,36.8190171 L17.8222728,37.5873486 L18.2224366,38.3696343 C18.4142728,38.4134705 18.5571985,38.4795771 18.7604518,38.5103048 C19.1895109,38.5751429 19.6266042,38.6068571 20.062147,38.6068571 C20.8610651,38.6068571 21.654627,38.5001562 22.3837737,38.2950705 L21.832509,37.2172076 C21.290688,37.3561867 20.740128,37.4200381 20.2016899,37.4200381 C19.1904975,37.4200381 18.2214499,37.1949371 17.4292975,36.8190171" id="Fill-30" fill="#276189"></path>
            <path d="M39.4213505,16.3590461 C39.4650457,16.1387375 39.5452476,15.9435185 39.6812667,15.8144061 L17.4391219,27.2099832 C16.6036971,27.6374918 16.2728819,28.661229 16.7002495,29.4966537 L16.7158952,29.5272404 C17.1432629,30.3626651 18.167,30.6936213 19.0024248,30.2662537 L42.0946533,18.4734728 C41.7377619,18.5693204 41.1687371,18.4619147 40.6532743,18.315747 C39.8055867,18.0752823 39.2499524,17.2233661 39.4213505,16.3590461" id="Fill-32" fill="#FFFFFF"></path>
            <polygon id="Fill-34" fill="#F1C71A" points="26.2808392 24.9043265 20.6561345 14.1471227 18.6840697 18.1855493 14.4607135 17.316155 20.0875326 28.0774465"></polygon>
            <polygon id="Fill-36" fill="#FFD62E" points="26.293229 24.8979272 20.7601432 14.0939272 18.7879375 18.1323539 18.7861051 18.1317901 23.0924823 26.5379082"></polygon>
        </g>
    </g>
</svg>