<?xml version="1.0" encoding="UTF-8" standalone="no"?>
<svg width="74px" height="74px" viewBox="0 0 74 74" version="1.1" xmlns="http://www.w3.org/2000/svg" xmlns:xlink="http://www.w3.org/1999/xlink">
    <!-- Generator: Sketch 3.8.3 (29802) - http://www.bohemiancoding.com/sketch -->
    <title>rocket</title>
    <desc>Created with Sketch.</desc>
    <defs></defs>
    <g id="Page-1" stroke="none" stroke-width="1" fill="none" fill-rule="evenodd">
        <g id="rocket">
            <rect id="Rectangle-48" fill="#284579" x="0" y="0" width="74" height="74"></rect>
            <path d="M4.64230895,55.8357768 C7.81782514,61.3601234 12.4705223,66.1312206 18.4223775,69.4899749 C25.3754175,73.4139482 33.0621147,74.8257272 40.4360385,74.0201844 C40.3699318,72.3584968 39.8496766,70.735712 38.9267204,69.3432434 C38.9478632,69.3070187 38.9705566,69.2722034 38.9912766,69.2355558 C40.985189,65.7023025 39.7371966,61.2217082 36.2040842,59.2277958 C35.9436042,59.0807825 35.6773451,58.9535025 35.4078442,58.8413044 C35.1572309,54.7993539 32.9297604,50.9617844 29.1401147,48.8231139 C23.1910785,45.4657691 15.6466023,47.5669463 12.2893985,53.5161234 C12.1017909,53.8483482 11.9322251,54.1859291 11.7784461,54.5271749 C9.31389371,53.6666606 6.59731848,54.1965006 4.64230895,55.8357768" id="Fill-4" fill="#F0F8FC"></path>
            <path d="M22.477938,61.810093 C22.0993624,57.9014456 19.8822981,54.2337763 16.2028145,52.1573707 C11.9467401,49.7554625 4.66443071,48.9266285 0.0439333595,56 L0,56 L0,74.2459262 L7.10149261,74.2459262 L9.65295801,74.2459262 L9.65295801,74.4300287 L32.3777344,74.4300287 L32.3777344,74.2459262 L34.214367,74.2459262 C35.8542567,74.3552718 37.4936003,74.3542625 39.1214634,74.2459262 L49.1307707,74.2459262 L49.1307707,72.1832291 L49.0909161,72.1832291 C49.1042035,72.1785079 49.1174884,72.1737791 49.1307707,72.1690427 C48.508325,68.6267684 46.3669764,65.3804941 42.9901802,63.4748179 C40.1385726,61.8655646 36.9231669,61.503176 33.9719059,62.210757 C33.5177573,61.8179227 33.0180811,61.4639912 32.4749916,61.1574198 C29.2099625,59.3149008 25.2955961,59.6945705 22.477938,61.810093 Z" id="Combined-Shape" fill="#FFFFFF"></path>
            <path d="M32.0635798,51.0929547 C31.2273093,50.2029813 30.2452941,49.4219642 29.1255684,48.7900747 C28.6550693,48.5243794 28.1742808,48.2932175 27.6864446,48.0951794 C27.0453931,48.472227 26.4550846,49.0649318 26.0029093,49.8452442 C25.0249817,51.5324442 20.9353893,62.8716404 22.0800636,59.7747756 C22.2597779,60.4409166 22.3857893,61.1212937 22.4535874,61.8097051 C23.4205208,61.0822499 24.5171303,60.5600213 25.672235,60.2612023 C28.3446922,57.0508709 30.9221474,53.8807109 31.4360598,52.9942613 C31.799717,52.3667413 32.0031112,51.716387 32.0635798,51.0929547" id="Fill-10" fill="#F7FBFD"></path>
            <path d="M38.7788895,29.2876495 C31.8054114,26.8820152 23.8934724,29.7148762 20.13836,36.3689562 C19.1867905,38.0553105 18.5835143,39.8431505 18.3049924,41.650019 C18.2725733,41.8591924 18.5079638,42.0049371 18.6799257,41.8813219 C22.7200438,38.9798171 28.0101276,38.1271962 32.8486,39.7962133 L38.7788895,29.2876495" id="Fill-12" fill="#4A90E2"></path>
            <path d="M42.3376411,31.2959954 C48.0016716,36.0219878 49.6663192,44.2593859 45.9110659,50.9134659 C44.9958621,52.535264 43.8332869,53.9301288 42.497763,55.0773402 C42.2781592,55.2662164 41.9424107,55.0917173 41.9614392,54.802624 C42.2850659,49.9138316 40.2821326,45.037725 36.4073516,41.8045592 L42.3376411,31.2959954" id="Fill-14" fill="#4A90E2"></path>
            <path d="M49.7368518,13.9714819 C46.9111794,12.3768876 43.5572175,14.8376343 40.9707413,17.5931124 L46.0692709,20.4703733 L51.1257966,23.3239543 C52.1475604,19.6855505 52.598749,15.5866552 49.7368518,13.9714819" id="Fill-16" fill="#4A90E2"></path>
            <path d="M46.1969314,20.2086389 L41.1860743,17.3808522 C37.9967448,20.3880712 35.048021,24.2611608 33.13276,27.6548712 L33.0938571,27.7240789 C31.2869886,30.9258122 24.1969429,43.8552331 30.7151448,47.6424827 L30.8562381,47.3924331 L30.7171181,47.6436103 C37.3283486,51.2658046 44.7315905,38.5131379 46.5386,35.3114046 L46.5775029,35.242197 C48.4927638,31.8483455 50.2839867,27.3222236 51.2097619,23.0375531 L46.1969314,20.2086389" id="Fill-18" fill="#D4E4F3"></path>
            <path d="M45.8594773,13.8817516 C44.2230202,14.4365402 42.6336411,15.6953859 41.2862773,17.0526164 L41.3015002,17.0612145 C38.1651688,20.0798507 35.2642278,23.9082583 33.3461478,27.2822354 C35.2330773,24.0318735 38.0243573,20.3938926 41.0422888,17.5171954 C42.4887421,15.9878621 44.1684716,14.5602964 45.8594773,13.8817516" id="Fill-20" fill="#274274"></path>
            <path d="M46.7485768,13.6538034 C46.4514491,13.7045463 46.1547444,13.7816472 45.8594491,13.8817234 C44.1684434,14.5602682 42.4887139,15.9878339 41.0422606,17.5173082 C41.0903253,17.4714987 41.1379672,17.426253 41.186032,17.3808663 L42.2903939,18.0041577 C43.0797272,17.1072777 43.9000701,16.2438034 44.7369044,15.4384015 L44.7216815,15.4296625 C45.3511749,14.7956587 46.0333844,14.1833615 46.7485768,13.6538034" id="Fill-22" fill="#4586D2"></path>
            <path d="M41.1860884,17.3809227 C41.1380236,17.4263093 41.0902408,17.471555 41.042317,17.5172236 C38.0242446,20.3939208 35.2331055,24.0319017 33.346176,27.2822636 C33.3275703,27.3149646 33.3089646,27.3478065 33.2904998,27.3803665 L33.2508922,27.4507017 C31.8712503,29.8955208 27.4612731,37.916275 28.1072579,43.3653531 C28.1546179,43.3447741 28.2040922,43.3337798 28.2528617,43.3337798 C28.3047322,43.3337798 28.355616,43.3461836 28.4018484,43.3722598 L31.9888046,45.396477 L32.0929684,45.455395 L35.5702636,47.4177341 C35.6541303,47.4649531 35.7071284,47.548397 35.7251703,47.6452312 C38.094016,46.5924579 39.8831246,44.5637303 39.8831246,44.5637303 C39.7284998,44.5879741 39.5637265,44.5993912 39.3914827,44.5993912 C38.2224236,44.5993912 36.7019703,44.073075 35.5961989,43.4675436 L35.5942255,43.466416 C29.0768693,39.677757 34.8485874,29.0840579 36.6863246,25.827776 L36.7259322,25.7574408 C38.1365836,23.2577912 40.0934255,20.5007627 42.2904503,18.0042141 L41.1860884,17.3809227" id="Fill-24" fill="#C1D1E1"></path>
            <path d="M37.9934747,34.3111078 C35.189227,32.7284945 34.1987547,29.1722659 35.781368,26.3680183 C37.3638404,23.5637707 40.920069,22.5732983 43.7244575,24.1559116 C46.5287051,25.738384 47.5190366,29.2946126 45.9365642,32.0990011 C44.3539509,34.9032488 40.7977223,35.8937211 37.9934747,34.3111078" id="Fill-26" fill="#A7BECB"></path>
            <path d="M38.7773672,32.9220221 C36.7401825,31.7724145 36.0207615,29.1890392 37.1703691,27.1518545 C38.3199768,25.1148107 40.903352,24.3953897 42.9405368,25.5449973 C44.9775806,26.694605 45.6971425,29.2779802 44.5475349,31.315024 C43.3979272,33.3522088 40.814552,34.0716297 38.7773672,32.9220221" id="Fill-28" fill="#1C2A47"></path>
            <path d="M31.308667,56.3175661 C32.1009604,54.2059585 31.2600385,51.7735432 29.2342709,50.6304194 C27.2086442,49.4872956 24.6917985,50.024747 23.2936918,51.7944042 C23.0549185,52.096747 23.1442823,52.5417337 23.4798899,52.7310328 L24.1918404,53.132888 C23.2763547,53.6871128 22.4426213,54.4832118 21.8410366,55.3286442 C21.617768,55.6424042 21.7177032,56.0807661 22.053029,56.2700651 L23.0931166,56.8571318 C22.9267928,57.0968918 22.7668118,57.3506061 22.6161337,57.6177109 C21.3192309,59.9157985 22.2967356,62.9240042 22.2967356,62.9240042 C22.2967356,62.9240042 25.376968,62.2058518 26.6740118,59.9076232 C26.8246899,59.6405185 26.9591585,59.372568 27.0785451,59.106168 L28.1186328,59.6930937 C28.4539585,59.8822518 28.8809032,59.7412994 29.0341185,59.3879318 C29.446827,58.4359394 29.6974404,57.3107166 29.698709,56.2406061 L30.4106594,56.6423204 C30.746267,56.8316194 31.1733528,56.6782632 31.308667,56.3175661" id="Fill-30" fill="#FFD634"></path>
            <path d="M30.4495905,54.075352 C30.9233314,52.8127006 30.4204133,51.3583539 29.2092095,50.6748758 C27.9980057,49.9912568 26.4931981,50.3127691 25.6572095,51.3708987 C25.5142838,51.5515996 25.5678457,51.8177177 25.768421,51.9309025 L26.1942381,52.1710853 C25.646779,52.5024644 25.1482305,52.9786015 24.78852,53.4840568 C24.6550381,53.6716644 24.7149429,53.9338358 24.9153771,54.0470206 L25.537259,54.397851 C25.4378876,54.5413406 25.342181,54.6930053 25.2521124,54.8528453 C24.4765924,56.2269901 25.060981,58.0255425 25.060981,58.0255425 C25.060981,58.0255425 26.9028057,57.5962015 27.6783257,56.2220568 C27.7685352,56.0623577 27.8488781,55.9019539 27.9202,55.7426777 L28.5422229,56.0936491 C28.7426571,56.2068339 28.9979219,56.1224034 29.089541,55.9112568 C29.3363486,55.342091 29.486181,54.6691844 29.4870267,54.0294015 L29.9127029,54.2695844 C30.1132781,54.3827691 30.3686838,54.2910091 30.4495905,54.075352" id="Fill-32" fill="#EC7834"></path>
            <polygon id="Fill-34" fill="#575757" points="34.415765 47.688109 31.698344 46.154547 31.4846602 46.0338918 28.7672392 44.5004709 25.3399821 47.4531413 29.3929269 49.7403756 29.6067516 49.8608899 33.6596964 52.1482651"></polygon>
            <path d="M33.7454095,52.0289067 L29.6785105,49.733779 L29.4646857,49.6131238 L25.3977867,47.3181371 C25.1863581,47.1987505 24.9224952,47.2659848 24.8083238,47.4682514 L24.7671657,47.5411238 C24.6531352,47.7433905 24.7320686,48.0038705 24.9434971,48.1232571 L29.0103962,50.4183848 L29.22408,50.53904 L33.290979,52.8340267 C33.5024076,52.9532724 33.7662705,52.886179 33.8804419,52.6839124 L33.9216,52.61104 C34.0356305,52.4087733 33.9568381,52.1481524 33.7454095,52.0289067" id="Fill-36" fill="#676767"></path>
            <path d="M35.5702918,47.4176777 L32.0928556,45.4553387 L31.8793128,45.3346834 L28.4018766,43.3722034 C28.2334385,43.2772015 28.0045318,43.3641691 27.8903604,43.5664358 L27.8492023,43.6393082 C27.7350309,43.8415749 27.779008,44.0824625 27.9474461,44.1774644 L31.4248823,46.1399444 L31.6385661,46.2604587 L35.1158613,48.2229387 C35.2844404,48.3177996 35.513347,48.230973 35.6275185,48.0287063 L35.6686766,47.9559749 C35.782707,47.7537082 35.7387299,47.5126796 35.5702918,47.4176777" id="Fill-38" fill="#676767"></path>
            <path d="M34.9232358,49.8332632 L35.0670072,48.1952556 L31.6386225,46.2604023 L31.4249387,46.139888 L27.996272,44.2050347 L26.6685006,45.174928 C26.4111215,45.3628175 26.4340968,45.7539604 26.711632,45.9106994 L30.3845691,47.9834042 L30.598253,48.1039185 L34.2710491,50.1767642 C34.5487253,50.3333623 34.8953272,50.150688 34.9232358,49.8332632" id="Fill-40" fill="#777677"></path>
            <path d="M28.2528617,43.3337657 C28.2040922,43.3337657 28.1546179,43.34476 28.1072579,43.36548 C28.1546179,43.34476 28.2040922,43.3337657 28.2528617,43.3337657 C28.3047322,43.3337657 28.355616,43.3461695 28.4018484,43.3722457 L31.8792846,45.3347257 L31.9886636,45.3964629 L31.9888046,45.3964629 L28.4018484,43.3722457 C28.355616,43.3461695 28.3047322,43.3337657 28.2528617,43.3337657" id="Fill-42" fill="#B0C0D1"></path>
            <path d="M27.9474179,44.1774644 L27.9963284,44.205091 L26.668557,45.1748434 C26.5479017,45.2630796 26.4888427,45.3957158 26.4887017,45.5280701 C26.4888427,45.3957158 26.5479017,45.2630796 26.668557,45.1748434 L27.9963284,44.205091 L28.2685074,44.3587291 L28.2685074,44.3587291 L27.9474179,44.1774644" id="Fill-44" fill="#274274"></path>
            <polygon id="Fill-46" fill="#C1D1E1" points="28.2685074 44.3586587 28.2685074 44.3586587 28.3600074 44.4101587 28.3600074 44.4101587"></polygon>
            <polygon id="Fill-48" fill="#B0C0D1" points="28.2942876 44.3731909 28.2942876 44.3731909 28.7942876 44.8731909 28.7942876 44.8731909"></polygon>
            <polygon id="Fill-50" fill="#515255" points="28.669221 44.5848027 28.669221 44.5848027 31.42484 46.1399303"></polygon>
            <path d="M26.9645288,46.0533855 L25.4576069,47.3518389 L25.397843,47.3181512 C25.326944,47.2781208 25.250125,47.2589512 25.1749973,47.2589512 C25.0728069,47.2589512 24.9738583,47.2943303 24.8973211,47.3598731 C24.9738583,47.2943303 25.0728069,47.2589512 25.1749973,47.2589512 C25.250125,47.2589512 25.326944,47.2781208 25.397843,47.3181512 L25.4576069,47.3518389 L26.9645288,46.0533855 L26.9645288,46.0533855" id="Fill-52" fill="#274274"></path>
            <polygon id="Fill-54" fill="#515255" points="26.9645992 46.0534278 25.4575364 47.3518811 29.4648126 49.6131802 29.5741916 49.6749173 30.4940469 48.045085 30.3845269 47.9833478"></polygon>
            <path d="M25.1749832,47.2590217 C25.0727928,47.2590217 24.9738442,47.2942598 24.897307,47.3599436 C24.8623509,47.3898255 24.832187,47.4260503 24.8083661,47.468195 L24.767208,47.5410674 C24.731547,47.604355 24.7147737,47.6731398 24.7149147,47.7416427 C24.7153375,47.8924617 24.7980766,48.0411665 24.9433985,48.1232008 L29.1198175,50.4802065 L29.574248,49.6749455 L29.464728,49.6132084 L25.4575928,47.3517684 L25.397829,47.3180808 C25.3269299,47.2780503 25.2501109,47.2590217 25.1749832,47.2590217" id="Fill-56" fill="#5F6164"></path>
            <path d="M28.2528617,43.3337657 C28.2040922,43.3337657 28.1546179,43.34476 28.1072579,43.36548 C28.0218408,43.4028324 27.9436122,43.47204 27.8903322,43.5663371 L27.8491741,43.6393505 C27.8064655,43.7151829 27.7858865,43.7963714 27.7857455,43.8733314 C27.7856046,44.001739 27.8422674,44.1180248 27.9474179,44.1775067 L28.2685074,44.3586305 L28.2943017,44.3731486 L28.669235,44.584859 L31.4248541,46.1399867 L31.5343741,46.2017238 L31.9888046,45.3964629 L31.8792846,45.3347257 L28.4018484,43.3722457 C28.355616,43.3461695 28.3047322,43.3337657 28.2528617,43.3337657" id="Fill-58" fill="#5F6164"></path>
            <path d="M27.9962861,44.2050629 L26.6685147,45.1749562 C26.5478594,45.2630514 26.4888004,45.3958286 26.4886594,45.5280419 C26.4885185,45.6780152 26.564069,45.8274248 26.7116461,45.9107276 L26.9646556,46.0533714 L26.9645147,46.0533714 L26.9646556,46.0533714 L30.3845832,47.9834324 L30.4939623,48.0451695 L31.5343318,46.2016533 L31.4249528,46.1399162 L28.6691928,44.5847886 L28.2942594,44.373219 L28.2684651,44.358701 L27.9962861,44.2050629" id="Fill-60" fill="#6E6E72"></path>
        </g>
    </g>
</svg>