<?xml version="1.0" encoding="UTF-8" standalone="no"?>
<svg width="74px" height="74px" viewBox="0 0 74 74" version="1.1" xmlns="http://www.w3.org/2000/svg" xmlns:xlink="http://www.w3.org/1999/xlink">
    <!-- Generator: Sketch 3.8.3 (29802) - http://www.bohemiancoding.com/sketch -->
    <title>science</title>
    <desc>Created with Sketch.</desc>
    <defs></defs>
    <g id="Page-1" stroke="none" stroke-width="1" fill="none" fill-rule="evenodd">
        <g id="science">
            <rect id="Rectangle-45" fill="#A6C744" x="0" y="0" width="74" height="74"></rect>
            <path d="M25.6175314,50.178667 C25.5605867,49.565947 25.5304229,48.9454747 25.5304229,48.3178137 C25.5304229,38.9891623 31.9675771,31.1651775 40.6417867,29.0418709 C39.1245752,28.6704613 37.5392838,28.4721413 35.907619,28.4721413 C24.9471619,28.4721413 16.0619467,37.3573566 16.0619467,48.3178137 C16.0619467,48.9454747 16.0923924,49.565947 16.1494781,50.178667 L25.6175314,50.178667 Z" id="Fill-4" fill="#D4E4F3"></path>
            <path d="M38.3865909,28.6380705 C28.4105451,29.68436 20.635048,38.1207829 20.635048,48.3738 C20.635048,48.9824324 20.6643661,49.5840171 20.717928,50.1786952 L25.5291966,50.1786952 C25.4722518,49.5659752 25.442088,48.9455029 25.442088,48.3178419 C25.442088,38.9891905 31.8792423,31.1652057 40.5535928,29.041899 C39.845307,28.8685276 39.1222213,28.7334952 38.3865909,28.6380705" id="Fill-6" fill="#94A8B0"></path>
            <path d="M54.702872,54.760451 L18.0879539,54.760451 C16.968933,54.760451 16.0619044,53.8534225 16.0619044,52.7344015 L16.0619044,48.384611 L54.702872,48.384611 C56.4635082,48.384611 57.890792,49.8118949 57.890792,51.572531 L57.890792,51.572531 C57.890792,53.3331672 56.4635082,54.760451 54.702872,54.760451" id="Fill-8" fill="#4A89DC"></path>
            <path d="M49.2399947,37.5772846 L49.2399947,19.0251322 C49.2399947,18.0271893 48.430928,17.2181227 47.4328442,17.2181227 L43.0091947,17.2181227 C40.8966004,17.2181227 39.184029,18.9306941 39.184029,21.0431474 L39.184029,37.5772846 L49.2399947,37.5772846 Z" id="Fill-10" fill="#4A89DC"></path>
            <path d="M39.1840149,36.4219261 L39.1840149,39.9106385 C39.1840149,40.8758804 39.9665825,41.658448 40.9318244,41.658448 L47.492171,41.658448 C48.4575539,41.658448 49.2399806,40.8758804 49.2399806,39.9106385 L49.2399806,36.4219261 L39.1840149,36.4219261 Z" id="Fill-12" fill="#161E29"></path>
            <polygon id="Fill-14" fill="#4A89DC" points="42.0222743 17.2180381 46.4018057 17.2180381 46.4018057 13.098 42.0222743 13.098"></polygon>
            <path d="M46.8659478,13.0980423 L41.558104,13.0980423 C40.6865954,13.0980423 39.9801421,12.391589 39.9801421,11.5200804 C39.9801421,10.6485718 40.6865954,9.94211848 41.558104,9.94211848 L46.8659478,9.94211848 C47.7374564,9.94211848 48.4439097,10.6485718 48.4439097,11.5200804 C48.4439097,12.391589 47.7374564,13.0980423 46.8659478,13.0980423" id="Fill-16" fill="#162237"></path>
            <polygon id="Fill-17" fill="#2F75C0" points="42.0221333 17.2180381 44.2119695 17.2180381 44.2119695 13.098 42.0221333 13.098"></polygon>
            <path d="M44.2120118,17.2180663 L40.931909,17.2180663 C39.9665261,17.2180663 39.1839585,18.0006339 39.1839585,18.9658758 L39.1839585,39.9105539 C39.1839585,40.8757958 39.9665261,41.6583634 40.931909,41.6583634 L44.2120118,41.6583634 L44.2120118,17.2180663 Z" id="Fill-18" fill="#2F75C0"></path>
            <path d="M44.2120118,36.4219261 L39.1839585,36.4219261 L39.1839585,39.9106385 C39.1839585,40.8758804 39.9665261,41.658448 40.931768,41.658448 L44.2120118,41.658448 L44.2120118,36.4219261 Z" id="Fill-19" fill="#10171D"></path>
            <path d="M44.2120118,9.94217486 L41.5580194,9.94217486 C40.6866518,9.94217486 39.9800575,10.6486282 39.9800575,11.5201368 C39.9800575,12.3916453 40.6866518,13.0980987 41.5580194,13.0980987 L44.2120118,13.0980987 L44.2120118,9.94217486 Z" id="Fill-20" fill="#101928"></path>
            <path d="M44.5129029,29.116195 C44.5129029,31.7391779 42.3866362,33.8654446 39.7636533,33.8654446 C37.1406705,33.8654446 35.0144038,31.7391779 35.0144038,29.116195 C35.0144038,26.4932122 37.1406705,24.3669455 39.7636533,24.3669455 C42.3866362,24.3669455 44.5129029,26.4932122 44.5129029,29.116195" id="Fill-21" fill="#F0F8FC"></path>
            <path d="M42.371371,29.116195 C42.371371,30.5564465 41.2038625,31.723955 39.763611,31.723955 C38.3233596,31.723955 37.155851,30.5564465 37.155851,29.116195 C37.155851,27.6759436 38.3233596,26.508435 39.763611,26.508435 C41.2038625,26.508435 42.371371,27.6759436 42.371371,29.116195" id="Fill-22" fill="#94A8B0"></path>
            <path d="M37.0107688,54.760451 L37.0107688,63.1648777 L50.5627764,63.1648777 C52.2845097,63.1648777 53.6800792,61.7693082 53.6800792,60.0477158 L53.6800792,54.760451 L37.0107688,54.760451 Z" id="Fill-23" fill="#161E29"></path>
            <path d="M20.30708,54.760451 L20.30708,60.5104625 C20.5306305,62.012592 21.82556,63.1648777 23.3898495,63.1648777 L37.0107829,63.1648777 L37.0107829,54.760451 L20.30708,54.760451 Z" id="Fill-24" fill="#10171D"></path>
            <path d="M46.4662069,41.6583916 L41.957845,41.6583916 L41.957845,44.0912297 C41.957845,44.6684297 42.4256659,45.1362507 43.0028659,45.1362507 L45.4211859,45.1362507 C45.998245,45.1362507 46.4662069,44.6684297 46.4662069,44.0912297 L46.4662069,41.6583916 Z" id="Fill-25" fill="#10171D"></path>
        </g>
    </g>
</svg>