<?xml version="1.0" encoding="UTF-8" standalone="no"?>
<svg width="74px" height="74px" viewBox="0 0 74 74" version="1.1" xmlns="http://www.w3.org/2000/svg" xmlns:xlink="http://www.w3.org/1999/xlink">
    <!-- Generator: Sketch 3.8.3 (29802) - http://www.bohemiancoding.com/sketch -->
    <title>soccer</title>
    <desc>Created with Sketch.</desc>
    <defs></defs>
    <g id="Page-1" stroke="none" stroke-width="1" fill="none" fill-rule="evenodd">
        <g id="soccer">
            <rect id="Rectangle-48" fill="#5D60A5" x="0" y="0" width="74" height="74"></rect>
            <path d="M36.9764046,15.127221 C24.8315246,15.127221 14.9861417,24.9726038 14.9861417,37.1174838 C14.9861417,49.2622229 24.8315246,59.1076057 36.9764046,59.1076057 C49.1212846,59.1076057 58.9665265,49.2622229 58.9665265,37.1174838 C58.9665265,24.9726038 49.1212846,15.127221 36.9764046,15.127221" id="Fill-4" fill="#E3E5EB"></path>
            <polygon id="Fill-6" fill="#FFFFFF" points="32.8797787 57.9793524 28.8276796 50.9609105 32.8797787 43.9426095 40.9839768 43.9426095 45.0359349 50.9609105 40.9839768 57.9793524"></polygon>
            <path d="M33.2455219,57.3457573 L40.6180362,57.3457573 L44.3043638,50.9608964 L40.6180362,44.5761764 L33.2455219,44.5761764 L29.5591943,50.9608964 L33.2455219,57.3457573 L33.2455219,57.3457573 Z M41.34972,58.6129192 L32.513979,58.6129192 L28.0961086,50.9608964 L32.513979,43.3090145 L41.34972,43.3090145 L45.7675905,50.9608964 L41.34972,58.6129192 Z" id="Fill-8" fill="#E3E5EB"></path>
            <polygon id="Fill-10" fill="#FFFFFF" points="45.0174701 50.9609246 40.965371 43.9426236 45.0174701 36.9241817 53.1215272 36.9241817 57.1736263 43.9426236 53.1215272 50.9609246"></polygon>
            <path d="M45.3832415,50.3274141 L52.7557558,50.3274141 L56.4420834,43.9425531 L52.7557558,37.5576922 L45.3832415,37.5576922 L41.6969139,43.9425531 L45.3832415,50.3274141 L45.3832415,50.3274141 Z M53.4872987,51.594576 L44.6516987,51.594576 L40.2338282,43.9425531 L44.6516987,36.2906712 L53.4872987,36.2906712 L57.9053101,43.9425531 L53.4872987,51.594576 Z" id="Fill-12" fill="#E3E5EB"></path>
            <polygon id="Fill-14" fill="#FFFFFF" points="20.713192 50.9609246 16.661093 43.9426236 20.713192 36.9241817 28.8173901 36.9241817 32.8693482 43.9426236 28.8173901 50.9609246"></polygon>
            <path d="M21.0790621,50.3274141 L28.4515764,50.3274141 L32.137904,43.9425531 L28.4515764,37.5576922 L21.0790621,37.5576922 L17.3927345,43.9425531 L21.0790621,50.3274141 L21.0790621,50.3274141 Z M29.1831192,51.594576 L20.3475192,51.594576 L15.9296488,43.9425531 L20.3475192,36.2906712 L29.1831192,36.2906712 L33.6009897,43.9425531 L29.1831192,51.594576 Z" id="Fill-16" fill="#E3E5EB"></path>
            <polygon id="Fill-18" fill="#FFFFFF" points="40.955011 15.868997 45.0071101 22.8874389 40.955011 29.9057398 32.8509539 29.9057398 28.7988549 22.8874389 32.8509539 15.868997"></polygon>
            <path d="M33.2166126,29.2722152 L40.5892678,29.2722152 L44.2754545,22.8873543 L40.5892678,16.5026343 L33.2166126,16.5026343 L29.5304259,22.8873543 L33.2166126,29.2722152 Z M41.3208107,30.5393771 L32.4850697,30.5393771 L28.0671992,22.8873543 L32.4850697,15.2354724 L41.3208107,15.2354724 L45.7386811,22.8873543 L41.3208107,30.5393771 Z" id="Fill-20" fill="#E3E5EB"></path>
            <polygon id="Fill-22" fill="#FFFFFF" points="28.817376 22.8873825 32.8693341 29.9058244 28.817376 36.9241253 20.7131779 36.9241253 16.6610789 29.9058244 20.7131779 22.8873825"></polygon>
            <path d="M21.0790621,36.2906571 L28.4515764,36.2906571 L32.137904,29.9057962 L28.4515764,23.5209352 L21.0790621,23.5209352 L17.3927345,29.9057962 L21.0790621,36.2906571 L21.0790621,36.2906571 Z M29.1831192,37.557819 L20.3475192,37.557819 L15.9296488,29.9057962 L20.3475192,22.2537733 L29.1831192,22.2537733 L33.6009897,29.9057962 L29.1831192,37.557819 Z" id="Fill-24" fill="#E3E5EB"></path>
            <polygon id="Fill-26" fill="#FFFFFF" points="53.1215836 22.8873825 57.1736827 29.9058244 53.1215836 36.9241253 45.0173855 36.9241253 40.9654274 29.9058244 45.0173855 22.8873825"></polygon>
            <path d="M45.3832556,36.2906008 L52.7557699,36.2906008 L56.4420975,29.9057398 L52.7557699,23.5210198 L45.3832556,23.5210198 L41.696928,29.9057398 L45.3832556,36.2906008 Z M53.4873128,37.5577627 L44.6517128,37.5577627 L40.2337013,29.9057398 L44.6517128,22.2538579 L53.4873128,22.2538579 L57.9053242,29.9057398 L53.4873128,37.5577627 Z" id="Fill-28" fill="#E3E5EB"></path>
            <path d="M32.7405318,45.112909 L41.0935109,45.112909 C41.4229166,45.112909 41.7273737,44.9371413 41.892147,44.6518537 L46.0875947,37.3851947 C46.252227,37.099907 46.252227,36.7483718 46.0875947,36.4630842 L41.9006042,29.2110842 C41.7306156,28.9167756 41.4165737,28.7353699 41.0767375,28.7353699 L32.7123413,28.7353699 C32.3829356,28.7353699 32.0784785,28.9111375 31.9137051,29.1964251 L27.7183985,36.4630842 C27.5536251,36.7483718 27.5536251,37.099907 27.7183985,37.3851947 L31.917229,44.6381813 C32.0873585,44.932067 32.4011185,45.112909 32.7405318,45.112909" id="Fill-30" fill="#1C2A47"></path>
            <path d="M16.6701562,43.4804267 L20.1884686,37.3863505 C20.3535238,37.1003581 20.3535238,36.7479771 20.1884686,36.4619848 L16.6701562,30.3680495 C16.5585219,30.1746629 16.3821905,30.0332876 16.1782324,29.9608381 C15.4063771,32.2043771 14.9861981,34.6117029 14.9861981,37.1174133 C14.9861981,39.492179 15.3642324,41.7781448 16.0605371,43.920621 C16.3142514,43.8669181 16.53752,43.7100381 16.6701562,43.4804267" id="Fill-32" fill="#1C2A47"></path>
            <path d="M32.3772834,57.7089211 L29.0378396,51.9249402 C28.8173901,51.5431002 28.4098968,51.3077097 27.9689977,51.3077097 L21.1160339,51.3077097 C20.8874091,51.3077097 20.6173444,51.437245 20.4427044,51.6144221 C23.5347768,55.1380907 27.7345939,57.6653669 32.4989253,58.6509059 C32.5843425,58.3372869 32.544171,57.9978735 32.3772834,57.7089211" id="Fill-34" fill="#1C2A47"></path>
            <path d="M41.5858575,16.2855253 L44.9253013,22.0696472 C45.1457509,22.4514872 45.5532442,22.6867368 45.9942842,22.6867368 L52.8573966,22.6867368 C53.033728,22.6867368 53.2345851,22.6093539 53.3963985,22.4922225 C50.3088366,19.0281768 46.142707,16.5467101 41.4241851,15.5773806 C41.4062842,15.8203825 41.459987,16.067331 41.5858575,16.2855253" id="Fill-36" fill="#1C2A47"></path>
            <path d="M27.8822838,22.6867931 C28.3231829,22.6867931 28.7306762,22.4515436 28.9511257,22.0697036 L32.2905695,16.2854408 C32.4137619,16.0723208 32.4678876,15.8314331 32.4536514,15.5937874 C27.7528895,16.5766484 23.604379,19.0605112 20.5307714,22.5211741 C20.685819,22.6212503 20.8679295,22.6867931 21.029461,22.6867931 L27.8822838,22.6867931" id="Fill-38" fill="#1C2A47"></path>
            <path d="M57.585024,29.4321962 C56.6891307,27.0309314 55.385603,24.8288324 53.7585897,22.909061 L53.5783116,23.0724248 C53.9072945,23.3654648 57.377683,29.4396667 57.377683,29.4396667 L57.585024,29.4321962 Z" id="Fill-40" fill="#FFFFFF"></path>
            <path d="M16.5157429,29.439709 C16.5157429,29.439709 19.9859905,23.365507 20.3149733,23.072467 L20.1683829,22.939549 C18.5529276,24.8526956 17.258139,27.044928 16.3670381,29.4343528 L16.5157429,29.439709" id="Fill-42" fill="#FFFFFF"></path>
            <path d="M57.3776126,44.5347223 C57.3776126,44.5347223 53.907224,50.6090651 53.5783821,50.9021051 L53.8832621,51.1783718 C55.5097116,49.2249128 56.8035135,46.9851794 57.6789688,44.5457166 L57.3776126,44.5347223" id="Fill-44" fill="#FFFFFF"></path>
            <path d="M16.2731215,44.54356 C17.1439253,46.9710419 18.4288472,49.2010495 20.0438796,51.1478838 L20.315072,50.9020629 C19.9859482,50.6090229 16.5157006,44.53468 16.5157006,44.53468 L16.2731215,44.54356" id="Fill-46" fill="#FFFFFF"></path>
            <path d="M33.340101,58.4062971 L33.218459,58.7864457 C34.4396705,58.9967467 35.6951333,59.1076762 36.9763905,59.1076762 C38.2095829,59.1076762 39.4183905,59.0043581 40.5961886,58.809421 L40.4493162,58.4062971 L33.340101,58.4062971" id="Fill-48" fill="#FFFFFF"></path>
            <path d="M40.5363825,15.7509493 L40.638291,15.432397 C39.4472434,15.2328084 38.2241996,15.127235 36.9764891,15.127235 C35.7275101,15.127235 34.5033387,15.2329493 33.3113044,15.4329608 L33.4271672,15.7509493 L40.5363825,15.7509493 Z" id="Fill-50" fill="#FFFFFF"></path>
            <path d="M58.9665829,37.1149326 C58.9665829,36.9407154 58.9640457,36.767203 58.9599581,36.5939726 C58.9586895,36.5359002 58.9562933,36.4781097 58.954461,36.4201783 C58.9509371,36.3040335 58.9467086,36.1881707 58.9413524,36.0725897 C58.9381105,36.0042278 58.9343048,35.9361478 58.930499,35.8679269 C58.924579,35.7623535 58.9179543,35.6570621 58.9104838,35.5519116 C58.9055505,35.4808716 58.9004762,35.4098316 58.8948381,35.3389326 C58.8865219,35.2351916 58.8769371,35.1318735 58.8672114,35.0285554 C58.8607276,34.958925 58.8546667,34.8890126 58.8474781,34.819664 C58.8345105,34.695203 58.8198514,34.5714469 58.8049105,34.4476907 C58.7912381,34.3346469 58.7762971,34.221885 58.7609333,34.109405 C58.7488114,34.0210278 58.7369714,33.9325097 58.7238629,33.8445554 C58.7100495,33.7523726 58.6951086,33.6607535 58.6801676,33.5689935 C58.6686095,33.4978126 58.6570514,33.4264907 58.6447886,33.3555916 C58.6280152,33.2579116 58.6103962,33.1605135 58.5922133,33.0632564 C58.5806552,33.0013783 58.5686743,32.9396411 58.5566933,32.878045 C58.5363962,32.774304 58.5158171,32.670563 58.4941105,32.5673859 C58.4845257,32.5215764 58.4742362,32.4761897 58.4643695,32.4305211 C58.3765562,32.0266926 58.2783124,31.6268107 58.1687924,31.2317211 L58.164,31.2139611 C58.1287619,31.0876678 58.0921143,30.9617973 58.0547619,30.8363497 C58.0467276,30.8092869 58.0388343,30.782224 58.030659,30.7551611 C57.9935886,30.6325326 57.9555314,30.5103269 57.9163467,30.388544 C57.9084533,30.3638773 57.900419,30.3390697 57.8923848,30.314403 C57.8509448,30.187123 57.8088,30.0602659 57.7652457,29.9339726 L57.7651048,29.9334088 C57.5019467,29.9951459 57.2712076,30.1613288 57.1327924,30.4010888 L53.9304952,35.947565 C53.5816381,36.5518278 53.5816381,37.2964792 53.9304952,37.9007421 L57.142941,43.4483459 C57.3010895,43.7213707 57.5784838,43.8996754 57.8875924,43.9350545 C58.0589905,43.4088792 58.2110781,42.873824 58.3431505,42.3310164 C58.347379,42.3132564 58.3518895,42.2956373 58.3561181,42.2780183 C58.3857181,42.1549669 58.4141905,42.0316335 58.4418171,41.9078773 C58.4475962,41.8815192 58.4532343,41.8551611 58.4590133,41.828803 C58.5378057,41.4683878 58.6072952,41.1047307 58.6681867,40.7381135 C58.6770667,40.6845516 58.6863695,40.6311307 58.6948267,40.5774278 C58.7097676,40.4832716 58.723581,40.3886926 58.7372533,40.2941135 C58.7478248,40.221664 58.7581143,40.1489326 58.76784,40.0760602 C58.779539,39.9896564 58.7909562,39.9031116 58.8015276,39.8164259 C58.8128038,39.7248069 58.8229524,39.6329059 58.833101,39.541005 C58.8408533,39.4701059 58.8493105,39.3993478 58.856499,39.3281669 C58.8721448,39.170723 58.886099,39.0127154 58.8985029,38.8544259 C58.9031543,38.795085 58.9066781,38.7354621 58.9109067,38.6761211 C58.9188,38.5635002 58.9262705,38.4507383 58.9323314,38.3376945 C58.9358552,38.2744069 58.9389562,38.2109783 58.9419162,38.1475497 C58.9472724,38.031405 58.9516419,37.9149783 58.9551657,37.7982697 C58.9568571,37.7427345 58.9588305,37.6873402 58.960099,37.631805 C58.9640457,37.4613935 58.9665829,37.2907002 58.9665829,37.119443 L58.9665829,37.1174697 L58.9665829,37.1149326 Z" id="Fill-52" fill="#1C2A47"></path>
            <path d="M53.0307539,51.2210522 L45.9075844,51.2210522 C45.4665444,51.2210522 45.059051,51.4563017 44.8386015,51.8381417 L41.4991577,57.6222636 C41.3150739,57.9410979 41.285333,58.3215284 41.4086663,58.6608008 C46.1941406,57.6814636 50.4124225,55.146717 53.5147844,51.6090941 L53.4209101,51.4462941 C53.3493063,51.322397 53.1738206,51.2210522 53.0307539,51.2210522" id="Fill-54" fill="#1C2A47"></path>
            <path d="M22.9215352,20.206144 L22.9177295,20.2093859 L22.9215352,20.206144 M22.8965867,20.226864 L22.8853105,20.2363078 L22.8965867,20.226864 M22.8734705,20.2461745 L22.8420381,20.2726735 L22.8734705,20.2461745 M22.8413333,20.2732373 C22.1093676,20.8880716 21.4178552,21.549843 20.7717295,22.2537592 L20.7721524,22.2537592 C21.4182781,21.5497021 22.1093676,20.8882126 22.8413333,20.2732373 M19.3823619,23.9254545 C18.325219,25.332864 17.4328495,26.8713592 16.7342895,28.512045 L16.7373905,28.5066888 C17.4349638,26.869104 18.3256419,25.3335688 19.3806705,23.9284145 L19.3823619,23.9254545" id="Fill-56" fill="#CFD2D9"></path>
            <path id="Fill-58" fill="#565A9B"></path>
            <path d="M16.0976217,30.196891 C15.4743303,32.0779006 15.0979874,34.0723768 15.007496,36.1401482 L15.007496,36.1422625 C15.0067912,36.155512 15.0063684,36.1684796 15.0058046,36.1815882 L15.0056636,36.1845482 C15.0038312,36.226411 15.0022808,36.2677101 15.0007303,36.309573 L15.0007303,36.3116872 C15.0001665,36.3245139 14.9997436,36.3367768 14.9993208,36.3494625 L14.9991798,36.3563691 L14.9980522,36.3904796 L14.9977703,36.3978091 C14.9973474,36.4106358 14.9969246,36.4230396 14.9965017,36.4358663 L14.9965017,36.4375577 C14.995656,36.4653253 14.9949512,36.4921063 14.9941055,36.5200149 L14.9939646,36.5279082 L14.9931189,36.5591996 L14.992837,36.5710396 L14.9921322,36.6002168 L14.9918503,36.611352 L14.9912865,36.6423615 L14.9910046,36.6513825 C14.9907227,36.6695653 14.9902998,36.6878891 14.9900179,36.705931 C15.0317398,34.435752 15.4182312,32.2498625 16.0981855,30.1977368 L16.0976217,30.196891" id="Fill-60" fill="#CFD2D9"></path>
            <path id="Fill-62" fill="#565A9B"></path>
            <path id="Fill-64" fill="#CFD2D9"></path>
            <path id="Fill-66" fill="#565A9B"></path>
            <polygon id="Fill-68" fill="#CFD2D9" points="14.9896507 36.7676118 14.9896507 36.7811118 14.9886507 36.8256118 14.9886507 36.8421118"></polygon>
            <polygon id="Fill-70" fill="#565A9B" points="14.9886573 36.8109265 14.9881573 36.8614265 14.9881573 36.8464265"></polygon>
            <polygon id="Fill-72" fill="#CFD2D9" points="14.989101 36.8049642 14.988601 36.8259642 14.988101 36.8614642"></polygon>
            <polygon id="Fill-74" fill="#565A9B" points="14.9880935 36.855848 14.9875935 36.886848 14.9880935 36.862848"></polygon>
            <polygon id="Fill-76" fill="#CFD2D9" points="14.9880653 36.8577931 14.9875653 36.8817931 14.9875653 36.9092931"></polygon>
            <path id="Fill-78" fill="#565A9B"></path>
            <polygon id="Fill-80" fill="#CFD2D9" points="14.9876707 36.8945112 14.9871707 36.9290112 14.9871707 36.9315112 14.9871707 36.9450112"></polygon>
            <polygon id="Fill-82" fill="#565A9B" points="14.9868747 36.9442815 14.9868747 36.9777815 14.9868747 36.9547815"></polygon>
            <polygon id="Fill-84" fill="#CFD2D9" points="14.9868747 36.944056 14.9868747 36.945056 14.9868747 36.955556"></polygon>
            <polygon id="Fill-86" fill="#565A9B" points="14.9866069 36.9833676 14.9866069 37.0218676 14.9866069 36.9893676"></polygon>
            <polygon id="Fill-88" fill="#CFD2D9" points="14.9866069 36.9826347 14.9866069 36.9851347 14.9866069 36.9916347"></polygon>
            <path id="Fill-90" fill="#565A9B"></path>
            <polygon id="Fill-92" fill="#CFD2D9" points="14.9862545 37.07252 14.9862545 37.09152 14.9862545 37.09902"></polygon>
            <path d="M14.9862263,37.1494095 L14.9862263,37.1606857 L14.9862263,37.1494095 M14.9863672,37.1818286 L14.9863672,37.1943733 L14.9863672,37.1818286 M14.9863672,37.2145295 L14.9865082,37.2272152 L14.9863672,37.2145295 M14.9866491,37.2570971 L14.9867901,37.272179 L14.9866491,37.2570971 M14.9867901,37.2875429 L14.987072,37.3065714 L14.9867901,37.2875429 M14.987072,37.3177067 L14.9873539,37.3391314 L14.987072,37.3177067 M14.9873539,37.3422324 C15.0097653,39.5888724 15.368912,41.75376 16.017152,43.7909448 L16.0182796,43.7889714 C15.3704625,41.7524914 15.0099063,39.5880267 14.9873539,37.3422324 M16.2638187,44.52136 C17.1614034,47.0318629 18.5027063,49.3322057 20.1928663,51.326541 L20.0739025,51.1206095 L20.0438796,51.1479543 C18.4288472,49.20112 17.1439253,46.9711124 16.2731215,44.5436305 L16.2765044,44.5434895 L16.2638187,44.52136" id="Fill-94" fill="#CFD2D9"></path>
            <path id="Fill-96" fill="#565A9B"></path>
            <path d="M20.4629874,51.5945196 L20.4236617,51.5945196 C24.4285417,56.1703977 30.3007589,59.070352 36.850816,59.1072815 C35.6129722,59.1002339 34.399795,58.9898682 33.2184731,58.7864739 L33.2740084,58.6129615 L32.5139931,58.6129615 L32.5101874,58.6063368 C32.5066636,58.6211368 32.5028579,58.6360777 32.4989112,58.6508777 C27.7345798,57.6653387 23.5349036,55.1380625 20.4428312,51.6143939 L20.4629874,51.5945196 M41.3779246,58.564192 L41.3497341,58.6129615 L40.5245989,58.6129615 L40.5962027,58.8094491 C39.4654827,58.9966339 38.3061493,59.0992472 37.1242636,59.1071406 L37.1376541,59.1069996 L37.1501989,59.1069996 C37.1630255,59.1068587 37.1758522,59.1067177 37.1886789,59.1065768 L37.1896655,59.1065768 C37.202915,59.1064358 37.2157417,59.1062949 37.2289912,59.1061539 L37.2411131,59.106013 L37.2690217,59.105731 L37.282835,59.1055901 L37.3087703,59.1051672 L37.3232884,59.1048853 L37.3513379,59.1044625 L37.3624731,59.1043215 C37.3889722,59.1038987 37.4158941,59.1033349 37.4423931,59.102771 L37.4512731,59.1026301 L37.4824236,59.1019253 L37.4938408,59.1016434 L37.5237227,59.1009387 L37.5335893,59.1006568 L37.5667131,59.099811 L37.5737608,59.0996701 C37.6012465,59.0989653 37.6277455,59.0981196 37.6550903,59.0974149 L37.6614331,59.097133 L37.6956846,59.0961463 L37.7038598,59.0958644 L37.7367017,59.0947368 L37.744736,59.0944549 L37.7820884,59.0931863 L37.7842027,59.0930453 C37.8260655,59.0914949 37.8672236,59.0899444 37.9090865,59.088253 L37.9126103,59.088112 C37.925437,59.0875482 37.9388274,59.0869844 37.9515131,59.0864206 L37.9536274,59.0862796 C39.1317074,59.034691 40.2856846,58.8904968 41.4085112,58.6606034 C41.3969531,58.6288891 41.3868046,58.596611 41.3779246,58.564192" id="Fill-98" fill="#CFD2D9"></path>
            <path d="M29.6696869,50.7695676 L29.5591802,50.960981 L33.2455078,57.345701 L40.618163,57.345701 L42.3452526,54.3542686 C42.1380526,54.3600476 41.929725,54.3630076 41.7211154,54.3630076 C37.2712488,54.3630076 33.1309135,53.04172 29.6696869,50.7695676" id="Fill-100" fill="#E8E9EC"></path>
            <path d="M29.6622587,50.7646766 L29.1831615,51.5944632 L28.7598815,51.5944632 C28.8696834,51.6860823 28.9642625,51.7972937 29.0378396,51.9248556 L32.3772834,57.7089775 C32.5362777,57.9842575 32.5803958,58.305347 32.5102015,58.6062804 L32.5140072,58.6129051 L33.2740225,58.6129051 L33.3401291,58.406269 L40.4492034,58.406269 L40.524613,58.6129051 L41.3497482,58.6129051 L41.3779387,58.5641356 C41.2922396,58.2506575 41.332411,57.9111032 41.4991577,57.6222918 L43.4182244,54.2983528 C43.0628834,54.3255566 42.7051463,54.3443032 42.3452949,54.3543109 L40.6180644,57.3457432 L33.2455501,57.3457432 L29.5592225,50.9608823 L29.6697291,50.7696099 L29.6622587,50.7646766" id="Fill-102" fill="#CFD2D9"></path>
            <path d="M20.5755943,38.4297505 L17.3927486,43.942539 L21.0790762,50.3274 L28.4515905,50.3274 L28.6198876,50.0359105 C24.791621,47.1919143 21.92028,43.1333314 20.5755943,38.4297505" id="Fill-104" fill="#E8E9EC"></path>
            <path d="M20.2173779,37.3323234 C20.208357,37.3506472 20.1987722,37.3686891 20.1884827,37.3864491 L16.6701703,43.4803844 C16.5375341,43.7099958 16.3142655,43.8670168 16.0605512,43.9205787 C16.046315,43.8768834 16.0322198,43.8329063 16.0182655,43.7889291 L16.0171379,43.7910434 C16.0952255,44.0364415 16.1774008,44.2798663 16.2638046,44.5214587 L16.2764903,44.5434472 L16.5156865,44.5347082 C16.5156865,44.5347082 19.9859341,50.609051 20.3150579,50.902091 L20.0738884,51.1205672 L20.1928522,51.3266396 C20.2688255,51.4162853 20.3462084,51.506072 20.4235912,51.5944491 L20.4630579,51.5944491 C20.6376979,51.4275615 20.8960636,51.307752 21.1160903,51.307752 L27.9689131,51.307752 C28.262517,51.307752 28.5413208,51.4120568 28.7599379,51.5944491 L29.1832179,51.5944491 L29.662315,50.7646625 C29.3076789,50.5318091 28.9596674,50.2883844 28.6198312,50.0359387 L28.451675,50.3274282 L21.0790198,50.3274282 L17.3926922,43.9425672 L20.5755379,38.4297787 C20.4926579,38.1398396 20.415416,37.8467996 20.344376,37.5522091 L20.2173779,37.3323234" id="Fill-106" fill="#CFD2D9"></path>
            <path d="M21.5861947,23.5209775 L21.079048,23.5209775 L17.3927204,29.9058385 L19.7951128,34.0668937 C19.7525451,33.5077356 19.7308385,32.9427985 19.7308385,32.372787 C19.7308385,29.223488 20.3933147,26.2292366 21.5861947,23.5209775" id="Fill-108" fill="#E8E9EC"></path>
            <path d="M20.7721665,22.2537874 L20.7717436,22.2537874 C20.2819341,22.7874331 19.8182008,23.3453227 19.382376,23.9253417 L19.3806846,23.9284427 C19.633976,23.5911436 19.8965703,23.261456 20.1683265,22.9395208 L20.3150579,23.0724389 C19.9859341,23.3654789 16.5156865,29.4396808 16.5156865,29.4396808 L16.3669817,29.4343246 C16.4836903,29.1216922 16.6071646,28.8124427 16.7374046,28.506717 L16.7343036,28.5120731 C16.4998998,29.0624922 16.2873436,29.6244693 16.0976217,30.196877 L16.0981855,30.1978636 C16.1244027,30.1186484 16.1510427,30.0395741 16.1781055,29.9607817 C16.3822046,30.0332312 16.558536,30.1746065 16.6701703,30.3679931 L20.0740293,36.2637493 C19.9453398,35.5432008 19.8517474,34.8099665 19.7950846,34.0668655 L17.3926922,29.9058103 L21.0790198,23.5209493 L21.5861665,23.5209493 C21.7100636,23.2397493 21.8395989,22.9616503 21.9747722,22.6867931 L21.0294046,22.6867931 C20.8678731,22.6867931 20.6859036,22.6212503 20.530856,22.5211741 C20.6104941,22.4313874 20.6909779,22.3423055 20.7721665,22.2537874 M20.2655836,37.2144731 C20.2523341,37.2545036 20.2362655,37.2939703 20.2173779,37.3323093 L20.344376,37.552195 C20.3171722,37.439715 20.290955,37.327517 20.2655836,37.2144731" id="Fill-110" fill="#CFD2D9"></path>
            <path d="M16.1781619,29.9608522 C16.151099,30.0396446 16.1243181,30.1187189 16.098101,30.1977931 C15.4182876,32.2499189 15.0317962,34.4356674 14.9899333,36.7059874 L14.9899333,36.7106389 C14.9896514,36.7260027 14.9893695,36.7412255 14.9890876,36.7565893 L14.9889467,36.7675836 L14.9886648,36.7885855 L14.9883829,36.804936 L14.988101,36.8208636 L14.988101,36.8252331 L14.9876781,36.8558198 L14.9876781,36.8577931 L14.9875371,36.8723112 L14.9872552,36.8945817 L14.9871143,36.9088179 L14.9868324,36.944056 L14.9868324,36.9472979 L14.9868324,36.9537817 L14.9865505,36.982677 L14.9865505,36.9850731 L14.9865505,36.994235 L14.9864095,37.0307417 L14.9864095,37.0368027 L14.9862686,37.0687989 L14.9862686,37.0724636 L14.9862686,37.080075 L14.9862686,37.1174274 L14.9862686,37.1494236 L14.9862686,37.1606998 L14.9862686,37.1818427 L14.9862686,37.1943874 L14.9864095,37.2145436 L14.9864095,37.2272293 L14.9866914,37.2571112 L14.9866914,37.2721931 L14.9868324,37.287557 L14.9869733,37.3065855 L14.9871143,37.3177208 L14.9872552,37.3391455 L14.9873962,37.3422465 C15.0099486,39.5880408 15.3705048,41.7525055 16.0183219,43.7889855 C16.0322762,43.8329627 16.0463714,43.8767989 16.0606076,43.920635 C16.314181,43.8669322 16.5375905,43.7099112 16.6700857,43.4804408 L20.188539,37.3863646 C20.1988286,37.3686046 20.2084133,37.3505627 20.2174343,37.3323798 C20.2363219,37.2938998 20.2523905,37.2545741 20.26564,37.2144027 C20.1950229,36.8999379 20.1310305,36.583077 20.0740857,36.2636789 L16.6700857,30.3679227 C16.5585924,30.174677 16.382261,30.0333017 16.1781619,29.9608522" id="Fill-112" fill="#1C2A47"></path>
            <path d="M27.9689695,51.3077379 L21.1161467,51.3077379 C20.89612,51.3077379 20.6376133,51.4275474 20.4629733,51.594576 L20.4428171,51.6144503 C23.5348895,55.1381189 27.7345657,57.665395 32.4988971,58.6507931 C32.5029848,58.6361341 32.5066495,58.6211931 32.5101733,58.6062522 C32.5803676,58.3053189 32.5362495,57.9842293 32.3772552,57.7089493 L29.0378114,51.9248274 C28.9642343,51.7972655 28.8696552,51.6860541 28.7599943,51.594576 C28.5413771,51.4120427 28.2625733,51.3077379 27.9689695,51.3077379" id="Fill-114" fill="#1C2A47"></path>
            <path d="M23.981328,19.3776823 C23.6195032,19.6432366 23.2659947,19.9195032 22.921507,20.2062004 L22.9177013,20.2093013 L22.8966994,20.2269204 L22.8852823,20.2363642 L22.8735832,20.2462309 L22.8420099,20.272589 L22.8413051,20.2731528 C22.1093394,20.888128 21.4182499,21.5497585 20.7721242,22.2538156 C20.6909356,22.3421928 20.6105928,22.4314156 20.5308137,22.5212023 C20.6858613,22.6212785 20.8678309,22.6868213 21.0293623,22.6868213 L21.9747299,22.6868213 C22.5472785,21.5221318 23.2200442,20.4152328 23.981328,19.3776823" id="Fill-116" fill="#1C2A47"></path>
            <path d="M20.168397,22.9395208 C19.8964998,23.261456 19.6339055,23.5911436 19.3806141,23.9284427 C18.3257265,25.333456 17.4350484,26.8691322 16.7373341,28.506717 C16.6070941,28.8124427 16.4836198,29.1216922 16.3670522,29.4343246 L16.515757,29.4396808 C16.515757,29.4396808 19.9860046,23.3654789 20.3149874,23.0724389 L20.168397,22.9395208" id="Fill-118" fill="#E8E9EC"></path>
            <path id="Fill-120" fill="#CFD2D9"></path>
            <path d="M53.5995813,50.8801448 C53.4183166,50.9967124 53.2357832,51.11032 53.0509947,51.2216724 C53.1899737,51.2305524 53.3527737,51.3282324 53.4208537,51.4462095 L53.496827,51.578 L53.780987,51.0857943 L53.5782975,50.9019924 L53.5995813,50.8801448" id="Fill-122" fill="#CFD2D9"></path>
            <path id="Fill-124" fill="#CFD2D9"></path>
            <polygon id="Fill-126" fill="#565A9B" points="37.1062608 59.1074225 37.1032608 59.1074225 37.0627608 59.1074225 37.0557608 59.1074225"></polygon>
            <path id="Fill-128" fill="#CFD2D9"></path>
            <polygon id="Fill-130" fill="#565A9B" points="37.0494417 59.1075634 37.0369417 59.1075634 37.0159417 59.1075634"></polygon>
            <path id="Fill-132" fill="#CFD2D9"></path>
            <path d="M54.7161356,50.1124053 C54.3523375,50.3793691 53.9798004,50.6354796 53.5995109,50.880173 L53.578368,50.9020206 L53.7810575,51.0858225 L53.8828251,51.1780053 C54.1710728,50.8316853 54.4491718,50.4762034 54.7161356,50.1124053" id="Fill-134" fill="#E8E9EC"></path>
            <path d="M16.5157429,44.5347223 L16.2765467,44.5434613 L16.2731638,44.5436023 C17.1439676,46.9710842 18.4288895,49.2010918 20.043781,51.1479261 L20.0739448,51.1205813 L20.3149733,50.9021051 C19.9859905,50.6090651 16.5157429,44.5347223 16.5157429,44.5347223" id="Fill-136" fill="#E8E9EC"></path>
            <path d="M40.4492598,58.4062971 L33.3400446,58.4062971 L33.2739379,58.6129333 L33.2185436,58.7864457 C34.3997246,58.989981 35.6130427,59.1002057 36.8507455,59.1072533 L36.8601893,59.1072533 L36.8797817,59.1073943 L36.8951455,59.1075352 L36.9112141,59.1075352 L36.9312293,59.1075352 L36.9434922,59.1075352 L36.976475,59.1076762 L37.0135455,59.1075352 L37.0218617,59.1075352 L37.0253855,59.1075352 L37.0527303,59.1075352 L37.0576636,59.1075352 L37.0692217,59.1073943 L37.0724636,59.1073943 L37.095157,59.1072533 L37.1182731,59.1071124 L37.1241931,59.1071124 C38.3062198,59.099219 39.4655531,58.9966057 40.5961322,58.809421 L40.5245284,58.6129333 L40.4492598,58.4062971" id="Fill-138" fill="#E8E9EC"></path>
            <path d="M53.051051,51.2217147 C50.197893,52.9407699 46.9232872,54.0307547 43.4182244,54.2984232 L41.4991577,57.6222213 C41.332411,57.9111737 41.2922396,58.250587 41.3779387,58.5642061 C41.3868187,58.5966251 41.3969672,58.6287623 41.4085253,58.6606175 C46.1937177,57.6809985 50.4125634,55.1468156 53.5147844,51.6087699 L53.4968834,51.5779013 L53.4209101,51.4462518 C53.3526891,51.3282747 53.1900301,51.2305947 53.051051,51.2217147" id="Fill-140" fill="#1C2A47"></path>
        </g>
    </g>
</svg>