<?xml version="1.0" encoding="UTF-8" standalone="no"?>
<svg width="74px" height="74px" viewBox="0 0 74 74" version="1.1" xmlns="http://www.w3.org/2000/svg" xmlns:xlink="http://www.w3.org/1999/xlink">
    <!-- Generator: Sketch 3.8.3 (29802) - http://www.bohemiancoding.com/sketch -->
    <title>sports</title>
    <desc>Created with Sketch.</desc>
    <defs></defs>
    <g id="Page-1" stroke="none" stroke-width="1" fill="none" fill-rule="evenodd">
        <g id="sports">
            <rect id="Rectangle-48" fill="#5D60A5" x="0" y="0" width="74" height="74"></rect>
            <path d="M35.3681661,33.1224564 L23.2313204,33.1224564 C20.0658118,33.1224564 17.4904709,30.5471154 17.4904709,27.3816069 L17.4904709,24.3404183 L35.3681661,24.3404183 L35.3681661,21.4351078 L16.486467,21.4351078 C15.4380632,21.4351078 14.5851604,22.2880107 14.5851604,23.3364145 L14.5851604,27.3816069 C14.5851604,32.1491802 18.463747,36.0277669 23.2313204,36.0277669 L35.3681661,36.0277669 L35.3681661,33.1224564 Z" id="Fill-4" fill="#FFD62E"></path>
            <path d="M57.6707935,21.4350796 L36.0599745,21.4350796 L36.0599745,24.3403901 L56.6667897,24.3403901 L56.6667897,27.3815787 C56.6667897,30.5470872 54.0914488,33.1224282 50.9259402,33.1224282 L36.0599745,33.1224282 L36.0599745,36.0278796 L50.9259402,36.0278796 C55.6935135,36.0278796 59.5722411,32.149152 59.5722411,27.3815787 L59.5722411,23.3363863 C59.5722411,22.2879825 58.7191973,21.4350796 57.6707935,21.4350796" id="Fill-6" fill="#FFD62E"></path>
            <path d="M19.4928968,31.6991333 L19.4928968,35.1574 C20.634893,35.7144438 21.916573,36.027781 23.2702796,36.027781 L35.4071253,36.027781 L35.4071253,33.1224705 L23.2702796,33.1224705 C21.824672,33.1224705 20.5032434,32.5841733 19.4928968,31.6991333" id="Fill-8" fill="#CCAA2C"></path>
            <polygon id="Fill-10" fill="#CCAA2C" points="19.4928686 24.3405029 35.4070971 24.3405029 35.4070971 21.4351924 19.4928686 21.4351924"></polygon>
            <polygon id="Fill-12" fill="#CCAA2C" points="36.0988914 24.3403619 54.5900114 24.3403619 54.5900114 21.4350514 36.0988914 21.4350514"></polygon>
            <path d="M54.5900255,31.8255676 C53.6006808,32.6344933 52.3395798,33.1224705 50.9648712,33.1224705 L36.0989055,33.1224705 L36.0989055,36.027781 L50.9648712,36.027781 C52.2603646,36.027781 53.4860865,35.734741 54.5900255,35.2215333 L54.5900255,31.8255676 Z" id="Fill-13" fill="#CCAA2C"></path>
            <path d="M37.0786373,37.9814937 L34.6045002,37.9814937 C34.8562411,39.5722823 34.9901459,41.2250899 34.9901459,42.9218747 C34.9901459,52.3725909 36.4053078,52.4887356 30.5416888,55.9274099 C29.2041916,56.7118099 28.359464,58.1231661 28.359464,59.6736423 L28.359464,59.7015509 C28.359464,59.7300232 28.3825802,59.7529985 28.4110526,59.7529985 L37.0786373,59.7529985 L37.0786373,37.9814937 Z" id="Fill-14" fill="#F2CA26"></path>
            <path d="M37.0786373,37.9814937 L39.5527745,37.9814937 C39.3010335,39.5722823 39.1671288,41.2250899 39.1671288,42.9218747 C39.1671288,52.3725909 37.7519669,52.4887356 43.6155859,55.9274099 C44.953083,56.7118099 45.7978107,58.1231661 45.7978107,59.6736423 L45.7978107,59.7015509 C45.7978107,59.7300232 45.7746945,59.7529985 45.7462221,59.7529985 L37.0786373,59.7529985 L37.0786373,37.9814937 Z" id="Fill-15" fill="#F2CA26"></path>
            <path d="M37.0786373,37.9838617 L34.6045002,37.9838617 C34.667365,38.3816293 34.7230411,38.7832027 34.770965,39.1882998 C34.9148773,40.4038731 34.9901459,41.6517246 34.9901459,42.9242427 C34.9901459,45.711576 35.1130564,47.8069741 35.1363135,49.464715 C35.771445,49.5192636 36.4198259,49.5509779 37.0786373,49.5590122 L37.0786373,37.9838617 Z" id="Fill-16" fill="#CCAA2C"></path>
            <path d="M37.0786373,37.9838617 L39.5527745,37.9838617 C39.4899097,38.3816293 39.4342335,38.7832027 39.3863097,39.1882998 C39.2423973,40.4038731 39.1671288,41.6517246 39.1671288,42.9242427 C39.1671288,45.711576 39.0442183,47.8069741 39.0209611,49.464715 C38.3858297,49.5192636 37.7374488,49.5509779 37.0786373,49.5590122 L37.0786373,37.9838617 Z" id="Fill-17" fill="#CCAA2C"></path>
            <path d="M37.0786514,46.9249928 L37.0786514,46.9249928 C29.241699,46.9249928 21.5052457,40.571987 21.5052457,32.7350347 L21.5052457,16.1650956 C21.5052457,15.6600632 21.9147124,15.2505966 22.4197448,15.2505966 L51.7375581,15.2505966 C52.2425905,15.2505966 52.6520571,15.6600632 52.6520571,16.1650956 L52.6520571,32.7350347 C52.6520571,40.571987 44.9154629,46.9249928 37.0786514,46.9249928" id="Fill-18" fill="#FFD62E"></path>
            <path d="M37.1176248,15.2505543 L22.4587181,15.2505543 C21.9536857,15.2505543 21.544219,15.660021 21.544219,16.1650533 L21.544219,32.7351333 C21.544219,40.5719448 29.2808133,46.9249505 37.1176248,46.9249505 L37.1176248,15.2505543 Z" id="Fill-19" fill="#E7C429"></path>
            <path d="M37.4989573,23.0129288 L39.9653421,28.0105364 L45.4805269,28.8118507 C45.865045,28.8678088 46.0185421,29.3401402 45.7403021,29.6113326 L41.7495173,33.5014773 L42.691643,38.9942507 C42.7573269,39.3772183 42.3553307,39.6691307 42.0115478,39.4884297 L37.0786373,36.8950469 L32.1457269,39.4884297 C31.801944,39.6691307 31.3999478,39.3772183 31.4656316,38.9942507 L32.4077573,33.5014773 L28.4169726,29.6113326 C28.1387326,29.3401402 28.2922297,28.8678088 28.6767478,28.8118507 L34.1919326,28.0105364 L36.6583173,23.0129288 C36.8302792,22.6644945 37.3269954,22.6644945 37.4989573,23.0129288" id="Fill-20" fill="#2F75C0"></path>
            <path d="M45.4805269,28.8118648 L39.9653421,28.0104095 L37.4989573,23.0129429 C37.4055059,22.8236438 37.2163478,22.7380857 37.035365,22.7544362 L37.035365,36.9177543 L37.0786373,36.895061 L42.0115478,39.4884438 C42.3553307,39.6691448 42.7573269,39.3772324 42.691643,38.9942648 L41.7495173,33.5014914 L45.7403021,29.6113467 C46.0185421,29.3401543 45.865045,28.8676819 45.4805269,28.8118648" id="Fill-21" fill="#4E96E5"></path>
            <path d="M52.6520712,17.7925882 L21.5441627,17.7925882 L21.5441627,16.6191596 C21.5441627,15.863232 22.1568827,15.250512 22.9128103,15.250512 L51.2835646,15.250512 C52.0393512,15.250512 52.6520712,15.863232 52.6520712,16.6191596 L52.6520712,17.7925882 Z" id="Fill-22" fill="#FFD62E"></path>
            <path d="M46.4109676,64.2028933 L27.6809333,64.2028933 C27.0797714,64.2028933 26.5923581,63.71548 26.5923581,63.1143181 L26.5923581,55.4314267 C26.5923581,54.8302648 27.0797714,54.3428514 27.6809333,54.3428514 L46.4109676,54.3428514 C47.0121295,54.3428514 47.4995429,54.8302648 47.4995429,55.4314267 L47.4995429,63.1143181 C47.4995429,63.71548 47.0121295,64.2028933 46.4109676,64.2028933" id="Fill-23" fill="#F1C71A"></path>
            <path d="M46.4109394,54.3428937 L37.117667,54.3428937 L37.117667,64.2029356 L46.4109394,64.2029356 C47.0121013,64.2029356 47.4995147,63.7155223 47.4995147,63.1143604 L47.4995147,55.431469 C47.4995147,54.830307 47.0121013,54.3428937 46.4109394,54.3428937" id="Fill-24" fill="#FFDB4A"></path>
        </g>
    </g>
</svg>