<?xml version="1.0" encoding="UTF-8" standalone="no"?>
<svg width="74px" height="74px" viewBox="0 0 74 74" version="1.1" xmlns="http://www.w3.org/2000/svg" xmlns:xlink="http://www.w3.org/1999/xlink">
    <!-- Generator: Sketch 3.8.3 (29802) - http://www.bohemiancoding.com/sketch -->
    <title>stats</title>
    <desc>Created with Sketch.</desc>
    <defs></defs>
    <g id="Page-1" stroke="none" stroke-width="1" fill="none" fill-rule="evenodd">
        <g id="stats">
            <rect id="Rectangle-48" fill="#5D60A5" x="0" y="-2.27373675e-13" width="74" height="74"></rect>
            <path d="M33.4616019,36.617709 L27.8887676,36.617709 C27.5774038,36.617709 27.3249581,36.8701547 27.3249581,37.1815185 L27.3249581,50.499968 C27.3249581,50.8113318 27.5774038,51.0637775 27.8887676,51.0637775 L33.4616019,51.0637775 C33.7729657,51.0637775 34.0254114,50.8113318 34.0254114,50.499968 L34.0254114,37.1815185 C34.0254114,36.8701547 33.7729657,36.617709 33.4616019,36.617709" id="Fill-4" fill="#4E96E5"></path>
            <path d="M60.0534667,31.5028712 L54.4806324,31.5028712 C54.1692686,31.5028712 53.9168229,31.755317 53.9168229,32.0666808 L53.9168229,50.4998693 C53.9168229,50.8113741 54.1692686,51.0636789 54.4806324,51.0636789 L60.0534667,51.0636789 C60.3648305,51.0636789 60.6172762,50.8113741 60.6172762,50.4998693 L60.6172762,32.0666808 C60.6172762,31.755317 60.3648305,31.5028712 60.0534667,31.5028712" id="Fill-6" fill="#FFD62E"></path>
            <path d="M42.3255615,25.5223181 L36.7527272,25.5223181 C36.4413634,25.5223181 36.1889177,25.7747638 36.1889177,26.0861276 L36.1889177,50.4999257 C36.1889177,50.8112895 36.4413634,51.0637352 36.7527272,51.0637352 L42.3255615,51.0637352 C42.6369253,51.0637352 42.889371,50.8112895 42.889371,50.4999257 L42.889371,26.0861276 C42.889371,25.7747638 42.6369253,25.5223181 42.3255615,25.5223181" id="Fill-8" fill="#FFD62E"></path>
            <path d="M51.189507,15.8804846 L45.6166728,15.8804846 C45.305309,15.8804846 45.0528632,16.1329303 45.0528632,16.4442941 L45.0528632,50.4999398 C45.0528632,50.8113036 45.305309,51.0637493 45.6166728,51.0637493 L51.189507,51.0637493 C51.5008709,51.0637493 51.7533166,50.8113036 51.7533166,50.4999398 L51.7533166,16.4442941 C51.7533166,16.1329303 51.5008709,15.8804846 51.189507,15.8804846" id="Fill-10" fill="#4E96E5"></path>
            <path d="M27.3250004,48.004392 L27.3250004,52.4732872 C27.3250004,52.784651 27.5774461,53.0370968 27.8888099,53.0370968 L33.4616442,53.0370968 C33.773008,53.0370968 34.0254537,52.784651 34.0254537,52.4732872 L34.0254537,48.004392 L27.3250004,48.004392 Z" id="Fill-12" fill="#2F75C0"></path>
            <path d="M53.9168792,48.004392 L53.9168792,52.4732872 C53.9168792,52.784651 54.169325,53.0370968 54.4806888,53.0370968 L60.053523,53.0370968 C60.3648869,53.0370968 60.6173326,52.784651 60.6173326,52.4732872 L60.6173326,48.004392 L53.9168792,48.004392 Z" id="Fill-14" fill="#E1BD24"></path>
            <path d="M36.1889459,48.004392 L36.1889459,52.4732872 C36.1889459,52.784651 36.4413916,53.0370968 36.7527554,53.0370968 L42.3255897,53.0370968 C42.6369535,53.0370968 42.8893992,52.784651 42.8893992,52.4732872 L42.8893992,48.004392 L36.1889459,48.004392 Z" id="Fill-16" fill="#E1BD24"></path>
            <path d="M45.0529055,48.004392 L45.0529055,52.4732872 C45.0529055,52.784651 45.3053512,53.0370968 45.616715,53.0370968 L51.1895493,53.0370968 C51.5009131,53.0370968 51.7533589,52.784651 51.7533589,52.4732872 L51.7533589,48.004392 L45.0529055,48.004392 Z" id="Fill-18" fill="#2F75C0"></path>
            <path d="M15.3058499,51.7408564 L15.3058499,51.5125135 C15.3058499,50.7585592 15.9170194,50.1472488 16.6711147,50.1472488 L61.7736213,50.1472488 C62.5277166,50.1472488 63.1388861,50.7585592 63.1388861,51.5125135 L63.1388861,51.7408564 C63.1388861,52.4948107 62.5277166,53.1061211 61.7736213,53.1061211 L16.6711147,53.1061211 C15.9170194,53.1061211 15.3058499,52.4948107 15.3058499,51.7408564" id="Fill-20" fill="#1C2A47"></path>
            <path d="M23.3288594,59.4252137 L23.3288594,59.4252137 C22.5117585,59.4252137 21.8494232,58.7628785 21.8494232,57.9457775 L21.8494232,13.3800175 C21.8494232,12.5629166 22.5117585,11.9005813 23.3288594,11.9005813 L23.3288594,11.9005813 C24.1459604,11.9005813 24.8082956,12.5629166 24.8082956,13.3800175 L24.8082956,57.9457775 C24.8082956,58.7628785 24.1459604,59.4252137 23.3288594,59.4252137" id="Fill-22" fill="#1C2A47"></path>
            <path d="M45.2757794,63.1894739 L44.0224309,61.3322853 L42.7569604,63.1904606 C42.7001566,63.2740453 42.6055775,63.3240834 42.5045147,63.3240834 L41.526728,63.3240834 C41.2802023,63.3240834 41.1353032,63.047112 41.2758328,62.8444225 L43.0449261,60.2936072 L41.3955013,57.9009406 C41.2556766,57.698251 41.4008575,57.4221253 41.6469604,57.4221253 L42.6382785,57.4221253 C42.7396232,57.4221253 42.8344842,57.4724453 42.891288,57.5565939 L44.0224309,59.2305444 L45.1414518,57.5577215 C45.1981147,57.4730091 45.2933985,57.4221253 45.395448,57.4221253 L46.3876118,57.4221253 C46.6334328,57.4221253 46.7786137,57.6975463 46.6396347,57.9002358 L44.9999356,60.2936072 L46.7691699,62.8444225 C46.9096994,63.047112 46.7646594,63.3240834 46.5181337,63.3240834 L45.5289299,63.3240834 C45.4274442,63.3240834 45.3325832,63.2736225 45.2757794,63.1894739" id="Fill-24" fill="#F0F8FC"></path>
            <path d="M12.7530895,35.4819429 C12.7793067,35.3173105 12.9332267,35.2018705 13.097859,35.2278057 C13.1677714,35.238941 13.2364152,35.24472 13.2951924,35.24472 C13.6984571,35.24472 13.9672533,35.1347771 14.1138438,34.8170705 L14.3338705,34.3038629 L12.1068229,28.7478019 C12.026339,28.5470857 12.1741981,28.3286095 12.390419,28.3286095 L13.3890667,28.3286095 C13.5163467,28.3286095 13.6303771,28.4075429 13.675059,28.5267886 L15.140259,32.4342705 L16.617581,28.5260838 C16.6624038,28.407261 16.7762933,28.3286095 16.9032914,28.3286095 L17.9012343,28.3286095 C18.1177371,28.3286095 18.2655962,28.5476495 18.1844076,28.7485067 L15.5801714,35.1959505 C15.140259,36.3079238 14.3582552,36.6011048 13.3441029,36.6256305 C13.242899,36.6256305 13.0605067,36.6128038 12.8903771,36.5896876 C12.7215162,36.5667124 12.6056533,36.4075771 12.6324343,36.239139 L12.7530895,35.4819429 Z" id="Fill-26" fill="#F0F8FC"></path>
        </g>
    </g>
</svg>