<?xml version="1.0" encoding="UTF-8" standalone="no"?>
<svg width="74px" height="74px" viewBox="0 0 74 74" version="1.1" xmlns="http://www.w3.org/2000/svg" xmlns:xlink="http://www.w3.org/1999/xlink">
    <!-- Generator: Sketch 3.8.3 (29802) - http://www.bohemiancoding.com/sketch -->
    <title>tech</title>
    <desc>Created with Sketch.</desc>
    <defs></defs>
    <g id="Page-1" stroke="none" stroke-width="1" fill="none" fill-rule="evenodd">
        <g id="tech">
            <rect id="Rectangle-36" fill="#38B88D" x="0" y="0" width="74" height="74"></rect>
            <polygon id="Fill-4" fill="#CCDBDA" points="32.5179962 57.9612267 41.1160914 57.9612267 41.1160914 46.6850362 32.5179962 46.6850362"></polygon>
            <polygon id="Fill-6" fill="#A5ACAC" points="32.5179962 52.102541 41.1160914 52.102541 41.1160914 44.2888457 32.5179962 44.2888457"></polygon>
            <path d="M48.987859,59.7483337 L25.1353333,59.7483337 C24.553341,59.7483337 24.0817143,59.2765661 24.0817143,58.6947147 L24.0817143,58.3841966 C24.0817143,57.8022042 24.553341,57.3305775 25.1353333,57.3305775 L48.987859,57.3305775 C49.5697105,57.3305775 50.0414781,57.8022042 50.0414781,58.3841966 L50.0414781,58.6947147 C50.0414781,59.2765661 49.5697105,59.7483337 48.987859,59.7483337" id="Fill-7" fill="#F0F8FC"></path>
            <path d="M13.6870541,20.760736 L60.265755,20.760736 L60.265755,48.0956312 C60.265755,48.9699589 59.5570465,49.6786674 58.6828598,49.6786674 L15.2699493,49.6786674 C14.3957627,49.6786674 13.6870541,48.9699589 13.6870541,48.0956312 L13.6870541,20.760736 Z" id="Fill-8" fill="#F0F8FC"></path>
            <path d="M60.265741,45.0976587 L13.68704,45.0976587 L13.68704,17.7627634 C13.68704,16.8884358 14.3957486,16.1797272 15.2699352,16.1797272 L58.6828457,16.1797272 C59.5570324,16.1797272 60.265741,16.8884358 60.265741,17.7627634 L60.265741,45.0976587 Z" id="Fill-9" fill="#000000"></path>
            <path d="M34.6311966,18.0341813 C34.6311966,18.4729661 34.2754328,18.8287299 33.836648,18.8287299 C33.3978632,18.8287299 33.0420994,18.4729661 33.0420994,18.0341813 C33.0420994,17.5953966 33.3978632,17.2396328 33.836648,17.2396328 C34.2754328,17.2396328 34.6311966,17.5953966 34.6311966,18.0341813" id="Fill-10" fill="#4EBFAF"></path>
            <polygon id="Fill-11" fill="#4A90E2" points="16.5022819 42.4752114 57.5914514 42.4752114 57.5914514 19.9236762 16.5022819 19.9236762"></polygon>
            <polygon id="Fill-12" fill="#2F75B5" points="57.5356766 42.475155 16.5874594 42.475155 16.5874594 19.9236198"></polygon>
        </g>
    </g>
</svg>