<?xml version="1.0" encoding="UTF-8" standalone="no"?>
<svg width="74px" height="74px" viewBox="0 0 74 74" version="1.1" xmlns="http://www.w3.org/2000/svg" xmlns:xlink="http://www.w3.org/1999/xlink">
    <!-- Generator: Sketch 3.8.3 (29802) - http://www.bohemiancoding.com/sketch -->
    <title>theater</title>
    <desc>Created with Sketch.</desc>
    <defs></defs>
    <g id="Page-1" stroke="none" stroke-width="1" fill="none" fill-rule="evenodd">
        <g id="theater">
            <rect id="Rectangle-48" fill="#5D60A5" x="0" y="0.0937333333" width="74" height="74"></rect>
            <polygon id="Fill-4" fill="#488BD9" points="66.9092213 35.2614792 60.427949 33.6456011 61.656349 28.7191745 68.1374804 30.3350526 66.1941699 32.4669573"></polygon>
            <polygon id="Fill-6" fill="#54A5ED" points="62.2945531 36.7272149 55.8132808 35.1113368 57.0416808 30.1849101 63.5228122 31.8007882"></polygon>
            <polygon id="Fill-8" fill="#25344C" points="61.042149 31.1823455 61.6562785 28.7192027 63.5227699 31.8008446"></polygon>
            <polygon id="Fill-10" fill="#488BD9" points="18.9966739 20.6400659 25.3124682 22.8145383 26.9652758 18.0138411 20.6494815 15.8393688 21.1182891 18.6856202"></polygon>
            <polygon id="Fill-12" fill="#54A5ED" points="22.068717 24.382549 28.3845112 26.5570213 30.0373189 21.7563242 23.7215246 19.5818518"></polygon>
            <polygon id="Fill-14" fill="#25344C" points="26.1388579 20.4141474 26.9652617 18.0138693 23.7215246 19.5819646"></polygon>
            <path d="M21.9729821,40.275987 C17.8480107,41.8662118 13.9374278,42.7972023 11.015344,43.0013013 C10.6029173,43.0300556 10.3277783,43.4386766 10.4592869,43.8306651 L13.4597402,52.7663413 C14.1041745,54.4376137 15.2675954,55.8581318 16.7793097,56.8190042 L24.0390621,60.7751147 C25.8674964,61.9371261 27.9707878,61.727248 29.9921859,60.9479223 C32.013584,60.1685966 33.7136107,58.9125699 34.2886964,56.8237966 L37.0144335,49.0181356 C37.4898659,47.291328 37.3989516,45.4572556 36.7545173,43.7861242 L32.9691002,35.122768 C32.8029173,34.7427604 32.3226926,34.625347 31.9977973,34.883149 C29.6966088,36.7097509 26.1416488,38.668989 21.9729821,40.275987" id="Fill-16" fill="#D4E4F3"></path>
            <path d="M22.336752,40.1341608 C22.2159558,40.1816617 22.0947368,40.2290217 21.9729539,40.2759589 C17.8478415,41.8661836 13.9373996,42.7971741 11.0153158,43.0012731 C10.6028891,43.0300274 10.3277501,43.4386484 10.4593996,43.830637 L13.459712,52.7663131 C14.1041463,54.4377265 15.2675672,55.8581036 16.7792815,56.818976 L24.0391749,60.7750865 C25.7163672,61.8411093 27.6248625,61.7521684 29.4892396,61.128595 L22.336752,40.1341608 Z" id="Fill-18" fill="#A7BECB"></path>
            <path d="M22.9079333,57.5018903 C22.0749048,55.3410903 23.6645657,52.7161341 26.4585238,51.639117 C29.2526229,50.5619589 32.1928895,51.440515 33.0259181,53.601315 C33.8589467,55.762115 30.7131714,54.350477 27.9190724,55.427635 C25.1251143,56.5046522 23.7409619,59.6626903 22.9079333,57.5018903" id="Fill-20" fill="#132135"></path>
            <path d="M20.6400659,45.9827543 C20.2912088,45.971901 19.9458754,46.025181 19.6140735,46.1413257 C18.8977535,46.391939 18.3213992,46.9076838 17.9914297,47.5931352 C17.6611783,48.2787276 17.617483,49.0508648 17.8682373,49.7671848 C17.949285,49.9990514 18.1690297,50.160019 18.4148507,50.1676305 C18.4882869,50.1700267 18.5610183,50.1587505 18.6307897,50.1343657 C18.9421535,50.0254095 19.1067859,49.6833181 18.9978297,49.3718133 C18.6976011,48.5138362 19.1513269,47.5712876 20.009445,47.2709181 C20.201704,47.2035429 20.4017154,47.1726743 20.6035592,47.1790171 C21.2812583,47.200301 21.8867897,47.6437371 22.1103402,48.2825333 C22.1913878,48.5144 22.4111326,48.6753676 22.6570945,48.682979 C22.7305307,48.6853752 22.8031211,48.674099 22.8728926,48.6497143 C23.1843973,48.5406171 23.3490297,48.1986667 23.2400735,47.8871619 C22.8541459,46.7846324 21.8094069,46.0194019 20.6400659,45.9827543" id="Fill-22" fill="#132135"></path>
            <path d="M31.7267459,44.9168301 C31.3409592,43.8144415 30.2962202,43.0490701 29.1270202,43.0124225 C28.7780221,43.0015691 28.4328297,43.0548491 28.1008869,43.1709939 C26.6200411,43.6894168 25.8366278,45.3160072 26.3550507,46.7969939 C26.4360983,47.0287196 26.655843,47.1896872 26.901664,47.1974396 C26.9752411,47.1996949 27.0476907,47.1885596 27.117603,47.1641749 C27.4289669,47.0552187 27.5937402,46.7129863 27.484784,46.4014815 C27.3394621,45.9866587 27.3648335,45.5392758 27.5561059,45.141931 C27.7475192,44.7447272 28.0812945,44.4459082 28.4963992,44.3007272 C28.6886583,44.233352 28.8885288,44.2024834 29.0905135,44.2088263 C29.7680716,44.2299691 30.373603,44.6734053 30.5972945,45.3123425 C30.678483,45.5442091 30.8980869,45.7051768 31.1437669,45.7127882 C31.217344,45.7151844 31.2899345,45.7039082 31.3597059,45.6793825 C31.510384,45.6266663 31.631603,45.5182739 31.7009516,45.3740796 C31.7704411,45.2300263 31.779603,45.0676491 31.7267459,44.9168301" id="Fill-24" fill="#132135"></path>
            <path d="M45.2680834,20.2623699 C39.7248491,18.7014632 34.9199234,16.6204423 31.7131158,14.5526709 C31.2606587,14.2607585 30.6547044,14.472328 30.4861253,14.9838442 L26.6415082,26.6445528 C26.0090549,28.890488 26.1139234,31.2799128 26.9404682,33.4618556 L31.4243044,43.2536766 C32.4242206,45.892587 34.7816491,47.3150785 37.4980834,48.080027 C40.2143768,48.8449756 42.9675996,48.861608 45.1976072,47.1322632 L54.1320149,41.1188118 C55.975813,39.6889909 57.3121825,37.705227 57.9444949,35.4592918 L60.7579044,23.4698823 C60.8813787,22.943989 60.471912,22.446568 59.9319234,22.4619318 C56.1063349,22.571029 50.8699539,21.839768 45.2680834,20.2623699" id="Fill-26" fill="#ECC11A"></path>
            <path d="M59.9301615,22.4614949 C56.139811,22.5694644 50.9643215,21.8522987 45.4209463,20.3047825 L37.3456434,48.0357539 C37.3958225,48.050413 37.4458606,48.0653539 37.4963215,48.0795901 C40.2127558,48.8443977 42.9659787,48.8610301 45.1959863,47.1316853 L54.1303939,41.1183749 C55.974051,39.688413 57.3104206,37.7047901 57.942733,35.4588549 L60.7561425,23.4694453 C60.8796168,22.943411 60.470291,22.4459901 59.9301615,22.4614949" id="Fill-28" fill="#FFD634"></path>
            <path d="M47.223389,39.3747093 C46.4057242,42.2784693 42.6992404,43.7752427 38.9446918,42.7179589 C35.1901432,41.660816 32.8093166,38.4497798 33.6269813,35.5460198 C34.4446461,32.6424008 36.6237699,36.569757 40.3783185,37.6270408 C44.1327261,38.6843246 48.0410537,36.4709493 47.223389,39.3747093" id="Fill-30" fill="#132135"></path>
            <path d="M38.1925558,24.8498625 C37.9230549,24.7644453 37.644251,24.7108834 37.3644606,24.6908682 C35.702632,24.5720453 34.1906358,25.5984606 33.6871539,27.1869939 C33.5770701,27.5347234 33.7703158,27.9072606 34.1181863,28.0176263 C34.1679425,28.033272 34.2192491,28.0431387 34.2706968,28.0468034 C34.5771272,28.068792 34.855931,27.8796339 34.9486777,27.5867349 C35.2663844,26.5838587 36.2209139,25.9359006 37.2700225,26.0108872 C37.4467768,26.023573 37.6226853,26.0574015 37.7929558,26.1112453 C38.3687463,26.2937787 38.8396682,26.6905596 39.1187539,27.228293 C39.3975577,27.7661672 39.4508377,28.379592 39.2683044,28.9553825 C39.2148834,29.1236796 39.2305291,29.3028301 39.3118587,29.459851 C39.3933291,29.616872 39.5308987,29.7327349 39.6991958,29.7861558 C39.748811,29.8018015 39.8001177,29.8116682 39.8518472,29.815333 C40.1581368,29.8373215 40.4369406,29.6480225 40.5298282,29.3551234 C40.8189215,28.4427387 40.734632,27.4711539 40.2927463,26.6192377 C39.8508606,25.7673215 39.1050815,25.1389558 38.1925558,24.8498625" id="Fill-32" fill="#132135"></path>
            <path d="M49.3578027,28.3878941 C49.0883017,28.302477 48.8096389,28.249056 48.5298484,28.2290408 C46.8680198,28.1102179 45.3560236,29.1364922 44.8525417,30.7250255 C44.7992617,30.8931817 44.8147665,31.0723322 44.896096,31.2293531 C44.9777074,31.386515 45.115136,31.5023779 45.2834331,31.5556579 C45.3331893,31.5713036 45.384496,31.5811703 45.4360846,31.584835 C45.7423741,31.6068236 46.0213189,31.4175246 46.1140655,31.1247665 C46.4317722,30.1218903 47.3864427,29.4739322 48.4354103,29.5489189 C48.6120236,29.5616046 48.7880731,29.5954331 48.9583436,29.6494179 C50.1491093,30.0267474 50.8108808,31.3026484 50.4335512,32.4934141 C50.3233265,32.8412846 50.5167131,33.2139627 50.8644427,33.3241874 C50.9140579,33.3398331 50.9653646,33.3496998 51.0170941,33.3533646 C51.3235246,33.3753531 51.6023284,33.1860541 51.695075,32.893155 C52.2928541,31.0067893 51.2443093,28.9856731 49.3578027,28.3878941" id="Fill-34" fill="#132135"></path>
            <path d="M28.6167726,37.1367661 C28.082704,37.4451699 27.5229821,37.7516004 26.9369021,38.0542251 L26.9381707,38.0570442 C27.5238278,37.7548423 28.0848183,37.4485528 28.618605,37.1407128 L28.6167726,37.1367661" id="Fill-36" fill="#3D406A"></path>
            <path d="M28.6185627,37.1406423 C28.084917,37.4486232 27.5237855,37.7547718 26.9381284,38.0569737 L29.2091531,43.0162423 C30.3449474,43.085309 31.3500789,43.8403909 31.7267036,44.9168442 C31.7795608,45.0675223 31.7703989,45.2300404 31.7009093,45.3740937 C31.6315608,45.518288 31.5103417,45.6266804 31.3596636,45.6793966 C31.2958122,45.701808 31.2297055,45.7130842 31.1626122,45.7130842 L31.1437246,45.7128023 C30.8980446,45.7051909 30.6784408,45.5442232 30.5972522,45.3123566 C30.4608103,44.9223413 30.1820065,44.6051985 29.831317,44.4123756 C30.9888179,47.001248 33.3050884,48.8240442 36.7209284,49.8414385 L37.0080484,49.0186994 C37.1006541,48.682387 37.1711303,48.341987 37.2208865,47.9994728 C34.6200331,47.2169051 32.3843874,45.8048442 31.4180179,43.2543109 L28.6185627,37.1406423" id="Fill-38" fill="#848F99"></path>
            <path d="M29.2091109,43.0162705 L29.6569166,43.9941981 C29.711747,44.1358552 29.7698194,44.2751162 29.8312747,44.4124038 C30.1819642,44.6050857 30.460768,44.9223695 30.5972099,45.3123848 C30.6783985,45.5441105 30.8980023,45.7050781 31.1438232,45.7128305 L31.1625699,45.7131124 C31.2296632,45.7131124 31.2957699,45.7018362 31.3596213,45.6794248 C31.5104404,45.6267086 31.6316594,45.5183162 31.701008,45.3741219 C31.7704975,45.2299276 31.7795185,45.0675505 31.7268023,44.9168724 C31.3500366,43.8402781 30.3449051,43.0853371 29.2091109,43.0162705" id="Fill-40" fill="#111A27"></path>
        </g>
    </g>
</svg>