<?xml version="1.0" encoding="UTF-8" standalone="no"?>
<svg width="74px" height="74px" viewBox="0 0 74 74" version="1.1" xmlns="http://www.w3.org/2000/svg" xmlns:xlink="http://www.w3.org/1999/xlink">
    <!-- Generator: Sketch 3.8.3 (29802) - http://www.bohemiancoding.com/sketch -->
    <title>track</title>
    <desc>Created with Sketch.</desc>
    <defs></defs>
    <g id="Page-1" stroke="none" stroke-width="1" fill="none" fill-rule="evenodd">
        <g id="track">
            <rect id="Rectangle-48" fill="#284579" x="0" y="0" width="74" height="74"></rect>
            <path d="M31.3803695,30.4852655 L27.3419429,28.1309379 L20.9417181,32.8142217 L15.4664229,26.9342522 C14.9867619,26.4190712 14.1978514,26.3433798 13.6289676,26.7579208 C13.0052533,27.2123512 12.8707848,28.0878065 13.3291619,28.7085608 L19.5908305,37.1888198 C20.0920571,37.8677874 21.0474324,38.0146598 21.729501,37.5176617 L31.3803695,30.4852655 Z" id="Fill-4" fill="#4A90E2"></path>
            <path d="M61.242555,48.4969501 L61.242555,48.4969501 C60.9679798,47.6953539 60.1394617,47.2235863 59.309816,47.3965349 L48.4635303,49.657552 L38.4167265,33.0635101 L35.4496789,42.4715177 L45.1452293,54.4462682 C45.6254541,55.0392549 46.4239493,55.2711215 47.147176,55.0275558 L60.1892179,50.6340701 C61.0720027,50.3366606 61.544475,49.3780434 61.242555,48.4969501" id="Fill-6" fill="#4A90E2"></path>
            <polygon id="Fill-8" fill="#3875B5" points="31.3803695 30.4852655 27.3419429 28.1309379 24.6875276 30.0732617 26.8188686 33.8090636"></polygon>
            <polygon id="Fill-10" fill="#3875B5" points="46.2894244 46.0665646 38.416811 33.0634255 35.4496225 42.4714331 41.421352 49.8470484"></polygon>
            <path d="M34.435611,16.7432682 C35.421573,19.4367272 34.0372796,22.4195615 31.3438206,23.4053825 C28.6503615,24.3913444 25.6676682,23.007192 24.6817063,20.313733 C23.6957444,17.6202739 25.0798968,14.6374396 27.7734968,13.6514777 C30.4669558,12.6655158 33.4496491,14.0498091 34.435611,16.7432682" id="Fill-12" fill="#F1C71A"></path>
            <polygon id="Fill-14" fill="#F1C71A" points="44.4299947 43.0350171 37.472867 45.3666514 27.3340213 28.1395924 39.2633851 23.4735048"></polygon>
            <polygon id="Fill-16" fill="#DFC036" points="37.4728952 45.3666091 27.3339086 28.1395501 39.2634133 23.4734625"></polygon>
            <path d="M48.4614724,24.5278145 L48.4614724,24.5278145 L39.2259905,23.4919554 L38.7512629,27.7233459 L47.9868857,28.759205 L47.1155181,36.5277954 C47.02996,37.2913345 47.5793924,37.9797459 48.3429314,38.065445 L48.672901,38.1023745 C49.38612,38.1824354 50.04324,37.7065802 50.1898305,37.0039326 L52.3486571,26.6532354 C52.5333048,25.7676316 51.9160743,24.9152926 51.01708,24.8145116 L48.4614724,24.5278145 Z" id="Fill-18" fill="#F1C71A"></path>
            <path d="M44.4166183,43.0325364 L38.9841726,37.8853783 L24.7830792,51.3545059 C24.0647859,52.0358697 24.0203859,53.165603 24.683003,53.9012335 L33.4930907,63.6813554 C34.1146907,64.3713173 35.1781764,64.4262888 35.8675745,63.803984 L36.1639973,63.5364564 C36.8051897,62.9577059 36.9031516,61.9869669 36.3905078,61.2916488 L30.783845,53.6885364 L44.4166183,43.0325364 Z" id="Fill-20" fill="#F1C71A"></path>
        </g>
    </g>
</svg>