<?xml version="1.0" encoding="UTF-8" standalone="no"?>
<svg width="74px" height="74px" viewBox="0 0 74 74" version="1.1" xmlns="http://www.w3.org/2000/svg" xmlns:xlink="http://www.w3.org/1999/xlink">
    <!-- Generator: Sketch 3.8.3 (29802) - http://www.bohemiancoding.com/sketch -->
    <title>writing</title>
    <desc>Created with Sketch.</desc>
    <defs></defs>
    <g id="Page-1" stroke="none" stroke-width="1" fill="none" fill-rule="evenodd">
        <g id="writing">
            <rect id="Rectangle-36" fill="#A6C744" x="0" y="-2.27373675e-13" width="74" height="74"></rect>
            <path d="M49.7410099,56.2530804 L18.4666366,56.2530804 C18.1208804,56.2530804 17.840667,55.972867 17.840667,55.6271109 L17.840667,18.6076594 C17.840667,18.2619032 18.1208804,17.9816899 18.4666366,17.9816899 L47.3476385,17.9816899 L56.1120575,26.746109 L56.1120575,51.1584975 L49.7410099,56.2530804 Z" id="Fill-4" fill="#FFFFFF"></path>
            <path d="M47.3476526,17.9816335 L47.3476526,26.3522316 C47.3476526,26.5979116 47.5466773,26.7969364 47.7922164,26.7969364 L56.1120716,26.7969364 L47.3476526,17.9816335 Z" id="Fill-6" fill="#DEEBF7"></path>
            <path d="M30.990904,33.851307 L29.1915059,38.6195851 C29.1352659,38.7688537 29.2454907,38.9282709 29.4050488,38.9282709 L32.9632507,38.9282709 C33.1226678,38.9282709 33.2328926,38.7688537 33.1766526,38.6195851 L31.3772545,33.851307 C31.3101611,33.6731432 31.0581383,33.6731432 30.990904,33.851307 M34.6342411,42.7421604 L33.9339897,40.8987851 C33.8973421,40.8022328 33.8048773,40.7385223 33.7015592,40.7385223 L28.6665992,40.7385223 C28.5634221,40.7385223 28.4708164,40.8022328 28.4341688,40.8987851 L27.7340583,42.7421604 C27.6737307,42.9008728 27.521643,43.0057413 27.3519364,43.0057413 L25.7061764,43.0057413 C25.5092659,43.0057413 25.3742335,42.8075623 25.4461192,42.6243242 L29.7509459,31.6651356 C29.8414373,31.4345375 30.0640011,31.2828728 30.3116545,31.2828728 L32.056504,31.2828728 C32.3041573,31.2828728 32.5267211,31.4345375 32.6172126,31.6651356 L36.9220392,42.6243242 C36.993925,42.8075623 36.8588926,43.0057413 36.6619821,43.0057413 L35.0162221,43.0057413 C34.8465154,43.0057413 34.6944278,42.9008728 34.6342411,42.7421604" id="Fill-8" fill="#000000"></path>
            <path d="M30.990904,33.851307 L30.8589726,33.8015509 L29.0595745,38.569829 C29.0435059,38.6123966 29.0356126,38.6569375 29.0356126,38.7003509 C29.0357535,38.7990175 29.0750792,38.8904956 29.140763,38.9578709 C29.205883,39.025387 29.300603,39.0695051 29.4050488,39.0692232 L32.9632507,39.0692232 C33.0675554,39.0695051 33.1621345,39.025387 33.2273954,38.9578709 C33.2929383,38.8904956 33.332264,38.7990175 33.332405,38.7003509 C33.332405,38.6570785 33.3246526,38.6126785 33.308584,38.5699699 L31.5091859,33.8015509 C31.482264,33.7295242 31.4333535,33.670747 31.3749992,33.6331128 C31.316645,33.5950556 31.2501154,33.5767318 31.1840088,33.5767318 C31.118043,33.5767318 31.0513726,33.5950556 30.9930183,33.6331128 C30.934664,33.670747 30.8857535,33.7296651 30.8589726,33.8016918 L30.990904,33.851307 L31.1228354,33.9009223 C31.1294602,33.883867 31.1372126,33.8759737 31.1470792,33.869067 C31.1569459,33.8625832 31.1701954,33.8586366 31.1840088,33.8586366 C31.1978221,33.8586366 31.2110716,33.8625832 31.2209383,33.869208 C31.2309459,33.8759737 31.2386983,33.884008 31.245464,33.9010632 L33.0447211,38.6693413 L33.0505002,38.7003509 C33.0506411,38.7224804 33.0411973,38.7450328 33.0252697,38.7613832 C33.0090602,38.7775928 32.9894678,38.7870366 32.9632507,38.7873185 L29.4050488,38.7873185 C29.3785497,38.7870366 29.3589573,38.7775928 29.3427478,38.7612423 C29.3268202,38.7448918 29.3173764,38.7224804 29.3175173,38.7003509 L29.3232964,38.6694823 L31.1228354,33.9010632 L30.990904,33.851307 Z M34.6342411,42.7421604 L34.7660316,42.6921223 L34.0657802,40.848747 C34.0082716,40.6975051 33.8633726,40.5975699 33.7015592,40.5975699 L28.6665992,40.5975699 C28.5047859,40.5975699 28.3598869,40.6975051 28.3023783,40.848747 L27.6021269,42.6921223 C27.5628011,42.7960042 27.4631478,42.864789 27.3519364,42.864789 L25.7061764,42.864789 C25.6650183,42.864507 25.6327402,42.8490023 25.6072278,42.823349 C25.5821383,42.7975547 25.5673383,42.7623166 25.5674792,42.7266556 C25.5674792,42.7100232 25.5702983,42.6935318 25.577205,42.6761947 L25.5773459,42.6757718 L29.8821726,31.7167242 C29.9515211,31.5401109 30.1219326,31.4238251 30.3116545,31.4238251 L32.056504,31.4238251 C32.2462259,31.4238251 32.4166373,31.5401109 32.4859859,31.7167242 L36.7908126,42.6757718 C36.7977192,42.6935318 36.8006792,42.7103051 36.8006792,42.7266556 C36.8008202,42.7623166 36.7858792,42.7975547 36.7607897,42.823349 C36.7354183,42.8490023 36.7029992,42.864507 36.6619821,42.864789 L35.0162221,42.864789 C34.9050107,42.864789 34.8053573,42.7960042 34.7660316,42.6921223 L34.6342411,42.7421604 L34.5024507,42.7921985 C34.5834983,43.0056004 34.7878792,43.1466937 35.0162221,43.1466937 L36.6619821,43.1466937 C36.7812278,43.1468347 36.8886335,43.0967966 36.9629154,43.0198366 C37.0376202,42.9430175 37.082443,42.8387128 37.082584,42.7266556 C37.082584,42.6756309 37.0729992,42.6231966 37.0532659,42.5728766 L32.7484392,31.613688 C32.636664,31.3291051 32.3620888,31.1420613 32.056504,31.1419204 L30.3116545,31.1419204 C30.0059288,31.1420613 29.7314945,31.3291051 29.6197192,31.613688 L25.3148926,42.5727356 L25.3150335,42.5723128 C25.2950183,42.6231966 25.2855745,42.6757718 25.2855745,42.7266556 C25.2857154,42.8387128 25.3305383,42.9430175 25.4051021,43.0198366 C25.479525,43.0967966 25.5869307,43.1468347 25.7061764,43.1466937 L27.3519364,43.1466937 C27.5802792,43.1466937 27.7846602,43.0056004 27.8657078,42.7921985 L28.5659592,40.9488232 C28.5817459,40.9071013 28.6219173,40.8794747 28.6665992,40.8794747 L33.7015592,40.8794747 C33.7462411,40.8794747 33.7864126,40.9071013 33.8023402,40.9489642 L34.5024507,42.7921985 L34.6342411,42.7421604 Z" id="Fill-10" fill="#000000"></path>
            <path d="M44.1779013,40.2085272 L44.1779013,40.2085272 C44.1779013,39.6757272 43.8665375,39.1894415 43.3792651,38.9742072 C43.0315356,38.8207101 42.6358823,38.7427634 42.2403699,38.7427634 C41.2463737,38.7427634 40.4881909,39.3323672 40.4881909,40.2085272 C40.4881909,41.1014606 41.2463737,41.674291 42.2403699,41.674291 C42.6358823,41.674291 43.0315356,41.5963444 43.3792651,41.4428472 C43.8665375,41.227613 44.1779013,40.7413272 44.1779013,40.2085272 M44.1779013,42.6696968 L44.1779013,42.1167406 C44.1779013,42.002851 44.0424461,41.9425234 43.9588613,42.0199063 C43.3526251,42.5825882 42.4890099,42.8873272 41.532648,42.8873272 C40.218549,42.8873272 38.7189566,41.9776206 38.7189566,40.191613 C38.7189566,38.3046834 40.2017756,37.5297272 41.532648,37.5297272 C42.4778747,37.5297272 43.2891966,37.7852739 43.8837337,38.2862187 C43.9998785,38.3840396 44.1779013,38.2967901 44.1779013,38.1449844 L44.1779013,37.3611482 C44.1779013,36.417613 43.3860309,35.8447825 42.2740575,35.8447825 C41.6112994,35.8447825 41.0021032,36.023651 40.4530937,36.3943558 C40.111989,36.624672 39.6493832,36.5320663 39.436827,36.1794034 C39.2458366,35.8625425 39.3301261,35.4518072 39.6299318,35.2348815 C40.4755051,34.6227253 41.4690785,34.345331 42.5436994,34.345331 C44.3632537,34.345331 45.9469947,35.1035139 45.9469947,37.2768587 L45.9469947,42.6696968 C45.9469947,42.799232 45.8418442,42.9043825 45.712309,42.9043825 L44.4124461,42.9043825 C44.2829109,42.9043825 44.1779013,42.799232 44.1779013,42.6696968" id="Fill-12" fill="#000000"></path>
            <path d="M44.1779013,40.2085272 L44.3893299,40.2085272 L44.3893299,40.2085272 C44.3893299,39.5932701 44.0299013,39.0307291 43.4645413,38.7808206 C43.086789,38.6142149 42.6636499,38.5314758 42.2403699,38.5313349 C41.7019318,38.5314758 41.215928,38.690611 40.8574861,38.9835101 C40.6786175,39.1298187 40.5324499,39.3100968 40.4319509,39.5175787 C40.3311699,39.7249196 40.2766213,39.9590415 40.2767623,40.2085272 C40.2766213,40.4616777 40.330888,40.697773 40.431669,40.9062415 C40.5827699,41.2194377 40.8367661,41.467091 41.1501032,41.632851 C41.4637223,41.798893 41.8372461,41.8857196 42.2403699,41.8857196 C42.6636499,41.8855787 43.086789,41.8028396 43.4646823,41.6362339 C44.0299013,41.3863253 44.3893299,40.8237844 44.3893299,40.2085272 L44.1779013,40.2085272 L43.9664728,40.2085272 C43.9664728,40.6587291 43.7031737,41.0689006 43.293848,41.2493196 C42.9761413,41.3898491 42.6082556,41.4630034 42.2403699,41.4628625 C41.7834023,41.4630034 41.3931051,41.3306491 41.1247318,41.112173 C40.9901223,41.0027939 40.8849718,40.872272 40.8125223,40.7222987 C40.7400728,40.5721844 40.6996194,40.4019139 40.6994785,40.2085272 C40.6996194,40.019933 40.7397909,39.8517768 40.8123813,39.7022263 C40.9211966,39.478253 41.1044347,39.2934644 41.349128,39.1616739 C41.5935394,39.0303063 41.8988423,38.954051 42.2403699,38.954192 C42.6082556,38.954051 42.9761413,39.0272053 43.293848,39.1675939 C43.7031737,39.3481539 43.9664728,39.7583253 43.9664728,40.2085272 L43.9664728,40.2085272 L44.1779013,40.2085272 Z M44.1779013,42.6696968 L44.3893299,42.6696968 L44.3893299,42.1167406 C44.3900347,42.0187787 44.3461985,41.9265958 44.2822061,41.8675368 C44.2180728,41.807632 44.1353337,41.7740853 44.0461109,41.7736625 C43.9660499,41.7729577 43.8793642,41.8043901 43.814949,41.8651406 C43.255227,42.384973 42.4448918,42.6760396 41.532648,42.6758987 C40.9237337,42.6766034 40.2643585,42.4624968 39.768629,42.0469691 C39.5202709,41.8393463 39.3118023,41.5823901 39.164507,41.274973 C39.0173528,40.9674149 38.9305261,40.6085501 38.9303851,40.191613 C38.9305261,39.747472 39.0172118,39.3778949 39.1626747,39.0700549 C39.3810099,38.6089996 39.7335318,38.2807215 40.1546975,38.0621044 C40.5751585,37.844192 41.0641223,37.7408739 41.532648,37.7410149 C42.4408042,37.7414377 43.1994099,37.9859901 43.7475737,38.447891 C43.8190366,38.5087825 43.9102328,38.5395101 43.995368,38.5389463 C44.098827,38.5385234 44.1941109,38.4986339 44.2669832,38.4299901 C44.3398556,38.3619101 44.3898937,38.2581691 44.3893299,38.1449844 L44.3893299,37.3611482 C44.3894709,37.0957349 44.3330899,36.849491 44.2265299,36.6329882 C44.0668309,36.3073882 43.7962023,36.0538149 43.4593261,35.8865044 C43.122027,35.718771 42.7180575,35.6334949 42.2740575,35.6333539 C41.5732423,35.6326491 40.9175318,35.8247672 40.3346937,36.219152 C40.2439204,36.2803253 40.1429985,36.3090796 40.0433451,36.3090796 C39.8729337,36.3083749 39.712248,36.2264815 39.6178099,36.0703063 C39.5691813,35.9893996 39.5462061,35.9013044 39.5460651,35.8130682 C39.546347,35.656611 39.6187966,35.5038187 39.753829,35.4061387 C40.5599356,34.8231596 41.5048804,34.5573234 42.5436994,34.5567596 C43.4252156,34.5560549 44.232168,34.7428168 44.8018975,35.1660968 C45.087608,35.3778072 45.3175013,35.6471672 45.4797375,35.9917958 C45.6414099,36.3364244 45.7354251,36.7589996 45.7355661,37.2768587 L45.7355661,42.6696968 C45.7355661,42.6823825 45.7249947,42.692813 45.712309,42.6929539 L44.4124461,42.6929539 C44.3997604,42.692813 44.3893299,42.6825234 44.3893299,42.6696968 L44.1779013,42.6696968 L43.9664728,42.6696968 C43.9666137,42.9160815 44.1660613,43.1156701 44.4124461,43.115811 L45.712309,43.115811 C45.9586937,43.1156701 46.1582823,42.9162225 46.1584232,42.6696968 L46.1584232,37.2768587 C46.1584232,36.7081158 46.0544004,36.2208434 45.8624232,35.8120815 C45.5750213,35.197811 45.0890175,34.7707253 44.507589,34.5074263 C43.9254556,34.2429996 43.2477566,34.1341844 42.5436994,34.1339025 C41.4334175,34.1333387 40.3910747,34.422291 39.5058937,35.0636244 C39.2578175,35.2431977 39.123067,35.5258072 39.123349,35.8130682 C39.123208,35.9754453 39.1664804,36.1406415 39.2557032,36.2886415 C39.4289337,36.5766072 39.7346594,36.7327825 40.0433451,36.7319368 C40.2250328,36.7320777 40.4098213,36.6787977 40.5713528,36.5695596 C41.0865337,36.2225349 41.6490747,36.0569158 42.2740575,36.056211 C42.7944537,36.0559291 43.2240766,36.1912434 43.5134518,36.4163444 C43.6586328,36.5289653 43.7701261,36.663293 43.8470861,36.8194682 C43.9236232,36.9756434 43.9663318,37.1547939 43.9664728,37.3611482 L43.9664728,38.1449844 L43.9967775,38.1449844 L43.9761985,38.1229958 L43.9664728,38.1449844 L43.9967775,38.1449844 L43.9761985,38.1229958 L43.995227,38.143293 L43.995368,38.1160891 L43.9761985,38.1229958 L43.995227,38.143293 L43.995368,38.1160891 L43.995368,38.1537234 L44.0200347,38.1245463 L43.995368,38.1160891 L43.995368,38.1537234 L44.0200347,38.1245463 C43.3789832,37.5845577 42.5149451,37.3180168 41.532648,37.3182987 C40.8270404,37.3187215 40.0790061,37.521552 39.4946175,37.9879634 C39.203128,38.2209577 38.9542061,38.5210453 38.7802709,38.889213 C38.6061947,39.2573806 38.507387,39.6923596 38.507528,40.191613 C38.507387,40.6677501 38.608027,41.0922987 38.7832309,41.4576472 C39.0458251,42.0062339 39.4730518,42.4178149 39.9620156,42.6899939 C40.4515432,42.9624549 41.0035128,43.0986149 41.532648,43.0987558 C42.533269,43.0987558 43.4500232,42.7800625 44.1027737,42.1749539 L44.0461109,42.1137806 L44.0461109,42.1965196 C44.0652804,42.1972244 44.090229,42.1873577 44.1029147,42.174813 L44.0461109,42.1137806 L44.0461109,42.1965196 L44.0461109,42.118291 L43.992408,42.1753768 C44.007349,42.1891901 44.0241223,42.1962377 44.0461109,42.1965196 L44.0461109,42.118291 L43.992408,42.1753768 L44.0475204,42.1167406 L43.9664728,42.1167406 C43.965768,42.136192 43.9773261,42.1624091 43.992408,42.1753768 L44.0475204,42.1167406 L43.9664728,42.1167406 L43.9664728,42.6696968 L44.1779013,42.6696968 Z" id="Fill-14" fill="#000000"></path>
            <polygon id="Fill-16" fill="#F2CB27" points="51.0674705 61.0307318 43.8600114 55.9484118 58.3451238 35.4065756 65.5525829 40.4888956"></polygon>
            <polygon id="Fill-18" fill="#FCD42D" points="49.2796164 59.7700537 45.8510907 57.3524385 60.336203 36.8106023 63.7647288 39.2282175"></polygon>
            <polygon id="Fill-20" fill="#F1F9FE" points="65.5525547 40.4889238 58.3450956 35.4066038 60.3277318 32.5948857 67.5351909 37.6773467"></polygon>
            <path d="M67.535219,37.6772762 L60.32776,32.5949562 L61.494,30.941021 C61.9449067,30.301661 62.8286781,30.1487276 63.468179,30.5996343 L68.3600724,34.0493029 C68.9995733,34.5000686 69.1523657,35.383981 68.701459,36.023341 L67.535219,37.6772762 Z" id="Fill-22" fill="#4A90E2"></path>
            <path d="M41.7167741,64.3798309 L43.859955,55.9483413 L51.0674141,61.0308023 L43.5808693,65.6942118 C42.6518522,66.2667604 41.4895589,65.4471223 41.7167741,64.3798309" id="Fill-24" fill="#F2EFE9"></path>
            <path d="M42.3077733,62.0548495 L41.71676,64.379859 C41.4895448,65.4471505 42.6518381,66.2666476 43.5808552,65.69424 L45.5230381,64.4844457 L42.3077733,62.0548495 Z" id="Fill-26" fill="#000000"></path>
            <polygon id="Fill-28" fill="#F2EFE9" points="43.8636903 55.9467768 47.3787608 55.2583653 47.7779379 58.7191691"></polygon>
            <polygon id="Fill-30" fill="#F2EFE9" points="47.165091 58.2680651 50.6801615 57.5796537 51.0793387 61.0404575"></polygon>
        </g>
    </g>
</svg>